<?xml version="1.0"?><svg  viewBox="0 0 200 200" width="180mm" height="180mm" xmlns="http://www.w3.org/2000/svg"  version="1.2" viewport-fill="#fff">
  <polyline points="15.150,122.000 29.850,122.000"  style="fill:none;stroke:#FFF;stroke-width:0.1953;opacity:1" stroke-linecap="round"/>
  <polyline points="12.000,122.000 15.150,123.575 15.150,120.425 12.000,122.000"  style="fill:none;stroke:#FFF;stroke-width:0.1953;opacity:1" stroke-linecap="round"/>
  <polyline points="33.000,122.000 29.850,123.575 29.850,120.425 33.000,122.000"  style="fill:none;stroke:#FFF;stroke-width:0.1953;opacity:1" stroke-linecap="round"/>
  <polyline points="17.625,126.500 17.625,128.600"  style="fill:none;stroke:#FFF;stroke-width:0.1953;opacity:1" stroke-linecap="round"/>
  <polyline points="17.625,126.950 17.325,126.650 17.025,126.500 16.575,126.500 16.275,126.650 15.975,126.950 15.825,127.400 15.825,127.700 15.975,128.150 16.275,128.450 16.575,128.600 17.025,128.600 17.325,128.450 17.625,128.150"  style="fill:none;stroke:#FFF;stroke-width:0.1953;opacity:1" stroke-linecap="round"/>
  <polyline points="18.975,125.450 18.975,128.000 19.125,128.450 19.425,128.600 19.725,128.600"  style="fill:none;stroke:#FFF;stroke-width:0.1953;opacity:1" stroke-linecap="round"/>
  <polyline points="18.525,126.500 19.575,126.500"  style="fill:none;stroke:#FFF;stroke-width:0.1953;opacity:1" stroke-linecap="round"/>
  <polyline points="20.775,125.450 20.775,128.000 20.925,128.450 21.225,128.600 21.525,128.600"  style="fill:none;stroke:#FFF;stroke-width:0.1953;opacity:1" stroke-linecap="round"/>
  <polyline points="20.325,126.500 21.375,126.500"  style="fill:none;stroke:#FFF;stroke-width:0.1953;opacity:1" stroke-linecap="round"/>
  <polyline points="24.075,126.500 24.075,128.600"  style="fill:none;stroke:#FFF;stroke-width:0.1953;opacity:1" stroke-linecap="round"/>
  <polyline points="24.075,126.950 23.775,126.650 23.475,126.500 23.025,126.500 22.725,126.650 22.425,126.950 22.275,127.400 22.275,127.700 22.425,128.150 22.725,128.450 23.025,128.600 23.475,128.600 23.775,128.450 24.075,128.150"  style="fill:none;stroke:#FFF;stroke-width:0.1953;opacity:1" stroke-linecap="round"/>
  <polyline points="26.925,126.950 26.625,126.650 26.325,126.500 25.875,126.500 25.575,126.650 25.275,126.950 25.125,127.400 25.125,127.700 25.275,128.150 25.575,128.450 25.875,128.600 26.325,128.600 26.625,128.450 26.925,128.150"  style="fill:none;stroke:#FFF;stroke-width:0.1953;opacity:1" stroke-linecap="round"/>
  <polyline points="27.975,125.450 27.975,128.600"  style="fill:none;stroke:#FFF;stroke-width:0.1953;opacity:1" stroke-linecap="round"/>
  <polyline points="29.475,126.500 27.975,128.000"  style="fill:none;stroke:#FFF;stroke-width:0.1953;opacity:1" stroke-linecap="round"/>
  <polyline points="28.575,127.400 29.625,128.600"  style="fill:none;stroke:#FFF;stroke-width:0.1953;opacity:1" stroke-linecap="round"/>
  <polyline points="33.000,115.750 33.000,115.550 33.000,115.350 33.000,115.150 33.000,114.950 33.000,114.750 33.000,114.550 33.000,114.350 33.000,114.150 33.000,113.950"  style="fill:none;stroke:#FFF;stroke-width:0.1953;opacity:1" stroke-linecap="round"/>
  <polyline points="33.000,112.750 33.000,112.550 33.000,112.350 33.000,112.150 33.000,111.950 33.000,111.750 33.000,111.550 33.000,111.350 33.000,111.150 33.000,110.950"  style="fill:none;stroke:#FFF;stroke-width:0.1953;opacity:1" stroke-linecap="round"/>
  <polyline points="33.000,109.750 33.000,109.550 33.000,109.350 33.000,109.150 33.000,108.950 33.000,108.750 33.000,108.550 33.000,108.350 33.000,108.150 33.000,107.950"  style="fill:none;stroke:#FFF;stroke-width:0.1953;opacity:1" stroke-linecap="round"/>
  <polyline points="33.000,106.750 33.000,106.550 33.000,106.350 33.000,106.150 33.000,105.950 33.000,105.750 33.000,105.550 33.000,105.350 33.000,105.150 33.000,104.950"  style="fill:none;stroke:#FFF;stroke-width:0.1953;opacity:1" stroke-linecap="round"/>
  <polyline points="33.000,103.750 33.000,103.550 33.000,103.350 33.000,103.150 33.000,102.950 33.000,102.750 33.000,102.550 33.000,102.350 33.000,102.150 33.000,101.950"  style="fill:none;stroke:#FFF;stroke-width:0.1953;opacity:1" stroke-linecap="round"/>
  <polyline points="33.000,100.750 33.000,100.550 33.000,100.350 33.000,100.150 33.000,99.950 33.000,99.750 33.000,99.550 33.000,99.350 33.000,99.150 33.000,98.950"  style="fill:none;stroke:#FFF;stroke-width:0.1953;opacity:1" stroke-linecap="round"/>
  <polyline points="33.000,97.750 33.000,97.550 33.000,97.350 33.000,97.150 33.000,96.950 33.000,96.750 33.000,96.550 33.000,96.350 33.000,96.150 33.000,95.950"  style="fill:none;stroke:#FFF;stroke-width:0.1953;opacity:1" stroke-linecap="round"/>
  <polyline points="33.000,94.750 33.000,94.550 33.000,94.350 33.000,94.150 33.000,93.950 33.000,93.750 33.000,93.550 33.000,93.350 33.000,93.150 33.000,92.950"  style="fill:none;stroke:#FFF;stroke-width:0.1953;opacity:1" stroke-linecap="round"/>
  <polyline points="33.000,91.750 33.000,91.550 33.000,91.350 33.000,91.150 33.000,90.950 33.000,90.750 33.000,90.550 33.000,90.350 33.000,90.150 33.000,89.950"  style="fill:none;stroke:#FFF;stroke-width:0.1953;opacity:1" stroke-linecap="round"/>
  <polyline points="33.000,88.750 33.000,88.550 33.000,88.350 33.000,88.150 33.000,87.950 33.000,87.750 33.000,87.550 33.000,87.350 33.000,87.150 33.000,86.950"  style="fill:none;stroke:#FFF;stroke-width:0.1953;opacity:1" stroke-linecap="round"/>
  <polyline points="33.000,85.750 33.000,85.550 33.000,85.350 33.000,85.150 33.000,84.950 33.000,84.750 33.000,84.550 33.000,84.350 33.000,84.150 33.000,83.950"  style="fill:none;stroke:#FFF;stroke-width:0.1953;opacity:1" stroke-linecap="round"/>
  <polyline points="33.000,82.750 33.000,82.550 33.000,82.350 33.000,82.150 33.000,81.950 33.000,81.750 33.000,81.550 33.000,81.350 33.000,81.150 33.000,80.950"  style="fill:none;stroke:#FFF;stroke-width:0.1953;opacity:1" stroke-linecap="round"/>
  <polyline points="33.000,79.750 33.000,79.550 33.000,79.350 33.000,79.150 33.000,78.950 33.000,78.750 33.000,78.550 33.000,78.350 33.000,78.150 33.000,77.950"  style="fill:none;stroke:#FFF;stroke-width:0.1953;opacity:1" stroke-linecap="round"/>
  <polyline points="33.000,76.750 33.000,76.550 33.000,76.350 33.000,76.150 33.000,75.950 33.000,75.750 33.000,75.550 33.000,75.350 33.000,75.150 33.000,74.950"  style="fill:none;stroke:#FFF;stroke-width:0.1953;opacity:1" stroke-linecap="round"/>
  <polyline points="34.000,74.750 34.200,74.750 34.400,74.750 34.600,74.750 34.800,74.750 35.000,74.750 35.200,74.750 35.400,74.750 35.600,74.750 35.800,74.750"  style="fill:none;stroke:#FFF;stroke-width:0.1953;opacity:1" stroke-linecap="round"/>
  <polyline points="37.000,74.750 37.200,74.750 37.400,74.750 37.600,74.750 37.800,74.750 38.000,74.750 38.200,74.750 38.400,74.750 38.600,74.750 38.800,74.750"  style="fill:none;stroke:#FFF;stroke-width:0.1953;opacity:1" stroke-linecap="round"/>
  <polyline points="40.000,74.750 40.200,74.750 40.400,74.750 40.600,74.750 40.800,74.750 41.000,74.750 41.200,74.750 41.400,74.750 41.600,74.750 41.800,74.750"  style="fill:none;stroke:#FFF;stroke-width:0.1953;opacity:1" stroke-linecap="round"/>
  <polyline points="43.000,74.750 43.200,74.750 43.400,74.750 43.600,74.750 43.800,74.750 44.000,74.750 44.200,74.750 44.400,74.750 44.600,74.750 44.800,74.750"  style="fill:none;stroke:#FFF;stroke-width:0.1953;opacity:1" stroke-linecap="round"/>
  <polyline points="46.000,74.750 46.200,74.750 46.400,74.750 46.600,74.750 46.800,74.750 47.000,74.750 47.200,74.750 47.400,74.750 47.600,74.750 47.800,74.750"  style="fill:none;stroke:#FFF;stroke-width:0.1953;opacity:1" stroke-linecap="round"/>
  <polyline points="49.000,74.750 49.200,74.750 49.400,74.750 49.600,74.750 49.800,74.750 50.000,74.750 50.200,74.750 50.400,74.750 50.600,74.750 50.800,74.750"  style="fill:none;stroke:#FFF;stroke-width:0.1953;opacity:1" stroke-linecap="round"/>
  <polyline points="52.000,74.750 52.200,74.750 52.400,74.750 52.600,74.750 52.800,74.750 53.000,74.750 53.200,74.750 53.400,74.750 53.600,74.750 53.800,74.750"  style="fill:none;stroke:#FFF;stroke-width:0.1953;opacity:1" stroke-linecap="round"/>
  <polyline points="55.000,74.750 55.200,74.750 55.400,74.750 55.600,74.750 55.800,74.750 56.000,74.750 56.200,74.750 56.400,74.750 56.600,74.750 56.800,74.750"  style="fill:none;stroke:#FFF;stroke-width:0.1953;opacity:1" stroke-linecap="round"/>
  <polyline points="58.000,74.750 58.200,74.750 58.400,74.750 58.600,74.750 58.800,74.750 59.000,74.750 59.200,74.750 59.400,74.750 59.600,74.750 59.800,74.750"  style="fill:none;stroke:#FFF;stroke-width:0.1953;opacity:1" stroke-linecap="round"/>
  <polyline points="61.000,74.750 61.200,74.750 61.400,74.750 61.600,74.750 61.800,74.750 62.000,74.750 62.200,74.750 62.400,74.750 62.600,74.750 62.800,74.750"  style="fill:none;stroke:#FFF;stroke-width:0.1953;opacity:1" stroke-linecap="round"/>
  <polyline points="64.000,74.750 64.200,74.750 64.400,74.750 64.600,74.750 64.800,74.750 65.000,74.750 65.200,74.750 65.400,74.750 65.600,74.750 65.800,74.750"  style="fill:none;stroke:#FFF;stroke-width:0.1953;opacity:1" stroke-linecap="round"/>
  <polyline points="67.000,74.750 67.200,74.750 67.400,74.750 67.600,74.750 67.800,74.750 68.000,74.750 68.200,74.750 68.400,74.750 68.600,74.750 68.800,74.750"  style="fill:none;stroke:#FFF;stroke-width:0.1953;opacity:1" stroke-linecap="round"/>
  <polyline points="70.000,74.750 70.200,74.750 70.400,74.750 70.600,74.750 70.800,74.750 71.000,74.750 71.200,74.750 71.400,74.750 71.600,74.750 71.800,74.750"  style="fill:none;stroke:#FFF;stroke-width:0.1953;opacity:1" stroke-linecap="round"/>
  <polyline points="73.000,74.750 73.200,74.750 73.400,74.750 73.600,74.750 73.800,74.750 74.000,74.750 74.200,74.750 74.400,74.750 74.600,74.750 74.800,74.750"  style="fill:none;stroke:#FFF;stroke-width:0.1953;opacity:1" stroke-linecap="round"/>
  <polyline points="76.000,74.750 76.200,74.750 76.400,74.750 76.600,74.750 76.800,74.750 77.000,74.750 77.200,74.750 77.400,74.750 77.600,74.750 77.800,74.750"  style="fill:none;stroke:#FFF;stroke-width:0.1953;opacity:1" stroke-linecap="round"/>
  <polyline points="79.000,74.750 79.200,74.750 79.400,74.750 79.600,74.750 79.800,74.750 80.000,74.750 80.200,74.750 80.400,74.750 80.600,74.750 80.800,74.750"  style="fill:none;stroke:#FFF;stroke-width:0.1953;opacity:1" stroke-linecap="round"/>
  <polyline points="82.000,74.750 82.200,74.750 82.400,74.750 82.600,74.750 82.800,74.750 83.000,74.750 83.200,74.750 83.400,74.750 83.600,74.750 83.800,74.750"  style="fill:none;stroke:#FFF;stroke-width:0.1953;opacity:1" stroke-linecap="round"/>
  <polyline points="85.000,74.750 85.200,74.750 85.400,74.750 85.600,74.750 85.800,74.750 86.000,74.750 86.200,74.750 86.400,74.750 86.600,74.750 86.800,74.750"  style="fill:none;stroke:#FFF;stroke-width:0.1953;opacity:1" stroke-linecap="round"/>
  <polyline points="88.000,74.750 88.200,74.750 88.400,74.750 88.600,74.750 88.800,74.750 89.000,74.750 89.200,74.750 89.400,74.750 89.600,74.750 89.800,74.750"  style="fill:none;stroke:#FFF;stroke-width:0.1953;opacity:1" stroke-linecap="round"/>
  <polyline points="91.000,74.750 91.200,74.750 91.400,74.750 91.600,74.750 91.800,74.750 92.000,74.750 92.200,74.750 92.400,74.750 92.600,74.750 92.800,74.750"  style="fill:none;stroke:#FFF;stroke-width:0.1953;opacity:1" stroke-linecap="round"/>
  <polyline points="94.000,74.750 94.200,74.750 94.400,74.750 94.600,74.750 94.800,74.750 95.000,74.750 95.200,74.750 95.400,74.750 95.600,74.750 95.800,74.750"  style="fill:none;stroke:#FFF;stroke-width:0.1953;opacity:1" stroke-linecap="round"/>
  <polyline points="97.000,74.750 97.200,74.750 97.400,74.750 97.600,74.750 97.800,74.750 98.000,74.750 98.200,74.750 98.400,74.750 98.600,74.750 98.800,74.750"  style="fill:none;stroke:#FFF;stroke-width:0.1953;opacity:1" stroke-linecap="round"/>
  <polyline points="100.000,74.750 100.200,74.750 100.400,74.750 100.600,74.750 100.800,74.750 101.000,74.750 101.200,74.750 101.400,74.750 101.600,74.750 101.800,74.750"  style="fill:none;stroke:#FFF;stroke-width:0.1953;opacity:1" stroke-linecap="round"/>
  <polyline points="103.000,74.750 103.200,74.750 103.400,74.750 103.600,74.750 103.800,74.750 104.000,74.750 104.200,74.750 104.400,74.750 104.600,74.750 104.800,74.750"  style="fill:none;stroke:#FFF;stroke-width:0.1953;opacity:1" stroke-linecap="round"/>
  <polyline points="106.000,74.750 106.200,74.750 106.400,74.750 106.600,74.750 106.800,74.750 107.000,74.750 107.200,74.750 107.400,74.750 107.600,74.750 107.800,74.750"  style="fill:none;stroke:#FFF;stroke-width:0.1953;opacity:1" stroke-linecap="round"/>
  <polyline points="109.000,74.750 109.200,74.750 109.400,74.750 109.600,74.750 109.800,74.750 110.000,74.750 110.200,74.750 110.400,74.750 110.600,74.750 110.800,74.750"  style="fill:none;stroke:#FFF;stroke-width:0.1953;opacity:1" stroke-linecap="round"/>
  <polyline points="112.000,74.750 112.200,74.750 112.400,74.750 112.600,74.750 112.800,74.750 113.000,74.750 113.200,74.750 113.400,74.750 113.600,74.750 113.800,74.750"  style="fill:none;stroke:#FFF;stroke-width:0.1953;opacity:1" stroke-linecap="round"/>
  <polyline points="115.000,74.750 115.200,74.750 115.400,74.750 115.600,74.750 115.800,74.750 116.000,74.750 116.200,74.750 116.400,74.750 116.600,74.750 116.800,74.750"  style="fill:none;stroke:#FFF;stroke-width:0.1953;opacity:1" stroke-linecap="round"/>
  <polyline points="118.000,74.750 118.200,74.750 118.400,74.750 118.600,74.750 118.800,74.750 119.000,74.750 119.200,74.750 119.400,74.750 119.600,74.750 119.800,74.750"  style="fill:none;stroke:#FFF;stroke-width:0.1953;opacity:1" stroke-linecap="round"/>
  <polyline points="121.000,74.750 121.200,74.750 121.400,74.750 121.600,74.750 121.800,74.750 122.000,74.750 122.200,74.750 122.400,74.750 122.600,74.750 122.800,74.750"  style="fill:none;stroke:#FFF;stroke-width:0.1953;opacity:1" stroke-linecap="round"/>
  <polyline points="124.000,74.750 124.200,74.750 124.400,74.750 124.600,74.750 124.800,74.750 125.000,74.750 125.200,74.750 125.400,74.750 125.600,74.750 125.800,74.750"  style="fill:none;stroke:#FFF;stroke-width:0.1953;opacity:1" stroke-linecap="round"/>
  <polyline points="127.000,74.750 127.200,74.750 127.400,74.750 127.600,74.750 127.800,74.750 128.000,74.750 128.200,74.750 128.400,74.750 128.600,74.750 128.800,74.750"  style="fill:none;stroke:#FFF;stroke-width:0.1953;opacity:1" stroke-linecap="round"/>
  <polyline points="130.000,74.750 130.200,74.750 130.400,74.750 130.600,74.750 130.800,74.750 131.000,74.750 131.200,74.750 131.400,74.750 131.600,74.750 131.800,74.750"  style="fill:none;stroke:#FFF;stroke-width:0.1953;opacity:1" stroke-linecap="round"/>
  <polyline points="133.000,74.750 133.200,74.750 133.400,74.750 133.600,74.750 133.800,74.750 134.000,74.750 134.200,74.750 134.400,74.750 134.600,74.750 134.800,74.750"  style="fill:none;stroke:#FFF;stroke-width:0.1953;opacity:1" stroke-linecap="round"/>
  <polyline points="136.000,74.750 136.200,74.750 136.400,74.750 136.600,74.750 136.800,74.750 137.000,74.750 137.200,74.750 137.400,74.750 137.600,74.750 137.800,74.750"  style="fill:none;stroke:#FFF;stroke-width:0.1953;opacity:1" stroke-linecap="round"/>
  <polyline points="139.000,74.750 139.200,74.750 139.400,74.750 139.600,74.750 139.800,74.750 140.000,74.750 140.200,74.750 140.400,74.750 140.600,74.750 140.800,74.750"  style="fill:none;stroke:#FFF;stroke-width:0.1953;opacity:1" stroke-linecap="round"/>
  <polyline points="142.000,74.750 142.200,74.750 142.400,74.750 142.600,74.750 142.800,74.750 143.000,74.750 143.200,74.750 143.400,74.750 143.600,74.750 143.800,74.750"  style="fill:none;stroke:#FFF;stroke-width:0.1953;opacity:1" stroke-linecap="round"/>
  <polyline points="145.000,74.750 145.200,74.750 145.400,74.750 145.600,74.750 145.800,74.750 146.000,74.750 146.200,74.750 146.400,74.750 146.600,74.750 146.800,74.750"  style="fill:none;stroke:#FFF;stroke-width:0.1953;opacity:1" stroke-linecap="round"/>
  <polyline points="148.000,74.750 148.200,74.750 148.400,74.750 148.600,74.750 148.800,74.750 149.000,74.750 149.200,74.750 149.400,74.750 149.600,74.750 149.800,74.750"  style="fill:none;stroke:#FFF;stroke-width:0.1953;opacity:1" stroke-linecap="round"/>
  <polyline points="151.000,74.750 151.200,74.750 151.400,74.750 151.600,74.750 151.800,74.750 152.000,74.750 152.200,74.750 152.400,74.750 152.600,74.750 152.800,74.750"  style="fill:none;stroke:#FFF;stroke-width:0.1953;opacity:1" stroke-linecap="round"/>
  <polyline points="154.000,74.750 154.200,74.750 154.400,74.750 154.600,74.750 154.800,74.750 155.000,74.750 155.200,74.750 155.400,74.750 155.600,74.750 155.800,74.750"  style="fill:none;stroke:#FFF;stroke-width:0.1953;opacity:1" stroke-linecap="round"/>
  <polyline points="157.000,74.750 157.200,74.750 157.400,74.750 157.600,74.750 157.800,74.750 158.000,74.750 158.200,74.750 158.400,74.750 158.600,74.750 158.800,74.750"  style="fill:none;stroke:#FFF;stroke-width:0.1953;opacity:1" stroke-linecap="round"/>
  <polyline points="163.875,74.000 163.875,76.100"  style="fill:none;stroke:#FFF;stroke-width:0.1953;opacity:1" stroke-linecap="round"/>
  <polyline points="163.875,74.450 163.575,74.150 163.275,74.000 162.825,74.000 162.525,74.150 162.225,74.450 162.075,74.900 162.075,75.200 162.225,75.650 162.525,75.950 162.825,76.100 163.275,76.100 163.575,75.950 163.875,75.650"  style="fill:none;stroke:#FFF;stroke-width:0.1953;opacity:1" stroke-linecap="round"/>
  <polyline points="165.225,72.950 165.225,75.500 165.375,75.950 165.675,76.100 165.975,76.100"  style="fill:none;stroke:#FFF;stroke-width:0.1953;opacity:1" stroke-linecap="round"/>
  <polyline points="164.775,74.000 165.825,74.000"  style="fill:none;stroke:#FFF;stroke-width:0.1953;opacity:1" stroke-linecap="round"/>
  <polyline points="167.025,72.950 167.025,75.500 167.175,75.950 167.475,76.100 167.775,76.100"  style="fill:none;stroke:#FFF;stroke-width:0.1953;opacity:1" stroke-linecap="round"/>
  <polyline points="166.575,74.000 167.625,74.000"  style="fill:none;stroke:#FFF;stroke-width:0.1953;opacity:1" stroke-linecap="round"/>
  <polyline points="170.325,74.000 170.325,76.100"  style="fill:none;stroke:#FFF;stroke-width:0.1953;opacity:1" stroke-linecap="round"/>
  <polyline points="170.325,74.450 170.025,74.150 169.725,74.000 169.275,74.000 168.975,74.150 168.675,74.450 168.525,74.900 168.525,75.200 168.675,75.650 168.975,75.950 169.275,76.100 169.725,76.100 170.025,75.950 170.325,75.650"  style="fill:none;stroke:#FFF;stroke-width:0.1953;opacity:1" stroke-linecap="round"/>
  <polyline points="173.175,74.450 172.875,74.150 172.575,74.000 172.125,74.000 171.825,74.150 171.525,74.450 171.375,74.900 171.375,75.200 171.525,75.650 171.825,75.950 172.125,76.100 172.575,76.100 172.875,75.950 173.175,75.650"  style="fill:none;stroke:#FFF;stroke-width:0.1953;opacity:1" stroke-linecap="round"/>
  <polyline points="174.225,72.950 174.225,76.100"  style="fill:none;stroke:#FFF;stroke-width:0.1953;opacity:1" stroke-linecap="round"/>
  <polyline points="175.725,74.000 174.225,75.500"  style="fill:none;stroke:#FFF;stroke-width:0.1953;opacity:1" stroke-linecap="round"/>
  <polyline points="174.825,74.900 175.875,76.100"  style="fill:none;stroke:#FFF;stroke-width:0.1953;opacity:1" stroke-linecap="round"/>
  <polyline points="176.175,77.150 178.875,77.150"  style="fill:none;stroke:#FFF;stroke-width:0.1953;opacity:1" stroke-linecap="round"/>
  <polyline points="179.475,72.950 179.475,76.100"  style="fill:none;stroke:#FFF;stroke-width:0.1953;opacity:1" stroke-linecap="round"/>
  <polyline points="180.525,74.900 182.325,74.900 182.325,74.600 182.175,74.300 182.025,74.150 181.725,74.000 181.275,74.000 180.975,74.150 180.675,74.450 180.525,74.900 180.525,75.200 180.675,75.650 180.975,75.950 181.275,76.100 181.725,76.100 182.025,75.950 182.325,75.650"  style="fill:none;stroke:#FFF;stroke-width:0.1953;opacity:1" stroke-linecap="round"/>
  <polyline points="183.075,74.000 183.975,76.100"  style="fill:none;stroke:#FFF;stroke-width:0.1953;opacity:1" stroke-linecap="round"/>
  <polyline points="184.875,74.000 183.975,76.100"  style="fill:none;stroke:#FFF;stroke-width:0.1953;opacity:1" stroke-linecap="round"/>
  <polyline points="185.625,74.900 187.425,74.900 187.425,74.600 187.275,74.300 187.125,74.150 186.825,74.000 186.375,74.000 186.075,74.150 185.775,74.450 185.625,74.900 185.625,75.200 185.775,75.650 186.075,75.950 186.375,76.100 186.825,76.100 187.125,75.950 187.425,75.650"  style="fill:none;stroke:#FFF;stroke-width:0.1953;opacity:1" stroke-linecap="round"/>
  <polyline points="188.475,72.950 188.475,76.100"  style="fill:none;stroke:#FFF;stroke-width:0.1953;opacity:1" stroke-linecap="round"/>
  <polyline points="36.150,122.000 50.850,122.000"  style="fill:none;stroke:#FFF;stroke-width:0.1953;opacity:1" stroke-linecap="round"/>
  <polyline points="33.000,122.000 36.150,123.575 36.150,120.425 33.000,122.000"  style="fill:none;stroke:#FFF;stroke-width:0.1953;opacity:1" stroke-linecap="round"/>
  <polyline points="54.000,122.000 50.850,123.575 50.850,120.425 54.000,122.000"  style="fill:none;stroke:#FFF;stroke-width:0.1953;opacity:1" stroke-linecap="round"/>
  <polyline points="40.125,125.450 40.125,128.600"  style="fill:none;stroke:#FFF;stroke-width:0.1953;opacity:1" stroke-linecap="round"/>
  <polyline points="40.125,126.950 39.825,126.650 39.525,126.500 39.075,126.500 38.775,126.650 38.475,126.950 38.325,127.400 38.325,127.700 38.475,128.150 38.775,128.450 39.075,128.600 39.525,128.600 39.825,128.450 40.125,128.150"  style="fill:none;stroke:#FFF;stroke-width:0.1953;opacity:1" stroke-linecap="round"/>
  <polyline points="41.175,127.400 42.975,127.400 42.975,127.100 42.825,126.800 42.675,126.650 42.375,126.500 41.925,126.500 41.625,126.650 41.325,126.950 41.175,127.400 41.175,127.700 41.325,128.150 41.625,128.450 41.925,128.600 42.375,128.600 42.675,128.450 42.975,128.150"  style="fill:none;stroke:#FFF;stroke-width:0.1953;opacity:1" stroke-linecap="round"/>
  <polyline points="45.675,126.950 45.375,126.650 45.075,126.500 44.625,126.500 44.325,126.650 44.025,126.950 43.875,127.400 43.875,127.700 44.025,128.150 44.325,128.450 44.625,128.600 45.075,128.600 45.375,128.450 45.675,128.150"  style="fill:none;stroke:#FFF;stroke-width:0.1953;opacity:1" stroke-linecap="round"/>
  <polyline points="48.375,126.500 48.375,128.600"  style="fill:none;stroke:#FFF;stroke-width:0.1953;opacity:1" stroke-linecap="round"/>
  <polyline points="48.375,126.950 48.075,126.650 47.775,126.500 47.325,126.500 47.025,126.650 46.725,126.950 46.575,127.400 46.575,127.700 46.725,128.150 47.025,128.450 47.325,128.600 47.775,128.600 48.075,128.450 48.375,128.150"  style="fill:none;stroke:#FFF;stroke-width:0.1953;opacity:1" stroke-linecap="round"/>
  <polyline points="49.275,126.500 50.175,128.600"  style="fill:none;stroke:#FFF;stroke-width:0.1953;opacity:1" stroke-linecap="round"/>
  <polyline points="51.075,126.500 50.175,128.600 49.875,129.200 49.575,129.500 49.275,129.650 49.125,129.650"  style="fill:none;stroke:#FFF;stroke-width:0.1953;opacity:1" stroke-linecap="round"/>
  <polyline points="54.000,115.750 54.000,115.550 54.000,115.350 54.000,115.150 54.000,114.950 54.000,114.750 54.000,114.550 54.000,114.350 54.000,114.150 54.000,113.950"  style="fill:none;stroke:#FFF;stroke-width:0.1953;opacity:1" stroke-linecap="round"/>
  <polyline points="54.000,112.750 54.000,112.550 54.000,112.350 54.000,112.150 54.000,111.950 54.000,111.750 54.000,111.550 54.000,111.350 54.000,111.150 54.000,110.950"  style="fill:none;stroke:#FFF;stroke-width:0.1953;opacity:1" stroke-linecap="round"/>
  <polyline points="54.000,109.750 54.000,109.550 54.000,109.350 54.000,109.150 54.000,108.950 54.000,108.750 54.000,108.550 54.000,108.350 54.000,108.150 54.000,107.950"  style="fill:none;stroke:#FFF;stroke-width:0.1953;opacity:1" stroke-linecap="round"/>
  <polyline points="54.000,106.750 54.000,106.550 54.000,106.350 54.000,106.150 54.000,105.950 54.000,105.750 54.000,105.550 54.000,105.350 54.000,105.150 54.000,104.950"  style="fill:none;stroke:#FFF;stroke-width:0.1953;opacity:1" stroke-linecap="round"/>
  <polyline points="54.000,103.950 54.000,103.750 54.000,103.550 54.000,103.350 54.000,103.150 54.000,102.950 54.000,102.750 54.000,102.550 54.000,102.350 54.000,102.150 54.000,101.950"  style="fill:none;stroke:#FFF;stroke-width:0.1953;opacity:1" stroke-linecap="round"/>
  <polyline points="54.000,100.750 54.000,100.550 54.000,100.350 54.000,100.150 54.000,99.950 54.000,99.750 54.000,99.550 54.000,99.350 54.000,99.150 54.000,98.950"  style="fill:none;stroke:#FFF;stroke-width:0.1953;opacity:1" stroke-linecap="round"/>
  <polyline points="54.000,97.950 54.200,97.950 54.400,97.950 54.600,97.949 54.800,97.949 55.000,97.949 55.200,97.949 55.400,97.949 55.600,97.948 55.800,97.948 56.000,97.948"  style="fill:none;stroke:#FFF;stroke-width:0.1953;opacity:1" stroke-linecap="round"/>
  <polyline points="57.000,97.947 57.200,97.947 57.400,97.947 57.600,97.947 57.800,97.946 58.000,97.946 58.200,97.946 58.400,97.946 58.600,97.946 58.800,97.945 59.000,97.945"  style="fill:none;stroke:#FFF;stroke-width:0.1953;opacity:1" stroke-linecap="round"/>
  <polyline points="60.000,97.944 60.200,97.944 60.400,97.944 60.600,97.944 60.800,97.944 61.000,97.943 61.200,97.943 61.400,97.943 61.600,97.943 61.800,97.943 62.000,97.942"  style="fill:none;stroke:#FFF;stroke-width:0.1953;opacity:1" stroke-linecap="round"/>
  <polyline points="63.000,97.941 63.200,97.941 63.400,97.941 63.600,97.941 63.800,97.941 64.000,97.940 64.200,97.940 64.400,97.940 64.600,97.940 64.800,97.940 65.000,97.940"  style="fill:none;stroke:#FFF;stroke-width:0.1953;opacity:1" stroke-linecap="round"/>
  <polyline points="66.000,97.939 66.200,97.938 66.400,97.938 66.600,97.938 66.800,97.938 67.000,97.938 67.200,97.937 67.400,97.937 67.600,97.937 67.800,97.937 68.000,97.937"  style="fill:none;stroke:#FFF;stroke-width:0.1953;opacity:1" stroke-linecap="round"/>
  <polyline points="69.000,97.936 69.200,97.936 69.400,97.935 69.600,97.935 69.800,97.935 70.000,97.935 70.200,97.935 70.400,97.934 70.600,97.934 70.800,97.934 71.000,97.934"  style="fill:none;stroke:#FFF;stroke-width:0.1953;opacity:1" stroke-linecap="round"/>
  <polyline points="72.000,97.933 72.200,97.933 72.400,97.932 72.600,97.932 72.800,97.932 73.000,97.932 73.200,97.932 73.400,97.932 73.600,97.931 73.800,97.931 74.000,97.931"  style="fill:none;stroke:#FFF;stroke-width:0.1953;opacity:1" stroke-linecap="round"/>
  <polyline points="75.000,97.930 75.200,97.930 75.400,97.930 75.600,97.929 75.800,97.929 76.000,97.929 76.200,97.929 76.400,97.929 76.600,97.928 76.800,97.928 77.000,97.928"  style="fill:none;stroke:#FFF;stroke-width:0.1953;opacity:1" stroke-linecap="round"/>
  <polyline points="78.000,97.927 78.200,97.927 78.400,97.927 78.600,97.927 78.800,97.926 79.000,97.926 79.200,97.926 79.400,97.926 79.600,97.926 79.800,97.925 80.000,97.925"  style="fill:none;stroke:#FFF;stroke-width:0.1953;opacity:1" stroke-linecap="round"/>
  <polyline points="81.000,97.924 81.200,97.924 81.400,97.924 81.600,97.924 81.800,97.924 82.000,97.923 82.200,97.923 82.400,97.923 82.600,97.923 82.800,97.923 83.000,97.922"  style="fill:none;stroke:#FFF;stroke-width:0.1953;opacity:1" stroke-linecap="round"/>
  <polyline points="84.000,97.921 84.200,97.921 84.400,97.921 84.600,97.921 84.800,97.921 85.000,97.920 85.200,97.920 85.400,97.920 85.600,97.920 85.800,97.920 86.000,97.920"  style="fill:none;stroke:#FFF;stroke-width:0.1953;opacity:1" stroke-linecap="round"/>
  <polyline points="87.000,97.919 87.200,97.918 87.400,97.918 87.600,97.918 87.800,97.918 88.000,97.918 88.200,97.917 88.400,97.917 88.600,97.917 88.800,97.917 89.000,97.917"  style="fill:none;stroke:#FFF;stroke-width:0.1953;opacity:1" stroke-linecap="round"/>
  <polyline points="90.000,97.916 90.200,97.916 90.400,97.915 90.600,97.915 90.800,97.915 91.000,97.915 91.200,97.915 91.400,97.914 91.600,97.914 91.800,97.914 92.000,97.914"  style="fill:none;stroke:#FFF;stroke-width:0.1953;opacity:1" stroke-linecap="round"/>
  <polyline points="93.000,97.913 93.200,97.913 93.400,97.912 93.600,97.912 93.800,97.912 94.000,97.912 94.200,97.912 94.400,97.912 94.600,97.911 94.800,97.911 95.000,97.911"  style="fill:none;stroke:#FFF;stroke-width:0.1953;opacity:1" stroke-linecap="round"/>
  <polyline points="96.000,97.910 96.200,97.910 96.400,97.910 96.600,97.909 96.800,97.909 97.000,97.909 97.200,97.909 97.400,97.909 97.600,97.908 97.800,97.908 98.000,97.908"  style="fill:none;stroke:#FFF;stroke-width:0.1953;opacity:1" stroke-linecap="round"/>
  <polyline points="99.000,97.907 99.200,97.907 99.400,97.907 99.600,97.907 99.800,97.906 100.000,97.906 100.200,97.906 100.400,97.906 100.600,97.906 100.800,97.905 101.000,97.905"  style="fill:none;stroke:#FFF;stroke-width:0.1953;opacity:1" stroke-linecap="round"/>
  <polyline points="102.000,97.904 102.200,97.904 102.400,97.904 102.600,97.904 102.800,97.904 103.000,97.903 103.200,97.903 103.400,97.903 103.600,97.903 103.800,97.903 104.000,97.902"  style="fill:none;stroke:#FFF;stroke-width:0.1953;opacity:1" stroke-linecap="round"/>
  <polyline points="105.000,97.901 105.200,97.901 105.400,97.901 105.600,97.901 105.800,97.901 106.000,97.900 106.200,97.900 106.400,97.900 106.600,97.900 106.800,97.900 107.000,97.900"  style="fill:none;stroke:#FFF;stroke-width:0.1953;opacity:1" stroke-linecap="round"/>
  <polyline points="108.000,97.899 108.200,97.898 108.400,97.898 108.600,97.898 108.800,97.898 109.000,97.898 109.200,97.897 109.400,97.897 109.600,97.897 109.800,97.897 110.000,97.897"  style="fill:none;stroke:#FFF;stroke-width:0.1953;opacity:1" stroke-linecap="round"/>
  <polyline points="111.000,97.896 111.200,97.896 111.400,97.895 111.600,97.895 111.800,97.895 112.000,97.895 112.200,97.895 112.400,97.894 112.600,97.894 112.800,97.894 113.000,97.894"  style="fill:none;stroke:#FFF;stroke-width:0.1953;opacity:1" stroke-linecap="round"/>
  <polyline points="114.000,97.893 114.200,97.893 114.400,97.892 114.600,97.892 114.800,97.892 115.000,97.892 115.200,97.892 115.400,97.892 115.600,97.891 115.800,97.891 116.000,97.891"  style="fill:none;stroke:#FFF;stroke-width:0.1953;opacity:1" stroke-linecap="round"/>
  <polyline points="117.000,97.890 117.200,97.890 117.400,97.890 117.600,97.889 117.800,97.889 118.000,97.889 118.200,97.889 118.400,97.889 118.600,97.888 118.800,97.888 119.000,97.888"  style="fill:none;stroke:#FFF;stroke-width:0.1953;opacity:1" stroke-linecap="round"/>
  <polyline points="120.000,97.887 120.200,97.887 120.400,97.887 120.600,97.887 120.800,97.886 121.000,97.886 121.200,97.886 121.400,97.886 121.600,97.886 121.800,97.885 122.000,97.885"  style="fill:none;stroke:#FFF;stroke-width:0.1953;opacity:1" stroke-linecap="round"/>
  <polyline points="123.000,97.884 123.200,97.884 123.400,97.884 123.600,97.884 123.800,97.884 124.000,97.883 124.200,97.883 124.400,97.883 124.600,97.883 124.800,97.883 125.000,97.882"  style="fill:none;stroke:#FFF;stroke-width:0.1953;opacity:1" stroke-linecap="round"/>
  <polyline points="126.000,97.881 126.200,97.881 126.400,97.881 126.600,97.881 126.800,97.881 127.000,97.880 127.200,97.880 127.400,97.880 127.600,97.880 127.800,97.880 128.000,97.880"  style="fill:none;stroke:#FFF;stroke-width:0.1953;opacity:1" stroke-linecap="round"/>
  <polyline points="129.000,97.879 129.200,97.878 129.400,97.878 129.600,97.878 129.800,97.878 130.000,97.878 130.200,97.877 130.400,97.877 130.600,97.877 130.800,97.877 131.000,97.877"  style="fill:none;stroke:#FFF;stroke-width:0.1953;opacity:1" stroke-linecap="round"/>
  <polyline points="132.000,97.876 132.200,97.876 132.400,97.875 132.600,97.875 132.800,97.875 133.000,97.875 133.200,97.875 133.400,97.874 133.600,97.874 133.800,97.874 134.000,97.874"  style="fill:none;stroke:#FFF;stroke-width:0.1953;opacity:1" stroke-linecap="round"/>
  <polyline points="135.000,97.873 135.200,97.873 135.400,97.872 135.600,97.872 135.800,97.872 136.000,97.872 136.200,97.872 136.400,97.872 136.600,97.871 136.800,97.871 137.000,97.871"  style="fill:none;stroke:#FFF;stroke-width:0.1953;opacity:1" stroke-linecap="round"/>
  <polyline points="138.000,97.870 138.200,97.870 138.400,97.870 138.600,97.869 138.800,97.869 139.000,97.869 139.200,97.869 139.400,97.869 139.600,97.868 139.800,97.868 140.000,97.868"  style="fill:none;stroke:#FFF;stroke-width:0.1953;opacity:1" stroke-linecap="round"/>
  <polyline points="141.000,97.867 141.200,97.867 141.400,97.867 141.600,97.867 141.800,97.866 142.000,97.866 142.200,97.866 142.400,97.866 142.600,97.866 142.800,97.865 143.000,97.865"  style="fill:none;stroke:#FFF;stroke-width:0.1953;opacity:1" stroke-linecap="round"/>
  <polyline points="144.000,97.864 144.200,97.864 144.400,97.864 144.600,97.864 144.800,97.864 145.000,97.863 145.200,97.863 145.400,97.863 145.600,97.863 145.800,97.863 146.000,97.862"  style="fill:none;stroke:#FFF;stroke-width:0.1953;opacity:1" stroke-linecap="round"/>
  <polyline points="147.000,97.861 147.200,97.861 147.400,97.861 147.600,97.861 147.800,97.861 148.000,97.860 148.200,97.860 148.400,97.860 148.600,97.860 148.800,97.860 149.000,97.860"  style="fill:none;stroke:#FFF;stroke-width:0.1953;opacity:1" stroke-linecap="round"/>
  <polyline points="150.000,97.859 150.200,97.858 150.400,97.858 150.600,97.858 150.800,97.858 151.000,97.858 151.200,97.857 151.400,97.857 151.600,97.857 151.800,97.857 152.000,97.857"  style="fill:none;stroke:#FFF;stroke-width:0.1953;opacity:1" stroke-linecap="round"/>
  <polyline points="153.000,97.856 153.200,97.856 153.400,97.855 153.600,97.855 153.800,97.855 154.000,97.855 154.200,97.855 154.400,97.854 154.600,97.854 154.800,97.854 155.000,97.854"  style="fill:none;stroke:#FFF;stroke-width:0.1953;opacity:1" stroke-linecap="round"/>
  <polyline points="156.000,97.853 156.200,97.853 156.400,97.852 156.600,97.852 156.800,97.852 157.000,97.852 157.200,97.852 157.400,97.852 157.600,97.851 157.800,97.851 158.000,97.851"  style="fill:none;stroke:#FFF;stroke-width:0.1953;opacity:1" stroke-linecap="round"/>
  <polyline points="163.875,96.050 163.875,99.200"  style="fill:none;stroke:#FFF;stroke-width:0.1953;opacity:1" stroke-linecap="round"/>
  <polyline points="163.875,97.550 163.575,97.250 163.275,97.100 162.825,97.100 162.525,97.250 162.225,97.550 162.075,98.000 162.075,98.300 162.225,98.750 162.525,99.050 162.825,99.200 163.275,99.200 163.575,99.050 163.875,98.750"  style="fill:none;stroke:#FFF;stroke-width:0.1953;opacity:1" stroke-linecap="round"/>
  <polyline points="164.925,98.000 166.725,98.000 166.725,97.700 166.575,97.400 166.425,97.250 166.125,97.100 165.675,97.100 165.375,97.250 165.075,97.550 164.925,98.000 164.925,98.300 165.075,98.750 165.375,99.050 165.675,99.200 166.125,99.200 166.425,99.050 166.725,98.750"  style="fill:none;stroke:#FFF;stroke-width:0.1953;opacity:1" stroke-linecap="round"/>
  <polyline points="169.425,97.550 169.125,97.250 168.825,97.100 168.375,97.100 168.075,97.250 167.775,97.550 167.625,98.000 167.625,98.300 167.775,98.750 168.075,99.050 168.375,99.200 168.825,99.200 169.125,99.050 169.425,98.750"  style="fill:none;stroke:#FFF;stroke-width:0.1953;opacity:1" stroke-linecap="round"/>
  <polyline points="172.125,97.100 172.125,99.200"  style="fill:none;stroke:#FFF;stroke-width:0.1953;opacity:1" stroke-linecap="round"/>
  <polyline points="172.125,97.550 171.825,97.250 171.525,97.100 171.075,97.100 170.775,97.250 170.475,97.550 170.325,98.000 170.325,98.300 170.475,98.750 170.775,99.050 171.075,99.200 171.525,99.200 171.825,99.050 172.125,98.750"  style="fill:none;stroke:#FFF;stroke-width:0.1953;opacity:1" stroke-linecap="round"/>
  <polyline points="173.025,97.100 173.925,99.200"  style="fill:none;stroke:#FFF;stroke-width:0.1953;opacity:1" stroke-linecap="round"/>
  <polyline points="174.825,97.100 173.925,99.200 173.625,99.800 173.325,100.100 173.025,100.250 172.875,100.250"  style="fill:none;stroke:#FFF;stroke-width:0.1953;opacity:1" stroke-linecap="round"/>
  <polyline points="175.125,100.250 177.825,100.250"  style="fill:none;stroke:#FFF;stroke-width:0.1953;opacity:1" stroke-linecap="round"/>
  <polyline points="178.425,96.050 178.425,99.200"  style="fill:none;stroke:#FFF;stroke-width:0.1953;opacity:1" stroke-linecap="round"/>
  <polyline points="179.475,98.000 181.275,98.000 181.275,97.700 181.125,97.400 180.975,97.250 180.675,97.100 180.225,97.100 179.925,97.250 179.625,97.550 179.475,98.000 179.475,98.300 179.625,98.750 179.925,99.050 180.225,99.200 180.675,99.200 180.975,99.050 181.275,98.750"  style="fill:none;stroke:#FFF;stroke-width:0.1953;opacity:1" stroke-linecap="round"/>
  <polyline points="182.025,97.100 182.925,99.200"  style="fill:none;stroke:#FFF;stroke-width:0.1953;opacity:1" stroke-linecap="round"/>
  <polyline points="183.825,97.100 182.925,99.200"  style="fill:none;stroke:#FFF;stroke-width:0.1953;opacity:1" stroke-linecap="round"/>
  <polyline points="184.575,98.000 186.375,98.000 186.375,97.700 186.225,97.400 186.075,97.250 185.775,97.100 185.325,97.100 185.025,97.250 184.725,97.550 184.575,98.000 184.575,98.300 184.725,98.750 185.025,99.050 185.325,99.200 185.775,99.200 186.075,99.050 186.375,98.750"  style="fill:none;stroke:#FFF;stroke-width:0.1953;opacity:1" stroke-linecap="round"/>
  <polyline points="187.425,96.050 187.425,99.200"  style="fill:none;stroke:#FFF;stroke-width:0.1953;opacity:1" stroke-linecap="round"/>
  <polyline points="57.150,122.000 103.350,122.000"  style="fill:none;stroke:#FFF;stroke-width:0.1953;opacity:1" stroke-linecap="round"/>
  <polyline points="54.000,122.000 57.150,123.575 57.150,120.425 54.000,122.000"  style="fill:none;stroke:#FFF;stroke-width:0.1953;opacity:1" stroke-linecap="round"/>
  <polyline points="106.500,122.000 103.350,123.575 103.350,120.425 106.500,122.000"  style="fill:none;stroke:#FFF;stroke-width:0.1953;opacity:1" stroke-linecap="round"/>
  <polyline points="74.325,126.950 74.175,126.650 73.725,126.500 73.275,126.500 72.825,126.650 72.675,126.950 72.825,127.250 73.125,127.400 73.875,127.550 74.175,127.700 74.325,128.000 74.325,128.150 74.175,128.450 73.725,128.600 73.275,128.600 72.825,128.450 72.675,128.150"  style="fill:none;stroke:#FFF;stroke-width:0.1953;opacity:1" stroke-linecap="round"/>
  <polyline points="75.375,126.500 75.375,128.000 75.525,128.450 75.825,128.600 76.275,128.600 76.575,128.450 77.025,128.000"  style="fill:none;stroke:#FFF;stroke-width:0.1953;opacity:1" stroke-linecap="round"/>
  <polyline points="77.025,126.500 77.025,128.600"  style="fill:none;stroke:#FFF;stroke-width:0.1953;opacity:1" stroke-linecap="round"/>
  <polyline points="79.725,126.950 79.575,126.650 79.125,126.500 78.675,126.500 78.225,126.650 78.075,126.950 78.225,127.250 78.525,127.400 79.275,127.550 79.575,127.700 79.725,128.000 79.725,128.150 79.575,128.450 79.125,128.600 78.675,128.600 78.225,128.450 78.075,128.150"  style="fill:none;stroke:#FFF;stroke-width:0.1953;opacity:1" stroke-linecap="round"/>
  <polyline points="80.925,125.450 80.925,128.000 81.075,128.450 81.375,128.600 81.675,128.600"  style="fill:none;stroke:#FFF;stroke-width:0.1953;opacity:1" stroke-linecap="round"/>
  <polyline points="80.475,126.500 81.525,126.500"  style="fill:none;stroke:#FFF;stroke-width:0.1953;opacity:1" stroke-linecap="round"/>
  <polyline points="84.225,126.500 84.225,128.600"  style="fill:none;stroke:#FFF;stroke-width:0.1953;opacity:1" stroke-linecap="round"/>
  <polyline points="84.225,126.950 83.925,126.650 83.625,126.500 83.175,126.500 82.875,126.650 82.575,126.950 82.425,127.400 82.425,127.700 82.575,128.150 82.875,128.450 83.175,128.600 83.625,128.600 83.925,128.450 84.225,128.150"  style="fill:none;stroke:#FFF;stroke-width:0.1953;opacity:1" stroke-linecap="round"/>
  <polyline points="85.275,125.450 85.425,125.600 85.575,125.450 85.425,125.300 85.275,125.450"  style="fill:none;stroke:#FFF;stroke-width:0.1953;opacity:1" stroke-linecap="round"/>
  <polyline points="85.425,126.500 85.425,128.600"  style="fill:none;stroke:#FFF;stroke-width:0.1953;opacity:1" stroke-linecap="round"/>
  <polyline points="86.625,126.500 86.625,128.600"  style="fill:none;stroke:#FFF;stroke-width:0.1953;opacity:1" stroke-linecap="round"/>
  <polyline points="86.625,127.100 87.075,126.650 87.375,126.500 87.825,126.500 88.125,126.650 88.275,127.100 88.275,128.600"  style="fill:none;stroke:#FFF;stroke-width:0.1953;opacity:1" stroke-linecap="round"/>
  <polyline points="106.500,115.750 106.500,115.550 106.500,115.350 106.500,115.150 106.500,114.950 106.500,114.750 106.500,114.550 106.500,114.350 106.500,114.150 106.500,113.950"  style="fill:none;stroke:#FFF;stroke-width:0.1953;opacity:1" stroke-linecap="round"/>
  <polyline points="106.500,112.750 106.500,112.550 106.500,112.350 106.500,112.150 106.500,111.950 106.500,111.750 106.500,111.550 106.500,111.350 106.500,111.150 106.500,110.950"  style="fill:none;stroke:#FFF;stroke-width:0.1953;opacity:1" stroke-linecap="round"/>
  <polyline points="106.500,109.750 106.500,109.550 106.500,109.350 106.500,109.150 106.500,108.950 106.500,108.750 106.500,108.550 106.500,108.350 106.500,108.150 106.500,107.950"  style="fill:none;stroke:#FFF;stroke-width:0.1953;opacity:1" stroke-linecap="round"/>
  <polyline points="106.500,106.750 106.500,106.550 106.500,106.350 106.500,106.150 106.500,105.950 106.500,105.750 106.500,105.550 106.500,105.350 106.500,105.150 106.500,104.950"  style="fill:none;stroke:#FFF;stroke-width:0.1953;opacity:1" stroke-linecap="round"/>
  <polyline points="106.500,103.750 106.500,103.550 106.500,103.350 106.500,103.150 106.500,102.950 106.500,102.750 106.500,102.550 106.500,102.350 106.500,102.150 106.500,101.950"  style="fill:none;stroke:#FFF;stroke-width:0.1953;opacity:1" stroke-linecap="round"/>
  <polyline points="106.500,100.750 106.500,100.550 106.500,100.350 106.500,100.150 106.500,99.950 106.500,99.750 106.500,99.550 106.500,99.350 106.500,99.150 106.500,98.950"  style="fill:none;stroke:#FFF;stroke-width:0.1953;opacity:1" stroke-linecap="round"/>
  <polyline points="106.500,97.750 106.500,97.550 106.500,97.350 106.500,97.150 106.500,96.950 106.500,96.750 106.500,96.550 106.500,96.350 106.500,96.150 106.500,95.950"  style="fill:none;stroke:#FFF;stroke-width:0.1953;opacity:1" stroke-linecap="round"/>
  <polyline points="106.500,94.750 106.500,94.550 106.500,94.350 106.500,94.150 106.500,93.950 106.500,93.750 106.500,93.550 106.500,93.350 106.500,93.150 106.500,92.950"  style="fill:none;stroke:#FFF;stroke-width:0.1953;opacity:1" stroke-linecap="round"/>
  <polyline points="106.500,91.750 106.500,91.550 106.500,91.350 106.500,91.150 106.500,90.950 106.500,90.750 106.500,90.550 106.500,90.350 106.500,90.150 106.500,89.950"  style="fill:none;stroke:#FFF;stroke-width:0.1953;opacity:1" stroke-linecap="round"/>
  <polyline points="106.500,88.750 106.500,88.550 106.500,88.350 106.500,88.150 106.500,87.950 106.500,87.750 106.500,87.550 106.500,87.350 106.500,87.150 106.500,86.950"  style="fill:none;stroke:#FFF;stroke-width:0.1953;opacity:1" stroke-linecap="round"/>
  <polyline points="106.500,85.750 106.500,85.550 106.500,85.350 106.700,85.350 106.900,85.349 107.100,85.349 107.300,85.348 107.500,85.348 107.700,85.348 107.900,85.347"  style="fill:none;stroke:#FFF;stroke-width:0.1953;opacity:1" stroke-linecap="round"/>
  <polyline points="108.900,85.345 109.100,85.345 109.300,85.345 109.500,85.344 109.700,85.344 109.900,85.344 110.100,85.343 110.300,85.343 110.500,85.342 110.700,85.342 110.900,85.342"  style="fill:none;stroke:#FFF;stroke-width:0.1953;opacity:1" stroke-linecap="round"/>
  <polyline points="111.900,85.340 112.100,85.339 112.300,85.339 112.500,85.339 112.700,85.338 112.900,85.338 113.100,85.337 113.300,85.337 113.500,85.337 113.700,85.336 113.900,85.336"  style="fill:none;stroke:#FFF;stroke-width:0.1953;opacity:1" stroke-linecap="round"/>
  <polyline points="114.900,85.334 115.100,85.334 115.300,85.333 115.500,85.333 115.700,85.332 115.900,85.332 116.100,85.332 116.300,85.331 116.500,85.331 116.700,85.331 116.900,85.330"  style="fill:none;stroke:#FFF;stroke-width:0.1953;opacity:1" stroke-linecap="round"/>
  <polyline points="117.900,85.328 118.100,85.328 118.300,85.328 118.500,85.327 118.700,85.327 118.900,85.326 119.100,85.326 119.300,85.326 119.500,85.325 119.700,85.325 119.900,85.324"  style="fill:none;stroke:#FFF;stroke-width:0.1953;opacity:1" stroke-linecap="round"/>
  <polyline points="120.900,85.323 121.100,85.322 121.300,85.322 121.500,85.321 121.700,85.321 121.900,85.321 122.100,85.320 122.300,85.320 122.500,85.320 122.700,85.319 122.900,85.319"  style="fill:none;stroke:#FFF;stroke-width:0.1953;opacity:1" stroke-linecap="round"/>
  <polyline points="123.900,85.317 124.100,85.316 124.300,85.316 124.500,85.316 124.700,85.315 124.900,85.315 125.100,85.315 125.300,85.314 125.500,85.314 125.700,85.313 125.900,85.313"  style="fill:none;stroke:#FFF;stroke-width:0.1953;opacity:1" stroke-linecap="round"/>
  <polyline points="126.900,85.311 127.100,85.311 127.300,85.310 127.500,85.310 127.700,85.310 127.900,85.309 128.100,85.309 128.300,85.308 128.500,85.308 128.700,85.308 128.900,85.307"  style="fill:none;stroke:#FFF;stroke-width:0.1953;opacity:1" stroke-linecap="round"/>
  <polyline points="129.900,85.305 130.100,85.305 130.300,85.305 130.500,85.304 130.700,85.304 130.900,85.304 131.100,85.303 131.300,85.303 131.500,85.302 131.700,85.302 131.900,85.302"  style="fill:none;stroke:#FFF;stroke-width:0.1953;opacity:1" stroke-linecap="round"/>
  <polyline points="132.900,85.300 133.100,85.299 133.300,85.299 133.500,85.299 133.700,85.298 133.900,85.298 134.100,85.297 134.300,85.297 134.500,85.297 134.700,85.296 134.900,85.296"  style="fill:none;stroke:#FFF;stroke-width:0.1953;opacity:1" stroke-linecap="round"/>
  <polyline points="135.900,85.294 136.100,85.294 136.300,85.293 136.500,85.293 136.700,85.292 136.900,85.292 137.100,85.292 137.300,85.291 137.500,85.291 137.700,85.291 137.900,85.290"  style="fill:none;stroke:#FFF;stroke-width:0.1953;opacity:1" stroke-linecap="round"/>
  <polyline points="138.900,85.288 139.100,85.288 139.300,85.288 139.500,85.287 139.700,85.287 139.900,85.286 140.100,85.286 140.300,85.286 140.500,85.285 140.700,85.285 140.900,85.284"  style="fill:none;stroke:#FFF;stroke-width:0.1953;opacity:1" stroke-linecap="round"/>
  <polyline points="141.900,85.283 142.100,85.282 142.300,85.282 142.500,85.281 142.700,85.281 142.900,85.281 143.100,85.280 143.300,85.280 143.500,85.280 143.700,85.279 143.900,85.279"  style="fill:none;stroke:#FFF;stroke-width:0.1953;opacity:1" stroke-linecap="round"/>
  <polyline points="144.900,85.277 145.100,85.276 145.300,85.276 145.500,85.276 145.700,85.275 145.900,85.275 146.100,85.275 146.300,85.274 146.500,85.274 146.700,85.273 146.900,85.273"  style="fill:none;stroke:#FFF;stroke-width:0.1953;opacity:1" stroke-linecap="round"/>
  <polyline points="147.900,85.271 148.100,85.271 148.300,85.270 148.500,85.270 148.700,85.270 148.900,85.269 149.100,85.269 149.300,85.268 149.500,85.268 149.700,85.268 149.900,85.267"  style="fill:none;stroke:#FFF;stroke-width:0.1953;opacity:1" stroke-linecap="round"/>
  <polyline points="150.900,85.265 151.100,85.265 151.300,85.265 151.500,85.264 151.700,85.264 151.900,85.264 152.100,85.263 152.300,85.263 152.500,85.262 152.700,85.262 152.900,85.262"  style="fill:none;stroke:#FFF;stroke-width:0.1953;opacity:1" stroke-linecap="round"/>
  <polyline points="153.900,85.260 154.100,85.259 154.300,85.259 154.500,85.259 154.700,85.258 154.900,85.258 155.100,85.257 155.300,85.257 155.500,85.257 155.700,85.256 155.900,85.256"  style="fill:none;stroke:#FFF;stroke-width:0.1953;opacity:1" stroke-linecap="round"/>
  <polyline points="156.900,85.254 157.100,85.254 157.300,85.253 157.500,85.253 157.700,85.252 157.900,85.252 158.100,85.252 158.300,85.251 158.500,85.251 158.700,85.251 158.900,85.250"  style="fill:none;stroke:#FFF;stroke-width:0.1953;opacity:1" stroke-linecap="round"/>
  <polyline points="163.725,84.950 163.575,84.650 163.125,84.500 162.675,84.500 162.225,84.650 162.075,84.950 162.225,85.250 162.525,85.400 163.275,85.550 163.575,85.700 163.725,86.000 163.725,86.150 163.575,86.450 163.125,86.600 162.675,86.600 162.225,86.450 162.075,86.150"  style="fill:none;stroke:#FFF;stroke-width:0.1953;opacity:1" stroke-linecap="round"/>
  <polyline points="164.775,84.500 164.775,86.000 164.925,86.450 165.225,86.600 165.675,86.600 165.975,86.450 166.425,86.000"  style="fill:none;stroke:#FFF;stroke-width:0.1953;opacity:1" stroke-linecap="round"/>
  <polyline points="166.425,84.500 166.425,86.600"  style="fill:none;stroke:#FFF;stroke-width:0.1953;opacity:1" stroke-linecap="round"/>
  <polyline points="169.125,84.950 168.975,84.650 168.525,84.500 168.075,84.500 167.625,84.650 167.475,84.950 167.625,85.250 167.925,85.400 168.675,85.550 168.975,85.700 169.125,86.000 169.125,86.150 168.975,86.450 168.525,86.600 168.075,86.600 167.625,86.450 167.475,86.150"  style="fill:none;stroke:#FFF;stroke-width:0.1953;opacity:1" stroke-linecap="round"/>
  <polyline points="170.325,83.450 170.325,86.000 170.475,86.450 170.775,86.600 171.075,86.600"  style="fill:none;stroke:#FFF;stroke-width:0.1953;opacity:1" stroke-linecap="round"/>
  <polyline points="169.875,84.500 170.925,84.500"  style="fill:none;stroke:#FFF;stroke-width:0.1953;opacity:1" stroke-linecap="round"/>
  <polyline points="173.625,84.500 173.625,86.600"  style="fill:none;stroke:#FFF;stroke-width:0.1953;opacity:1" stroke-linecap="round"/>
  <polyline points="173.625,84.950 173.325,84.650 173.025,84.500 172.575,84.500 172.275,84.650 171.975,84.950 171.825,85.400 171.825,85.700 171.975,86.150 172.275,86.450 172.575,86.600 173.025,86.600 173.325,86.450 173.625,86.150"  style="fill:none;stroke:#FFF;stroke-width:0.1953;opacity:1" stroke-linecap="round"/>
  <polyline points="174.675,83.450 174.825,83.600 174.975,83.450 174.825,83.300 174.675,83.450"  style="fill:none;stroke:#FFF;stroke-width:0.1953;opacity:1" stroke-linecap="round"/>
  <polyline points="174.825,84.500 174.825,86.600"  style="fill:none;stroke:#FFF;stroke-width:0.1953;opacity:1" stroke-linecap="round"/>
  <polyline points="176.025,84.500 176.025,86.600"  style="fill:none;stroke:#FFF;stroke-width:0.1953;opacity:1" stroke-linecap="round"/>
  <polyline points="176.025,85.100 176.475,84.650 176.775,84.500 177.225,84.500 177.525,84.650 177.675,85.100 177.675,86.600"  style="fill:none;stroke:#FFF;stroke-width:0.1953;opacity:1" stroke-linecap="round"/>
  <polyline points="178.275,87.650 180.975,87.650"  style="fill:none;stroke:#FFF;stroke-width:0.1953;opacity:1" stroke-linecap="round"/>
  <polyline points="181.575,83.450 181.575,86.600"  style="fill:none;stroke:#FFF;stroke-width:0.1953;opacity:1" stroke-linecap="round"/>
  <polyline points="182.625,85.400 184.425,85.400 184.425,85.100 184.275,84.800 184.125,84.650 183.825,84.500 183.375,84.500 183.075,84.650 182.775,84.950 182.625,85.400 182.625,85.700 182.775,86.150 183.075,86.450 183.375,86.600 183.825,86.600 184.125,86.450 184.425,86.150"  style="fill:none;stroke:#FFF;stroke-width:0.1953;opacity:1" stroke-linecap="round"/>
  <polyline points="185.175,84.500 186.075,86.600"  style="fill:none;stroke:#FFF;stroke-width:0.1953;opacity:1" stroke-linecap="round"/>
  <polyline points="186.975,84.500 186.075,86.600"  style="fill:none;stroke:#FFF;stroke-width:0.1953;opacity:1" stroke-linecap="round"/>
  <polyline points="187.725,85.400 189.525,85.400 189.525,85.100 189.375,84.800 189.225,84.650 188.925,84.500 188.475,84.500 188.175,84.650 187.875,84.950 187.725,85.400 187.725,85.700 187.875,86.150 188.175,86.450 188.475,86.600 188.925,86.600 189.225,86.450 189.525,86.150"  style="fill:none;stroke:#FFF;stroke-width:0.1953;opacity:1" stroke-linecap="round"/>
  <polyline points="190.575,83.450 190.575,86.600"  style="fill:none;stroke:#FFF;stroke-width:0.1953;opacity:1" stroke-linecap="round"/>
  <polyline points="109.650,122.000 155.850,122.000"  style="fill:none;stroke:#FFF;stroke-width:0.1953;opacity:1" stroke-linecap="round"/>
  <polyline points="106.500,122.000 109.650,123.575 109.650,120.425 106.500,122.000"  style="fill:none;stroke:#FFF;stroke-width:0.1953;opacity:1" stroke-linecap="round"/>
  <polyline points="159.000,122.000 155.850,123.575 155.850,120.425 159.000,122.000"  style="fill:none;stroke:#FFF;stroke-width:0.1953;opacity:1" stroke-linecap="round"/>
  <polyline points="125.250,126.500 125.250,128.600"  style="fill:none;stroke:#FFF;stroke-width:0.1953;opacity:1" stroke-linecap="round"/>
  <polyline points="125.250,127.400 125.400,126.950 125.700,126.650 126.000,126.500 126.450,126.500"  style="fill:none;stroke:#FFF;stroke-width:0.1953;opacity:1" stroke-linecap="round"/>
  <polyline points="127.050,127.400 128.850,127.400 128.850,127.100 128.700,126.800 128.550,126.650 128.250,126.500 127.800,126.500 127.500,126.650 127.200,126.950 127.050,127.400 127.050,127.700 127.200,128.150 127.500,128.450 127.800,128.600 128.250,128.600 128.550,128.450 128.850,128.150"  style="fill:none;stroke:#FFF;stroke-width:0.1953;opacity:1" stroke-linecap="round"/>
  <polyline points="129.900,125.450 129.900,128.600"  style="fill:none;stroke:#FFF;stroke-width:0.1953;opacity:1" stroke-linecap="round"/>
  <polyline points="130.950,127.400 132.750,127.400 132.750,127.100 132.600,126.800 132.450,126.650 132.150,126.500 131.700,126.500 131.400,126.650 131.100,126.950 130.950,127.400 130.950,127.700 131.100,128.150 131.400,128.450 131.700,128.600 132.150,128.600 132.450,128.450 132.750,128.150"  style="fill:none;stroke:#FFF;stroke-width:0.1953;opacity:1" stroke-linecap="round"/>
  <polyline points="135.450,126.500 135.450,128.600"  style="fill:none;stroke:#FFF;stroke-width:0.1953;opacity:1" stroke-linecap="round"/>
  <polyline points="135.450,126.950 135.150,126.650 134.850,126.500 134.400,126.500 134.100,126.650 133.800,126.950 133.650,127.400 133.650,127.700 133.800,128.150 134.100,128.450 134.400,128.600 134.850,128.600 135.150,128.450 135.450,128.150"  style="fill:none;stroke:#FFF;stroke-width:0.1953;opacity:1" stroke-linecap="round"/>
  <polyline points="138.150,126.950 138.000,126.650 137.550,126.500 137.100,126.500 136.650,126.650 136.500,126.950 136.650,127.250 136.950,127.400 137.700,127.550 138.000,127.700 138.150,128.000 138.150,128.150 138.000,128.450 137.550,128.600 137.100,128.600 136.650,128.450 136.500,128.150"  style="fill:none;stroke:#FFF;stroke-width:0.1953;opacity:1" stroke-linecap="round"/>
  <polyline points="139.050,127.400 140.850,127.400 140.850,127.100 140.700,126.800 140.550,126.650 140.250,126.500 139.800,126.500 139.500,126.650 139.200,126.950 139.050,127.400 139.050,127.700 139.200,128.150 139.500,128.450 139.800,128.600 140.250,128.600 140.550,128.450 140.850,128.150"  style="fill:none;stroke:#FFF;stroke-width:0.1953;opacity:1" stroke-linecap="round"/>
  <polyline points="12.000,116.750 33.000,74.750 54.000,97.850 106.500,85.250 159.000,116.750"  style="fill:none;stroke:#FFF;stroke-width:0.1953;opacity:1" stroke-linecap="round"/>
</svg>
