<?xml version="1.0"?><svg  viewBox="0 0 200 200" width="180mm" height="180mm" xmlns="http://www.w3.org/2000/svg"  version="1.2" viewport-fill="#fff">
  <polyline points="8.250,8.250 50.109,8.250 50.109,12.531 8.250,12.531 8.250,8.250"  style="fill:none;stroke:#FFF;stroke-width:0.1953;opacity:1" stroke-linecap="round"/>
  <polyline points="8.250,14.031 15.422,14.031 15.422,24.094 8.250,24.094 8.250,14.031"  style="fill:none;stroke:#FFF;stroke-width:0.1953;opacity:1" stroke-linecap="round"/>
  <polyline points="16.922,14.031 18.313,14.031 18.313,53.000 16.922,53.000 16.922,14.031"  style="fill:none;stroke:#FFF;stroke-width:0.1953;opacity:1" stroke-linecap="round"/>
  <polyline points="11.141,25.594 15.422,25.594 15.422,29.875 11.141,29.875 11.141,25.594"  style="fill:none;stroke:#FFF;stroke-width:0.1953;opacity:1" stroke-linecap="round"/>
  <polyline points="19.813,19.813 29.875,19.813 29.875,35.656 19.813,35.656 19.813,19.813"  style="fill:none;stroke:#FFF;stroke-width:0.1953;opacity:1" stroke-linecap="round"/>
  <polyline points="11.141,37.156 15.422,37.156 15.422,41.438 11.141,41.438 11.141,37.156"  style="fill:none;stroke:#FFF;stroke-width:0.1953;opacity:1" stroke-linecap="round"/>
  <polyline points="11.141,31.375 15.422,31.375 15.422,35.656 11.141,35.656 11.141,31.375"  style="fill:none;stroke:#FFF;stroke-width:0.1953;opacity:1" stroke-linecap="round"/>
  <polyline points="14.031,42.938 15.422,42.938 15.422,53.000 14.031,53.000 14.031,42.938"  style="fill:none;stroke:#FFF;stroke-width:0.1953;opacity:1" stroke-linecap="round"/>
  <polyline points="19.813,42.938 47.219,42.938 47.219,47.219 19.813,47.219 19.813,42.938"  style="fill:none;stroke:#FFF;stroke-width:0.1953;opacity:1" stroke-linecap="round"/>
  <polyline points="19.813,48.719 35.656,48.719 35.656,53.000 19.813,53.000 19.813,48.719"  style="fill:none;stroke:#FFF;stroke-width:0.1953;opacity:1" stroke-linecap="round"/>
  <polyline points="31.375,19.813 55.891,19.813 55.891,24.094 31.375,24.094 31.375,19.813"  style="fill:none;stroke:#FFF;stroke-width:0.1953;opacity:1" stroke-linecap="round"/>
  <polyline points="19.813,14.031 50.109,14.031 50.109,18.313 19.813,18.313 19.813,14.031"  style="fill:none;stroke:#FFF;stroke-width:0.1953;opacity:1" stroke-linecap="round"/>
  <polyline points="51.609,8.250 55.891,8.250 55.891,18.313 51.609,18.313 51.609,8.250"  style="fill:none;stroke:#FFF;stroke-width:0.1953;opacity:1" stroke-linecap="round"/>
  <polyline points="31.375,31.375 41.438,31.375 41.438,35.656 31.375,35.656 31.375,31.375"  style="fill:none;stroke:#FFF;stroke-width:0.1953;opacity:1" stroke-linecap="round"/>
  <polyline points="19.813,37.156 41.438,37.156 41.438,41.438 19.813,41.438 19.813,37.156"  style="fill:none;stroke:#FFF;stroke-width:0.1953;opacity:1" stroke-linecap="round"/>
  <polyline points="42.938,31.375 47.219,31.375 47.219,41.438 42.938,41.438 42.938,31.375"  style="fill:none;stroke:#FFF;stroke-width:0.1953;opacity:1" stroke-linecap="round"/>
  <polyline points="48.719,42.938 53.000,42.938 53.000,53.000 48.719,53.000 48.719,42.938"  style="fill:none;stroke:#FFF;stroke-width:0.1953;opacity:1" stroke-linecap="round"/>
  <polyline points="8.250,25.594 9.641,25.594 9.641,70.344 8.250,70.344 8.250,25.594"  style="fill:none;stroke:#FFF;stroke-width:0.1953;opacity:1" stroke-linecap="round"/>
  <polyline points="11.141,42.938 12.531,42.938 12.531,70.344 11.141,70.344 11.141,42.938"  style="fill:none;stroke:#FFF;stroke-width:0.1953;opacity:1" stroke-linecap="round"/>
  <polyline points="8.250,71.844 15.422,71.844 15.422,81.906 8.250,81.906 8.250,71.844"  style="fill:none;stroke:#FFF;stroke-width:0.1953;opacity:1" stroke-linecap="round"/>
  <polyline points="14.031,54.500 35.656,54.500 35.656,58.781 14.031,58.781 14.031,54.500"  style="fill:none;stroke:#FFF;stroke-width:0.1953;opacity:1" stroke-linecap="round"/>
  <polyline points="14.031,60.281 38.547,60.281 38.547,70.344 14.031,70.344 14.031,60.281"  style="fill:none;stroke:#FFF;stroke-width:0.1953;opacity:1" stroke-linecap="round"/>
  <polyline points="11.141,83.406 15.422,83.406 15.422,87.688 11.141,87.688 11.141,83.406"  style="fill:none;stroke:#FFF;stroke-width:0.1953;opacity:1" stroke-linecap="round"/>
  <polyline points="16.922,71.844 18.313,71.844 18.313,116.594 16.922,116.594 16.922,71.844"  style="fill:none;stroke:#FFF;stroke-width:0.1953;opacity:1" stroke-linecap="round"/>
  <polyline points="11.141,89.188 15.422,89.188 15.422,105.031 11.141,105.031 11.141,89.188"  style="fill:none;stroke:#FFF;stroke-width:0.1953;opacity:1" stroke-linecap="round"/>
  <polyline points="25.594,89.188 32.766,89.188 32.766,99.250 25.594,99.250 25.594,89.188"  style="fill:none;stroke:#FFF;stroke-width:0.1953;opacity:1" stroke-linecap="round"/>
  <polyline points="37.156,48.719 47.219,48.719 47.219,58.781 37.156,58.781 37.156,48.719"  style="fill:none;stroke:#FFF;stroke-width:0.1953;opacity:1" stroke-linecap="round"/>
  <polyline points="40.047,60.281 41.438,60.281 41.438,87.688 40.047,87.688 40.047,60.281"  style="fill:none;stroke:#FFF;stroke-width:0.1953;opacity:1" stroke-linecap="round"/>
  <polyline points="25.594,71.844 38.547,71.844 38.547,81.906 25.594,81.906 25.594,71.844"  style="fill:none;stroke:#FFF;stroke-width:0.1953;opacity:1" stroke-linecap="round"/>
  <polyline points="25.594,83.406 35.656,83.406 35.656,87.688 25.594,87.688 25.594,83.406"  style="fill:none;stroke:#FFF;stroke-width:0.1953;opacity:1" stroke-linecap="round"/>
  <polyline points="37.156,83.406 38.547,83.406 38.547,87.688 37.156,87.688 37.156,83.406"  style="fill:none;stroke:#FFF;stroke-width:0.1953;opacity:1" stroke-linecap="round"/>
  <polyline points="37.156,89.188 50.109,89.188 50.109,93.469 37.156,93.469 37.156,89.188"  style="fill:none;stroke:#FFF;stroke-width:0.1953;opacity:1" stroke-linecap="round"/>
  <polyline points="48.719,54.500 50.109,54.500 50.109,58.781 48.719,58.781 48.719,54.500"  style="fill:none;stroke:#FFF;stroke-width:0.1953;opacity:1" stroke-linecap="round"/>
  <polyline points="42.938,60.281 50.109,60.281 50.109,70.344 42.938,70.344 42.938,60.281"  style="fill:none;stroke:#FFF;stroke-width:0.1953;opacity:1" stroke-linecap="round"/>
  <polyline points="42.938,71.844 50.109,71.844 50.109,87.688 42.938,87.688 42.938,71.844"  style="fill:none;stroke:#FFF;stroke-width:0.1953;opacity:1" stroke-linecap="round"/>
  <polyline points="51.609,54.500 53.000,54.500 53.000,122.375 51.609,122.375 51.609,54.500"  style="fill:none;stroke:#FFF;stroke-width:0.1953;opacity:1" stroke-linecap="round"/>
  <polyline points="40.047,94.969 50.109,94.969 50.109,99.250 40.047,99.250 40.047,94.969"  style="fill:none;stroke:#FFF;stroke-width:0.1953;opacity:1" stroke-linecap="round"/>
  <polyline points="8.250,83.406 9.641,83.406 9.641,105.031 8.250,105.031 8.250,83.406"  style="fill:none;stroke:#FFF;stroke-width:0.1953;opacity:1" stroke-linecap="round"/>
  <polyline points="8.250,106.531 15.422,106.531 15.422,110.813 8.250,110.813 8.250,106.531"  style="fill:none;stroke:#FFF;stroke-width:0.1953;opacity:1" stroke-linecap="round"/>
  <polyline points="11.141,112.313 12.531,112.313 12.531,128.156 11.141,128.156 11.141,112.313"  style="fill:none;stroke:#FFF;stroke-width:0.1953;opacity:1" stroke-linecap="round"/>
  <polyline points="8.250,112.313 9.641,112.313 9.641,133.938 8.250,133.938 8.250,112.313"  style="fill:none;stroke:#FFF;stroke-width:0.1953;opacity:1" stroke-linecap="round"/>
  <polyline points="14.031,112.313 15.422,112.313 15.422,116.594 14.031,116.594 14.031,112.313"  style="fill:none;stroke:#FFF;stroke-width:0.1953;opacity:1" stroke-linecap="round"/>
  <polyline points="19.813,71.844 24.094,71.844 24.094,116.594 19.813,116.594 19.813,71.844"  style="fill:none;stroke:#FFF;stroke-width:0.1953;opacity:1" stroke-linecap="round"/>
  <polyline points="14.031,118.094 24.094,118.094 24.094,122.375 14.031,122.375 14.031,118.094"  style="fill:none;stroke:#FFF;stroke-width:0.1953;opacity:1" stroke-linecap="round"/>
  <polyline points="25.594,100.750 32.766,100.750 32.766,122.375 25.594,122.375 25.594,100.750"  style="fill:none;stroke:#FFF;stroke-width:0.1953;opacity:1" stroke-linecap="round"/>
  <polyline points="11.141,129.656 32.766,129.656 32.766,133.938 11.141,133.938 11.141,129.656"  style="fill:none;stroke:#FFF;stroke-width:0.1953;opacity:1" stroke-linecap="round"/>
  <polyline points="8.250,135.438 12.531,135.438 12.531,145.500 8.250,145.500 8.250,135.438"  style="fill:none;stroke:#FFF;stroke-width:0.1953;opacity:1" stroke-linecap="round"/>
  <polyline points="14.031,135.438 26.984,135.438 26.984,145.500 14.031,145.500 14.031,135.438"  style="fill:none;stroke:#FFF;stroke-width:0.1953;opacity:1" stroke-linecap="round"/>
  <polyline points="14.031,123.875 32.766,123.875 32.766,128.156 14.031,128.156 14.031,123.875"  style="fill:none;stroke:#FFF;stroke-width:0.1953;opacity:1" stroke-linecap="round"/>
  <polyline points="37.156,94.969 38.547,94.969 38.547,133.938 37.156,133.938 37.156,94.969"  style="fill:none;stroke:#FFF;stroke-width:0.1953;opacity:1" stroke-linecap="round"/>
  <polyline points="40.047,106.531 41.438,106.531 41.438,133.938 40.047,133.938 40.047,106.531"  style="fill:none;stroke:#FFF;stroke-width:0.1953;opacity:1" stroke-linecap="round"/>
  <polyline points="40.047,100.750 47.219,100.750 47.219,105.031 40.047,105.031 40.047,100.750"  style="fill:none;stroke:#FFF;stroke-width:0.1953;opacity:1" stroke-linecap="round"/>
  <polyline points="42.938,106.531 47.219,106.531 47.219,110.813 42.938,110.813 42.938,106.531"  style="fill:none;stroke:#FFF;stroke-width:0.1953;opacity:1" stroke-linecap="round"/>
  <polyline points="48.719,100.750 50.109,100.750 50.109,110.813 48.719,110.813 48.719,100.750"  style="fill:none;stroke:#FFF;stroke-width:0.1953;opacity:1" stroke-linecap="round"/>
  <polyline points="42.938,112.313 50.109,112.313 50.109,116.594 42.938,116.594 42.938,112.313"  style="fill:none;stroke:#FFF;stroke-width:0.1953;opacity:1" stroke-linecap="round"/>
  <polyline points="48.719,118.094 50.109,118.094 50.109,122.375 48.719,122.375 48.719,118.094"  style="fill:none;stroke:#FFF;stroke-width:0.1953;opacity:1" stroke-linecap="round"/>
  <polyline points="34.266,89.188 35.656,89.188 35.656,133.938 34.266,133.938 34.266,89.188"  style="fill:none;stroke:#FFF;stroke-width:0.1953;opacity:1" stroke-linecap="round"/>
  <polyline points="42.938,118.094 44.328,118.094 44.328,191.750 42.938,191.750 42.938,118.094"  style="fill:none;stroke:#FFF;stroke-width:0.1953;opacity:1" stroke-linecap="round"/>
  <polyline points="48.719,129.656 53.000,129.656 53.000,162.844 48.719,162.844 48.719,129.656"  style="fill:none;stroke:#FFF;stroke-width:0.1953;opacity:1" stroke-linecap="round"/>
  <polyline points="45.828,118.094 47.219,118.094 47.219,151.281 45.828,151.281 45.828,118.094"  style="fill:none;stroke:#FFF;stroke-width:0.1953;opacity:1" stroke-linecap="round"/>
  <polyline points="8.250,152.781 12.531,152.781 12.531,162.844 8.250,162.844 8.250,152.781"  style="fill:none;stroke:#FFF;stroke-width:0.1953;opacity:1" stroke-linecap="round"/>
  <polyline points="8.250,147.000 18.313,147.000 18.313,151.281 8.250,151.281 8.250,147.000"  style="fill:none;stroke:#FFF;stroke-width:0.1953;opacity:1" stroke-linecap="round"/>
  <polyline points="14.031,152.781 18.313,152.781 18.313,157.063 14.031,157.063 14.031,152.781"  style="fill:none;stroke:#FFF;stroke-width:0.1953;opacity:1" stroke-linecap="round"/>
  <polyline points="8.250,164.344 21.203,164.344 21.203,168.625 8.250,168.625 8.250,164.344"  style="fill:none;stroke:#FFF;stroke-width:0.1953;opacity:1" stroke-linecap="round"/>
  <polyline points="8.250,170.125 21.203,170.125 21.203,180.188 8.250,180.188 8.250,170.125"  style="fill:none;stroke:#FFF;stroke-width:0.1953;opacity:1" stroke-linecap="round"/>
  <polyline points="8.250,181.688 21.203,181.688 21.203,191.750 8.250,191.750 8.250,181.688"  style="fill:none;stroke:#FFF;stroke-width:0.1953;opacity:1" stroke-linecap="round"/>
  <polyline points="14.031,158.563 24.094,158.563 24.094,162.844 14.031,162.844 14.031,158.563"  style="fill:none;stroke:#FFF;stroke-width:0.1953;opacity:1" stroke-linecap="round"/>
  <polyline points="22.703,164.344 24.094,164.344 24.094,191.750 22.703,191.750 22.703,164.344"  style="fill:none;stroke:#FFF;stroke-width:0.1953;opacity:1" stroke-linecap="round"/>
  <polyline points="28.484,135.438 29.875,135.438 29.875,157.063 28.484,157.063 28.484,135.438"  style="fill:none;stroke:#FFF;stroke-width:0.1953;opacity:1" stroke-linecap="round"/>
  <polyline points="19.813,147.000 26.984,147.000 26.984,157.063 19.813,157.063 19.813,147.000"  style="fill:none;stroke:#FFF;stroke-width:0.1953;opacity:1" stroke-linecap="round"/>
  <polyline points="25.594,158.563 29.875,158.563 29.875,168.625 25.594,168.625 25.594,158.563"  style="fill:none;stroke:#FFF;stroke-width:0.1953;opacity:1" stroke-linecap="round"/>
  <polyline points="28.484,170.125 41.438,170.125 41.438,174.406 28.484,174.406 28.484,170.125"  style="fill:none;stroke:#FFF;stroke-width:0.1953;opacity:1" stroke-linecap="round"/>
  <polyline points="28.484,175.906 29.875,175.906 29.875,191.750 28.484,191.750 28.484,175.906"  style="fill:none;stroke:#FFF;stroke-width:0.1953;opacity:1" stroke-linecap="round"/>
  <polyline points="25.594,170.125 26.984,170.125 26.984,191.750 25.594,191.750 25.594,170.125"  style="fill:none;stroke:#FFF;stroke-width:0.1953;opacity:1" stroke-linecap="round"/>
  <polyline points="31.375,135.438 41.438,135.438 41.438,168.625 31.375,168.625 31.375,135.438"  style="fill:none;stroke:#FFF;stroke-width:0.1953;opacity:1" stroke-linecap="round"/>
  <polyline points="45.828,152.781 47.219,152.781 47.219,191.750 45.828,191.750 45.828,152.781"  style="fill:none;stroke:#FFF;stroke-width:0.1953;opacity:1" stroke-linecap="round"/>
  <polyline points="31.375,175.906 41.438,175.906 41.438,191.750 31.375,191.750 31.375,175.906"  style="fill:none;stroke:#FFF;stroke-width:0.1953;opacity:1" stroke-linecap="round"/>
  <polyline points="48.719,181.688 53.000,181.688 53.000,191.750 48.719,191.750 48.719,181.688"  style="fill:none;stroke:#FFF;stroke-width:0.1953;opacity:1" stroke-linecap="round"/>
  <polyline points="57.391,8.250 58.781,8.250 58.781,24.094 57.391,24.094 57.391,8.250"  style="fill:none;stroke:#FFF;stroke-width:0.1953;opacity:1" stroke-linecap="round"/>
  <polyline points="31.375,25.594 64.563,25.594 64.563,29.875 31.375,29.875 31.375,25.594"  style="fill:none;stroke:#FFF;stroke-width:0.1953;opacity:1" stroke-linecap="round"/>
  <polyline points="48.719,31.375 64.563,31.375 64.563,41.438 48.719,41.438 48.719,31.375"  style="fill:none;stroke:#FFF;stroke-width:0.1953;opacity:1" stroke-linecap="round"/>
  <polyline points="54.500,42.938 55.891,42.938 55.891,87.688 54.500,87.688 54.500,42.938"  style="fill:none;stroke:#FFF;stroke-width:0.1953;opacity:1" stroke-linecap="round"/>
  <polyline points="57.391,42.938 67.453,42.938 67.453,53.000 57.391,53.000 57.391,42.938"  style="fill:none;stroke:#FFF;stroke-width:0.1953;opacity:1" stroke-linecap="round"/>
  <polyline points="60.281,8.250 76.125,8.250 76.125,18.313 60.281,18.313 60.281,8.250"  style="fill:none;stroke:#FFF;stroke-width:0.1953;opacity:1" stroke-linecap="round"/>
  <polyline points="60.281,19.813 76.125,19.813 76.125,24.094 60.281,24.094 60.281,19.813"  style="fill:none;stroke:#FFF;stroke-width:0.1953;opacity:1" stroke-linecap="round"/>
  <polyline points="68.953,25.594 73.234,25.594 73.234,29.875 68.953,29.875 68.953,25.594"  style="fill:none;stroke:#FFF;stroke-width:0.1953;opacity:1" stroke-linecap="round"/>
  <polyline points="66.063,25.594 67.453,25.594 67.453,41.438 66.063,41.438 66.063,25.594"  style="fill:none;stroke:#FFF;stroke-width:0.1953;opacity:1" stroke-linecap="round"/>
  <polyline points="68.953,31.375 70.344,31.375 70.344,47.219 68.953,47.219 68.953,31.375"  style="fill:none;stroke:#FFF;stroke-width:0.1953;opacity:1" stroke-linecap="round"/>
  <polyline points="71.844,31.375 73.234,31.375 73.234,41.438 71.844,41.438 71.844,31.375"  style="fill:none;stroke:#FFF;stroke-width:0.1953;opacity:1" stroke-linecap="round"/>
  <polyline points="74.734,25.594 76.125,25.594 76.125,41.438 74.734,41.438 74.734,25.594"  style="fill:none;stroke:#FFF;stroke-width:0.1953;opacity:1" stroke-linecap="round"/>
  <polyline points="71.844,42.938 76.125,42.938 76.125,47.219 71.844,47.219 71.844,42.938"  style="fill:none;stroke:#FFF;stroke-width:0.1953;opacity:1" stroke-linecap="round"/>
  <polyline points="68.953,48.719 76.125,48.719 76.125,53.000 68.953,53.000 68.953,48.719"  style="fill:none;stroke:#FFF;stroke-width:0.1953;opacity:1" stroke-linecap="round"/>
  <polyline points="60.281,60.281 73.234,60.281 73.234,70.344 60.281,70.344 60.281,60.281"  style="fill:none;stroke:#FFF;stroke-width:0.1953;opacity:1" stroke-linecap="round"/>
  <polyline points="60.281,71.844 73.234,71.844 73.234,76.125 60.281,76.125 60.281,71.844"  style="fill:none;stroke:#FFF;stroke-width:0.1953;opacity:1" stroke-linecap="round"/>
  <polyline points="57.391,54.500 79.016,54.500 79.016,58.781 57.391,58.781 57.391,54.500"  style="fill:none;stroke:#FFF;stroke-width:0.1953;opacity:1" stroke-linecap="round"/>
  <polyline points="57.391,60.281 58.781,60.281 58.781,87.688 57.391,87.688 57.391,60.281"  style="fill:none;stroke:#FFF;stroke-width:0.1953;opacity:1" stroke-linecap="round"/>
  <polyline points="60.281,77.625 64.563,77.625 64.563,87.688 60.281,87.688 60.281,77.625"  style="fill:none;stroke:#FFF;stroke-width:0.1953;opacity:1" stroke-linecap="round"/>
  <polyline points="54.500,89.188 67.453,89.188 67.453,93.469 54.500,93.469 54.500,89.188"  style="fill:none;stroke:#FFF;stroke-width:0.1953;opacity:1" stroke-linecap="round"/>
  <polyline points="66.063,77.625 73.234,77.625 73.234,81.906 66.063,81.906 66.063,77.625"  style="fill:none;stroke:#FFF;stroke-width:0.1953;opacity:1" stroke-linecap="round"/>
  <polyline points="74.734,60.281 76.125,60.281 76.125,81.906 74.734,81.906 74.734,60.281"  style="fill:none;stroke:#FFF;stroke-width:0.1953;opacity:1" stroke-linecap="round"/>
  <polyline points="66.063,83.406 76.125,83.406 76.125,87.688 66.063,87.688 66.063,83.406"  style="fill:none;stroke:#FFF;stroke-width:0.1953;opacity:1" stroke-linecap="round"/>
  <polyline points="68.953,89.188 70.344,89.188 70.344,105.031 68.953,105.031 68.953,89.188"  style="fill:none;stroke:#FFF;stroke-width:0.1953;opacity:1" stroke-linecap="round"/>
  <polyline points="71.844,89.188 76.125,89.188 76.125,93.469 71.844,93.469 71.844,89.188"  style="fill:none;stroke:#FFF;stroke-width:0.1953;opacity:1" stroke-linecap="round"/>
  <polyline points="71.844,94.969 76.125,94.969 76.125,105.031 71.844,105.031 71.844,94.969"  style="fill:none;stroke:#FFF;stroke-width:0.1953;opacity:1" stroke-linecap="round"/>
  <polyline points="77.625,14.031 102.141,14.031 102.141,18.313 77.625,18.313 77.625,14.031"  style="fill:none;stroke:#FFF;stroke-width:0.1953;opacity:1" stroke-linecap="round"/>
  <polyline points="77.625,19.813 79.016,19.813 79.016,53.000 77.625,53.000 77.625,19.813"  style="fill:none;stroke:#FFF;stroke-width:0.1953;opacity:1" stroke-linecap="round"/>
  <polyline points="83.406,19.813 87.688,19.813 87.688,29.875 83.406,29.875 83.406,19.813"  style="fill:none;stroke:#FFF;stroke-width:0.1953;opacity:1" stroke-linecap="round"/>
  <polyline points="83.406,31.375 110.813,31.375 110.813,35.656 83.406,35.656 83.406,31.375"  style="fill:none;stroke:#FFF;stroke-width:0.1953;opacity:1" stroke-linecap="round"/>
  <polyline points="83.406,37.156 96.359,37.156 96.359,47.219 83.406,47.219 83.406,37.156"  style="fill:none;stroke:#FFF;stroke-width:0.1953;opacity:1" stroke-linecap="round"/>
  <polyline points="80.516,19.813 81.906,19.813 81.906,58.781 80.516,58.781 80.516,19.813"  style="fill:none;stroke:#FFF;stroke-width:0.1953;opacity:1" stroke-linecap="round"/>
  <polyline points="83.406,48.719 84.797,48.719 84.797,58.781 83.406,58.781 83.406,48.719"  style="fill:none;stroke:#FFF;stroke-width:0.1953;opacity:1" stroke-linecap="round"/>
  <polyline points="77.625,60.281 93.469,60.281 93.469,76.125 77.625,76.125 77.625,60.281"  style="fill:none;stroke:#FFF;stroke-width:0.1953;opacity:1" stroke-linecap="round"/>
  <polyline points="77.625,89.188 90.578,89.188 90.578,99.250 77.625,99.250 77.625,89.188"  style="fill:none;stroke:#FFF;stroke-width:0.1953;opacity:1" stroke-linecap="round"/>
  <polyline points="89.188,19.813 102.141,19.813 102.141,24.094 89.188,24.094 89.188,19.813"  style="fill:none;stroke:#FFF;stroke-width:0.1953;opacity:1" stroke-linecap="round"/>
  <polyline points="86.297,48.719 96.359,48.719 96.359,58.781 86.297,58.781 86.297,48.719"  style="fill:none;stroke:#FFF;stroke-width:0.1953;opacity:1" stroke-linecap="round"/>
  <polyline points="77.625,77.625 93.469,77.625 93.469,81.906 77.625,81.906 77.625,77.625"  style="fill:none;stroke:#FFF;stroke-width:0.1953;opacity:1" stroke-linecap="round"/>
  <polyline points="77.625,83.406 96.359,83.406 96.359,87.688 77.625,87.688 77.625,83.406"  style="fill:none;stroke:#FFF;stroke-width:0.1953;opacity:1" stroke-linecap="round"/>
  <polyline points="94.969,60.281 96.359,60.281 96.359,81.906 94.969,81.906 94.969,60.281"  style="fill:none;stroke:#FFF;stroke-width:0.1953;opacity:1" stroke-linecap="round"/>
  <polyline points="97.859,37.156 99.250,37.156 99.250,93.469 97.859,93.469 97.859,37.156"  style="fill:none;stroke:#FFF;stroke-width:0.1953;opacity:1" stroke-linecap="round"/>
  <polyline points="94.969,89.188 96.359,89.188 96.359,93.469 94.969,93.469 94.969,89.188"  style="fill:none;stroke:#FFF;stroke-width:0.1953;opacity:1" stroke-linecap="round"/>
  <polyline points="94.969,94.969 99.250,94.969 99.250,99.250 94.969,99.250 94.969,94.969"  style="fill:none;stroke:#FFF;stroke-width:0.1953;opacity:1" stroke-linecap="round"/>
  <polyline points="54.500,94.969 67.453,94.969 67.453,105.031 54.500,105.031 54.500,94.969"  style="fill:none;stroke:#FFF;stroke-width:0.1953;opacity:1" stroke-linecap="round"/>
  <polyline points="54.500,106.531 76.125,106.531 76.125,110.813 54.500,110.813 54.500,106.531"  style="fill:none;stroke:#FFF;stroke-width:0.1953;opacity:1" stroke-linecap="round"/>
  <polyline points="54.500,112.313 64.563,112.313 64.563,122.375 54.500,122.375 54.500,112.313"  style="fill:none;stroke:#FFF;stroke-width:0.1953;opacity:1" stroke-linecap="round"/>
  <polyline points="71.844,112.313 79.016,112.313 79.016,116.594 71.844,116.594 71.844,112.313"  style="fill:none;stroke:#FFF;stroke-width:0.1953;opacity:1" stroke-linecap="round"/>
  <polyline points="54.500,129.656 64.563,129.656 64.563,133.938 54.500,133.938 54.500,129.656"  style="fill:none;stroke:#FFF;stroke-width:0.1953;opacity:1" stroke-linecap="round"/>
  <polyline points="48.719,123.875 64.563,123.875 64.563,128.156 48.719,128.156 48.719,123.875"  style="fill:none;stroke:#FFF;stroke-width:0.1953;opacity:1" stroke-linecap="round"/>
  <polyline points="60.281,135.438 64.563,135.438 64.563,139.719 60.281,139.719 60.281,135.438"  style="fill:none;stroke:#FFF;stroke-width:0.1953;opacity:1" stroke-linecap="round"/>
  <polyline points="66.063,112.313 70.344,112.313 70.344,139.719 66.063,139.719 66.063,112.313"  style="fill:none;stroke:#FFF;stroke-width:0.1953;opacity:1" stroke-linecap="round"/>
  <polyline points="60.281,141.219 90.578,141.219 90.578,145.500 60.281,145.500 60.281,141.219"  style="fill:none;stroke:#FFF;stroke-width:0.1953;opacity:1" stroke-linecap="round"/>
  <polyline points="54.500,135.438 58.781,135.438 58.781,157.063 54.500,157.063 54.500,135.438"  style="fill:none;stroke:#FFF;stroke-width:0.1953;opacity:1" stroke-linecap="round"/>
  <polyline points="60.281,147.000 70.344,147.000 70.344,157.063 60.281,157.063 60.281,147.000"  style="fill:none;stroke:#FFF;stroke-width:0.1953;opacity:1" stroke-linecap="round"/>
  <polyline points="48.719,164.344 61.672,164.344 61.672,168.625 48.719,168.625 48.719,164.344"  style="fill:none;stroke:#FFF;stroke-width:0.1953;opacity:1" stroke-linecap="round"/>
  <polyline points="68.953,164.344 79.016,164.344 79.016,168.625 68.953,168.625 68.953,164.344"  style="fill:none;stroke:#FFF;stroke-width:0.1953;opacity:1" stroke-linecap="round"/>
  <polyline points="54.500,158.563 79.016,158.563 79.016,162.844 54.500,162.844 54.500,158.563"  style="fill:none;stroke:#FFF;stroke-width:0.1953;opacity:1" stroke-linecap="round"/>
  <polyline points="48.719,170.125 55.891,170.125 55.891,180.188 48.719,180.188 48.719,170.125"  style="fill:none;stroke:#FFF;stroke-width:0.1953;opacity:1" stroke-linecap="round"/>
  <polyline points="60.281,170.125 61.672,170.125 61.672,191.750 60.281,191.750 60.281,170.125"  style="fill:none;stroke:#FFF;stroke-width:0.1953;opacity:1" stroke-linecap="round"/>
  <polyline points="54.500,181.688 55.891,181.688 55.891,185.969 54.500,185.969 54.500,181.688"  style="fill:none;stroke:#FFF;stroke-width:0.1953;opacity:1" stroke-linecap="round"/>
  <polyline points="57.391,170.125 58.781,170.125 58.781,185.969 57.391,185.969 57.391,170.125"  style="fill:none;stroke:#FFF;stroke-width:0.1953;opacity:1" stroke-linecap="round"/>
  <polyline points="54.500,187.469 58.781,187.469 58.781,191.750 54.500,191.750 54.500,187.469"  style="fill:none;stroke:#FFF;stroke-width:0.1953;opacity:1" stroke-linecap="round"/>
  <polyline points="68.953,170.125 79.016,170.125 79.016,180.188 68.953,180.188 68.953,170.125"  style="fill:none;stroke:#FFF;stroke-width:0.1953;opacity:1" stroke-linecap="round"/>
  <polyline points="63.172,164.344 67.453,164.344 67.453,191.750 63.172,191.750 63.172,164.344"  style="fill:none;stroke:#FFF;stroke-width:0.1953;opacity:1" stroke-linecap="round"/>
  <polyline points="68.953,187.469 93.469,187.469 93.469,191.750 68.953,191.750 68.953,187.469"  style="fill:none;stroke:#FFF;stroke-width:0.1953;opacity:1" stroke-linecap="round"/>
  <polyline points="77.625,100.750 79.016,100.750 79.016,110.813 77.625,110.813 77.625,100.750"  style="fill:none;stroke:#FFF;stroke-width:0.1953;opacity:1" stroke-linecap="round"/>
  <polyline points="80.516,100.750 81.906,100.750 81.906,116.594 80.516,116.594 80.516,100.750"  style="fill:none;stroke:#FFF;stroke-width:0.1953;opacity:1" stroke-linecap="round"/>
  <polyline points="71.844,118.094 81.906,118.094 81.906,133.938 71.844,133.938 71.844,118.094"  style="fill:none;stroke:#FFF;stroke-width:0.1953;opacity:1" stroke-linecap="round"/>
  <polyline points="83.406,100.750 90.578,100.750 90.578,133.938 83.406,133.938 83.406,100.750"  style="fill:none;stroke:#FFF;stroke-width:0.1953;opacity:1" stroke-linecap="round"/>
  <polyline points="94.969,106.531 131.047,106.531 131.047,110.813 94.969,110.813 94.969,106.531"  style="fill:none;stroke:#FFF;stroke-width:0.1953;opacity:1" stroke-linecap="round"/>
  <polyline points="94.969,118.094 102.141,118.094 102.141,122.375 94.969,122.375 94.969,118.094"  style="fill:none;stroke:#FFF;stroke-width:0.1953;opacity:1" stroke-linecap="round"/>
  <polyline points="71.844,135.438 90.578,135.438 90.578,139.719 71.844,139.719 71.844,135.438"  style="fill:none;stroke:#FFF;stroke-width:0.1953;opacity:1" stroke-linecap="round"/>
  <polyline points="92.078,89.188 93.469,89.188 93.469,185.969 92.078,185.969 92.078,89.188"  style="fill:none;stroke:#FFF;stroke-width:0.1953;opacity:1" stroke-linecap="round"/>
  <polyline points="94.969,123.875 102.141,123.875 102.141,145.500 94.969,145.500 94.969,123.875"  style="fill:none;stroke:#FFF;stroke-width:0.1953;opacity:1" stroke-linecap="round"/>
  <polyline points="71.844,147.000 81.906,147.000 81.906,157.063 71.844,157.063 71.844,147.000"  style="fill:none;stroke:#FFF;stroke-width:0.1953;opacity:1" stroke-linecap="round"/>
  <polyline points="80.516,158.563 81.906,158.563 81.906,180.188 80.516,180.188 80.516,158.563"  style="fill:none;stroke:#FFF;stroke-width:0.1953;opacity:1" stroke-linecap="round"/>
  <polyline points="94.969,147.000 102.141,147.000 102.141,151.281 94.969,151.281 94.969,147.000"  style="fill:none;stroke:#FFF;stroke-width:0.1953;opacity:1" stroke-linecap="round"/>
  <polyline points="83.406,147.000 90.578,147.000 90.578,180.188 83.406,180.188 83.406,147.000"  style="fill:none;stroke:#FFF;stroke-width:0.1953;opacity:1" stroke-linecap="round"/>
  <polyline points="94.969,164.344 96.359,164.344 96.359,191.750 94.969,191.750 94.969,164.344"  style="fill:none;stroke:#FFF;stroke-width:0.1953;opacity:1" stroke-linecap="round"/>
  <polyline points="68.953,181.688 90.578,181.688 90.578,185.969 68.953,185.969 68.953,181.688"  style="fill:none;stroke:#FFF;stroke-width:0.1953;opacity:1" stroke-linecap="round"/>
  <polyline points="97.859,164.344 105.031,164.344 105.031,180.188 97.859,180.188 97.859,164.344"  style="fill:none;stroke:#FFF;stroke-width:0.1953;opacity:1" stroke-linecap="round"/>
  <polyline points="97.859,181.688 105.031,181.688 105.031,191.750 97.859,191.750 97.859,181.688"  style="fill:none;stroke:#FFF;stroke-width:0.1953;opacity:1" stroke-linecap="round"/>
  <polyline points="103.641,14.031 105.031,14.031 105.031,24.094 103.641,24.094 103.641,14.031"  style="fill:none;stroke:#FFF;stroke-width:0.1953;opacity:1" stroke-linecap="round"/>
  <polyline points="77.625,8.250 122.375,8.250 122.375,12.531 77.625,12.531 77.625,8.250"  style="fill:none;stroke:#FFF;stroke-width:0.1953;opacity:1" stroke-linecap="round"/>
  <polyline points="89.188,25.594 122.375,25.594 122.375,29.875 89.188,29.875 89.188,25.594"  style="fill:none;stroke:#FFF;stroke-width:0.1953;opacity:1" stroke-linecap="round"/>
  <polyline points="106.531,19.813 122.375,19.813 122.375,24.094 106.531,24.094 106.531,19.813"  style="fill:none;stroke:#FFF;stroke-width:0.1953;opacity:1" stroke-linecap="round"/>
  <polyline points="106.531,14.031 122.375,14.031 122.375,18.313 106.531,18.313 106.531,14.031"  style="fill:none;stroke:#FFF;stroke-width:0.1953;opacity:1" stroke-linecap="round"/>
  <polyline points="100.750,37.156 110.813,37.156 110.813,41.438 100.750,41.438 100.750,37.156"  style="fill:none;stroke:#FFF;stroke-width:0.1953;opacity:1" stroke-linecap="round"/>
  <polyline points="106.531,42.938 125.266,42.938 125.266,53.000 106.531,53.000 106.531,42.938"  style="fill:none;stroke:#FFF;stroke-width:0.1953;opacity:1" stroke-linecap="round"/>
  <polyline points="112.313,31.375 116.594,31.375 116.594,41.438 112.313,41.438 112.313,31.375"  style="fill:none;stroke:#FFF;stroke-width:0.1953;opacity:1" stroke-linecap="round"/>
  <polyline points="118.094,31.375 122.375,31.375 122.375,35.656 118.094,35.656 118.094,31.375"  style="fill:none;stroke:#FFF;stroke-width:0.1953;opacity:1" stroke-linecap="round"/>
  <polyline points="118.094,37.156 125.266,37.156 125.266,41.438 118.094,41.438 118.094,37.156"  style="fill:none;stroke:#FFF;stroke-width:0.1953;opacity:1" stroke-linecap="round"/>
  <polyline points="123.875,8.250 133.938,8.250 133.938,35.656 123.875,35.656 123.875,8.250"  style="fill:none;stroke:#FFF;stroke-width:0.1953;opacity:1" stroke-linecap="round"/>
  <polyline points="135.438,8.250 136.828,8.250 136.828,41.438 135.438,41.438 135.438,8.250"  style="fill:none;stroke:#FFF;stroke-width:0.1953;opacity:1" stroke-linecap="round"/>
  <polyline points="138.328,8.250 139.719,8.250 139.719,41.438 138.328,41.438 138.328,8.250"  style="fill:none;stroke:#FFF;stroke-width:0.1953;opacity:1" stroke-linecap="round"/>
  <polyline points="141.219,19.813 142.609,19.813 142.609,81.906 141.219,81.906 141.219,19.813"  style="fill:none;stroke:#FFF;stroke-width:0.1953;opacity:1" stroke-linecap="round"/>
  <polyline points="126.766,37.156 128.156,37.156 128.156,76.125 126.766,76.125 126.766,37.156"  style="fill:none;stroke:#FFF;stroke-width:0.1953;opacity:1" stroke-linecap="round"/>
  <polyline points="129.656,37.156 133.938,37.156 133.938,76.125 129.656,76.125 129.656,37.156"  style="fill:none;stroke:#FFF;stroke-width:0.1953;opacity:1" stroke-linecap="round"/>
  <polyline points="135.438,42.938 139.719,42.938 139.719,47.219 135.438,47.219 135.438,42.938"  style="fill:none;stroke:#FFF;stroke-width:0.1953;opacity:1" stroke-linecap="round"/>
  <polyline points="135.438,48.719 139.719,48.719 139.719,76.125 135.438,76.125 135.438,48.719"  style="fill:none;stroke:#FFF;stroke-width:0.1953;opacity:1" stroke-linecap="round"/>
  <polyline points="100.750,42.938 105.031,42.938 105.031,99.250 100.750,99.250 100.750,42.938"  style="fill:none;stroke:#FFF;stroke-width:0.1953;opacity:1" stroke-linecap="round"/>
  <polyline points="106.531,54.500 110.813,54.500 110.813,70.344 106.531,70.344 106.531,54.500"  style="fill:none;stroke:#FFF;stroke-width:0.1953;opacity:1" stroke-linecap="round"/>
  <polyline points="112.313,54.500 116.594,54.500 116.594,64.563 112.313,64.563 112.313,54.500"  style="fill:none;stroke:#FFF;stroke-width:0.1953;opacity:1" stroke-linecap="round"/>
  <polyline points="118.094,54.500 125.266,54.500 125.266,64.563 118.094,64.563 118.094,54.500"  style="fill:none;stroke:#FFF;stroke-width:0.1953;opacity:1" stroke-linecap="round"/>
  <polyline points="112.313,66.063 119.484,66.063 119.484,70.344 112.313,70.344 112.313,66.063"  style="fill:none;stroke:#FFF;stroke-width:0.1953;opacity:1" stroke-linecap="round"/>
  <polyline points="106.531,71.844 119.484,71.844 119.484,76.125 106.531,76.125 106.531,71.844"  style="fill:none;stroke:#FFF;stroke-width:0.1953;opacity:1" stroke-linecap="round"/>
  <polyline points="120.984,66.063 122.375,66.063 122.375,99.250 120.984,99.250 120.984,66.063"  style="fill:none;stroke:#FFF;stroke-width:0.1953;opacity:1" stroke-linecap="round"/>
  <polyline points="106.531,77.625 119.484,77.625 119.484,87.688 106.531,87.688 106.531,77.625"  style="fill:none;stroke:#FFF;stroke-width:0.1953;opacity:1" stroke-linecap="round"/>
  <polyline points="106.531,89.188 119.484,89.188 119.484,99.250 106.531,99.250 106.531,89.188"  style="fill:none;stroke:#FFF;stroke-width:0.1953;opacity:1" stroke-linecap="round"/>
  <polyline points="123.875,66.063 125.266,66.063 125.266,76.125 123.875,76.125 123.875,66.063"  style="fill:none;stroke:#FFF;stroke-width:0.1953;opacity:1" stroke-linecap="round"/>
  <polyline points="144.109,31.375 145.500,31.375 145.500,81.906 144.109,81.906 144.109,31.375"  style="fill:none;stroke:#FFF;stroke-width:0.1953;opacity:1" stroke-linecap="round"/>
  <polyline points="123.875,83.406 133.938,83.406 133.938,93.469 123.875,93.469 123.875,83.406"  style="fill:none;stroke:#FFF;stroke-width:0.1953;opacity:1" stroke-linecap="round"/>
  <polyline points="132.547,94.969 133.938,94.969 133.938,145.500 132.547,145.500 132.547,94.969"  style="fill:none;stroke:#FFF;stroke-width:0.1953;opacity:1" stroke-linecap="round"/>
  <polyline points="123.875,77.625 139.719,77.625 139.719,81.906 123.875,81.906 123.875,77.625"  style="fill:none;stroke:#FFF;stroke-width:0.1953;opacity:1" stroke-linecap="round"/>
  <polyline points="135.438,83.406 145.500,83.406 145.500,87.688 135.438,87.688 135.438,83.406"  style="fill:none;stroke:#FFF;stroke-width:0.1953;opacity:1" stroke-linecap="round"/>
  <polyline points="135.438,89.188 139.719,89.188 139.719,116.594 135.438,116.594 135.438,89.188"  style="fill:none;stroke:#FFF;stroke-width:0.1953;opacity:1" stroke-linecap="round"/>
  <polyline points="141.219,14.031 154.172,14.031 154.172,18.313 141.219,18.313 141.219,14.031"  style="fill:none;stroke:#FFF;stroke-width:0.1953;opacity:1" stroke-linecap="round"/>
  <polyline points="155.672,14.031 159.953,14.031 159.953,41.438 155.672,41.438 155.672,14.031"  style="fill:none;stroke:#FFF;stroke-width:0.1953;opacity:1" stroke-linecap="round"/>
  <polyline points="144.109,19.813 154.172,19.813 154.172,29.875 144.109,29.875 144.109,19.813"  style="fill:none;stroke:#FFF;stroke-width:0.1953;opacity:1" stroke-linecap="round"/>
  <polyline points="161.453,14.031 162.844,14.031 162.844,41.438 161.453,41.438 161.453,14.031"  style="fill:none;stroke:#FFF;stroke-width:0.1953;opacity:1" stroke-linecap="round"/>
  <polyline points="141.219,8.250 180.188,8.250 180.188,12.531 141.219,12.531 141.219,8.250"  style="fill:none;stroke:#FFF;stroke-width:0.1953;opacity:1" stroke-linecap="round"/>
  <polyline points="164.344,14.031 180.188,14.031 180.188,24.094 164.344,24.094 164.344,14.031"  style="fill:none;stroke:#FFF;stroke-width:0.1953;opacity:1" stroke-linecap="round"/>
  <polyline points="167.234,25.594 168.625,25.594 168.625,35.656 167.234,35.656 167.234,25.594"  style="fill:none;stroke:#FFF;stroke-width:0.1953;opacity:1" stroke-linecap="round"/>
  <polyline points="147.000,31.375 154.172,31.375 154.172,41.438 147.000,41.438 147.000,31.375"  style="fill:none;stroke:#FFF;stroke-width:0.1953;opacity:1" stroke-linecap="round"/>
  <polyline points="147.000,42.938 157.063,42.938 157.063,70.344 147.000,70.344 147.000,42.938"  style="fill:none;stroke:#FFF;stroke-width:0.1953;opacity:1" stroke-linecap="round"/>
  <polyline points="158.563,42.938 162.844,42.938 162.844,58.781 158.563,58.781 158.563,42.938"  style="fill:none;stroke:#FFF;stroke-width:0.1953;opacity:1" stroke-linecap="round"/>
  <polyline points="164.344,25.594 165.734,25.594 165.734,105.031 164.344,105.031 164.344,25.594"  style="fill:none;stroke:#FFF;stroke-width:0.1953;opacity:1" stroke-linecap="round"/>
  <polyline points="167.234,37.156 168.625,37.156 168.625,58.781 167.234,58.781 167.234,37.156"  style="fill:none;stroke:#FFF;stroke-width:0.1953;opacity:1" stroke-linecap="round"/>
  <polyline points="170.125,25.594 185.969,25.594 185.969,29.875 170.125,29.875 170.125,25.594"  style="fill:none;stroke:#FFF;stroke-width:0.1953;opacity:1" stroke-linecap="round"/>
  <polyline points="181.688,8.250 185.969,8.250 185.969,24.094 181.688,24.094 181.688,8.250"  style="fill:none;stroke:#FFF;stroke-width:0.1953;opacity:1" stroke-linecap="round"/>
  <polyline points="187.469,8.250 191.750,8.250 191.750,29.875 187.469,29.875 187.469,8.250"  style="fill:none;stroke:#FFF;stroke-width:0.1953;opacity:1" stroke-linecap="round"/>
  <polyline points="175.906,37.156 180.188,37.156 180.188,58.781 175.906,58.781 175.906,37.156"  style="fill:none;stroke:#FFF;stroke-width:0.1953;opacity:1" stroke-linecap="round"/>
  <polyline points="181.688,37.156 191.750,37.156 191.750,47.219 181.688,47.219 181.688,37.156"  style="fill:none;stroke:#FFF;stroke-width:0.1953;opacity:1" stroke-linecap="round"/>
  <polyline points="175.906,31.375 191.750,31.375 191.750,35.656 175.906,35.656 175.906,31.375"  style="fill:none;stroke:#FFF;stroke-width:0.1953;opacity:1" stroke-linecap="round"/>
  <polyline points="184.578,48.719 191.750,48.719 191.750,53.000 184.578,53.000 184.578,48.719"  style="fill:none;stroke:#FFF;stroke-width:0.1953;opacity:1" stroke-linecap="round"/>
  <polyline points="147.000,71.844 157.063,71.844 157.063,76.125 147.000,76.125 147.000,71.844"  style="fill:none;stroke:#FFF;stroke-width:0.1953;opacity:1" stroke-linecap="round"/>
  <polyline points="158.563,60.281 162.844,60.281 162.844,93.469 158.563,93.469 158.563,60.281"  style="fill:none;stroke:#FFF;stroke-width:0.1953;opacity:1" stroke-linecap="round"/>
  <polyline points="167.234,60.281 180.188,60.281 180.188,64.563 167.234,64.563 167.234,60.281"  style="fill:none;stroke:#FFF;stroke-width:0.1953;opacity:1" stroke-linecap="round"/>
  <polyline points="167.234,66.063 168.625,66.063 168.625,105.031 167.234,105.031 167.234,66.063"  style="fill:none;stroke:#FFF;stroke-width:0.1953;opacity:1" stroke-linecap="round"/>
  <polyline points="147.000,77.625 157.063,77.625 157.063,87.688 147.000,87.688 147.000,77.625"  style="fill:none;stroke:#FFF;stroke-width:0.1953;opacity:1" stroke-linecap="round"/>
  <polyline points="141.219,89.188 157.063,89.188 157.063,93.469 141.219,93.469 141.219,89.188"  style="fill:none;stroke:#FFF;stroke-width:0.1953;opacity:1" stroke-linecap="round"/>
  <polyline points="141.219,94.969 162.844,94.969 162.844,105.031 141.219,105.031 141.219,94.969"  style="fill:none;stroke:#FFF;stroke-width:0.1953;opacity:1" stroke-linecap="round"/>
  <polyline points="170.125,31.375 174.406,31.375 174.406,58.781 170.125,58.781 170.125,31.375"  style="fill:none;stroke:#FFF;stroke-width:0.1953;opacity:1" stroke-linecap="round"/>
  <polyline points="170.125,66.063 177.297,66.063 177.297,70.344 170.125,70.344 170.125,66.063"  style="fill:none;stroke:#FFF;stroke-width:0.1953;opacity:1" stroke-linecap="round"/>
  <polyline points="170.125,71.844 174.406,71.844 174.406,105.031 170.125,105.031 170.125,71.844"  style="fill:none;stroke:#FFF;stroke-width:0.1953;opacity:1" stroke-linecap="round"/>
  <polyline points="178.797,66.063 180.188,66.063 180.188,70.344 178.797,70.344 178.797,66.063"  style="fill:none;stroke:#FFF;stroke-width:0.1953;opacity:1" stroke-linecap="round"/>
  <polyline points="175.906,71.844 180.188,71.844 180.188,87.688 175.906,87.688 175.906,71.844"  style="fill:none;stroke:#FFF;stroke-width:0.1953;opacity:1" stroke-linecap="round"/>
  <polyline points="184.578,54.500 191.750,54.500 191.750,81.906 184.578,81.906 184.578,54.500"  style="fill:none;stroke:#FFF;stroke-width:0.1953;opacity:1" stroke-linecap="round"/>
  <polyline points="181.688,48.719 183.078,48.719 183.078,81.906 181.688,81.906 181.688,48.719"  style="fill:none;stroke:#FFF;stroke-width:0.1953;opacity:1" stroke-linecap="round"/>
  <polyline points="175.906,89.188 177.297,89.188 177.297,110.813 175.906,110.813 175.906,89.188"  style="fill:none;stroke:#FFF;stroke-width:0.1953;opacity:1" stroke-linecap="round"/>
  <polyline points="178.797,89.188 180.188,89.188 180.188,110.813 178.797,110.813 178.797,89.188"  style="fill:none;stroke:#FFF;stroke-width:0.1953;opacity:1" stroke-linecap="round"/>
  <polyline points="181.688,83.406 191.750,83.406 191.750,87.688 181.688,87.688 181.688,83.406"  style="fill:none;stroke:#FFF;stroke-width:0.1953;opacity:1" stroke-linecap="round"/>
  <polyline points="181.688,89.188 188.859,89.188 188.859,110.813 181.688,110.813 181.688,89.188"  style="fill:none;stroke:#FFF;stroke-width:0.1953;opacity:1" stroke-linecap="round"/>
  <polyline points="190.359,89.188 191.750,89.188 191.750,133.938 190.359,133.938 190.359,89.188"  style="fill:none;stroke:#FFF;stroke-width:0.1953;opacity:1" stroke-linecap="round"/>
  <polyline points="94.969,100.750 122.375,100.750 122.375,105.031 94.969,105.031 94.969,100.750"  style="fill:none;stroke:#FFF;stroke-width:0.1953;opacity:1" stroke-linecap="round"/>
  <polyline points="94.969,112.313 116.594,112.313 116.594,116.594 94.969,116.594 94.969,112.313"  style="fill:none;stroke:#FFF;stroke-width:0.1953;opacity:1" stroke-linecap="round"/>
  <polyline points="109.422,118.094 116.594,118.094 116.594,122.375 109.422,122.375 109.422,118.094"  style="fill:none;stroke:#FFF;stroke-width:0.1953;opacity:1" stroke-linecap="round"/>
  <polyline points="103.641,118.094 107.922,118.094 107.922,151.281 103.641,151.281 103.641,118.094"  style="fill:none;stroke:#FFF;stroke-width:0.1953;opacity:1" stroke-linecap="round"/>
  <polyline points="109.422,123.875 110.813,123.875 110.813,185.969 109.422,185.969 109.422,123.875"  style="fill:none;stroke:#FFF;stroke-width:0.1953;opacity:1" stroke-linecap="round"/>
  <polyline points="118.094,123.875 122.375,123.875 122.375,180.188 118.094,180.188 118.094,123.875"  style="fill:none;stroke:#FFF;stroke-width:0.1953;opacity:1" stroke-linecap="round"/>
  <polyline points="123.875,94.969 131.047,94.969 131.047,105.031 123.875,105.031 123.875,94.969"  style="fill:none;stroke:#FFF;stroke-width:0.1953;opacity:1" stroke-linecap="round"/>
  <polyline points="118.094,112.313 131.047,112.313 131.047,122.375 118.094,122.375 118.094,112.313"  style="fill:none;stroke:#FFF;stroke-width:0.1953;opacity:1" stroke-linecap="round"/>
  <polyline points="141.219,106.531 148.391,106.531 148.391,116.594 141.219,116.594 141.219,106.531"  style="fill:none;stroke:#FFF;stroke-width:0.1953;opacity:1" stroke-linecap="round"/>
  <polyline points="123.875,123.875 131.047,123.875 131.047,145.500 123.875,145.500 123.875,123.875"  style="fill:none;stroke:#FFF;stroke-width:0.1953;opacity:1" stroke-linecap="round"/>
  <polyline points="135.438,123.875 154.172,123.875 154.172,133.938 135.438,133.938 135.438,123.875"  style="fill:none;stroke:#FFF;stroke-width:0.1953;opacity:1" stroke-linecap="round"/>
  <polyline points="135.438,141.219 136.828,141.219 136.828,174.406 135.438,174.406 135.438,141.219"  style="fill:none;stroke:#FFF;stroke-width:0.1953;opacity:1" stroke-linecap="round"/>
  <polyline points="138.328,141.219 145.500,141.219 145.500,145.500 138.328,145.500 138.328,141.219"  style="fill:none;stroke:#FFF;stroke-width:0.1953;opacity:1" stroke-linecap="round"/>
  <polyline points="135.438,135.438 145.500,135.438 145.500,139.719 135.438,139.719 135.438,135.438"  style="fill:none;stroke:#FFF;stroke-width:0.1953;opacity:1" stroke-linecap="round"/>
  <polyline points="149.891,106.531 157.063,106.531 157.063,110.813 149.891,110.813 149.891,106.531"  style="fill:none;stroke:#FFF;stroke-width:0.1953;opacity:1" stroke-linecap="round"/>
  <polyline points="149.891,112.313 151.281,112.313 151.281,116.594 149.891,116.594 149.891,112.313"  style="fill:none;stroke:#FFF;stroke-width:0.1953;opacity:1" stroke-linecap="round"/>
  <polyline points="135.438,118.094 151.281,118.094 151.281,122.375 135.438,122.375 135.438,118.094"  style="fill:none;stroke:#FFF;stroke-width:0.1953;opacity:1" stroke-linecap="round"/>
  <polyline points="152.781,112.313 157.063,112.313 157.063,122.375 152.781,122.375 152.781,112.313"  style="fill:none;stroke:#FFF;stroke-width:0.1953;opacity:1" stroke-linecap="round"/>
  <polyline points="158.563,106.531 162.844,106.531 162.844,116.594 158.563,116.594 158.563,106.531"  style="fill:none;stroke:#FFF;stroke-width:0.1953;opacity:1" stroke-linecap="round"/>
  <polyline points="158.563,118.094 177.297,118.094 177.297,122.375 158.563,122.375 158.563,118.094"  style="fill:none;stroke:#FFF;stroke-width:0.1953;opacity:1" stroke-linecap="round"/>
  <polyline points="155.672,123.875 157.063,123.875 157.063,145.500 155.672,145.500 155.672,123.875"  style="fill:none;stroke:#FFF;stroke-width:0.1953;opacity:1" stroke-linecap="round"/>
  <polyline points="147.000,135.438 154.172,135.438 154.172,145.500 147.000,145.500 147.000,135.438"  style="fill:none;stroke:#FFF;stroke-width:0.1953;opacity:1" stroke-linecap="round"/>
  <polyline points="158.563,123.875 168.625,123.875 168.625,133.938 158.563,133.938 158.563,123.875"  style="fill:none;stroke:#FFF;stroke-width:0.1953;opacity:1" stroke-linecap="round"/>
  <polyline points="161.453,135.438 162.844,135.438 162.844,157.063 161.453,157.063 161.453,135.438"  style="fill:none;stroke:#FFF;stroke-width:0.1953;opacity:1" stroke-linecap="round"/>
  <polyline points="158.563,135.438 159.953,135.438 159.953,151.281 158.563,151.281 158.563,135.438"  style="fill:none;stroke:#FFF;stroke-width:0.1953;opacity:1" stroke-linecap="round"/>
  <polyline points="164.344,135.438 171.516,135.438 171.516,139.719 164.344,139.719 164.344,135.438"  style="fill:none;stroke:#FFF;stroke-width:0.1953;opacity:1" stroke-linecap="round"/>
  <polyline points="164.344,141.219 168.625,141.219 168.625,157.063 164.344,157.063 164.344,141.219"  style="fill:none;stroke:#FFF;stroke-width:0.1953;opacity:1" stroke-linecap="round"/>
  <polyline points="164.344,106.531 174.406,106.531 174.406,110.813 164.344,110.813 164.344,106.531"  style="fill:none;stroke:#FFF;stroke-width:0.1953;opacity:1" stroke-linecap="round"/>
  <polyline points="164.344,112.313 188.859,112.313 188.859,116.594 164.344,116.594 164.344,112.313"  style="fill:none;stroke:#FFF;stroke-width:0.1953;opacity:1" stroke-linecap="round"/>
  <polyline points="181.688,118.094 188.859,118.094 188.859,122.375 181.688,122.375 181.688,118.094"  style="fill:none;stroke:#FFF;stroke-width:0.1953;opacity:1" stroke-linecap="round"/>
  <polyline points="170.125,123.875 177.297,123.875 177.297,128.156 170.125,128.156 170.125,123.875"  style="fill:none;stroke:#FFF;stroke-width:0.1953;opacity:1" stroke-linecap="round"/>
  <polyline points="170.125,129.656 174.406,129.656 174.406,133.938 170.125,133.938 170.125,129.656"  style="fill:none;stroke:#FFF;stroke-width:0.1953;opacity:1" stroke-linecap="round"/>
  <polyline points="178.797,118.094 180.188,118.094 180.188,145.500 178.797,145.500 178.797,118.094"  style="fill:none;stroke:#FFF;stroke-width:0.1953;opacity:1" stroke-linecap="round"/>
  <polyline points="173.016,135.438 174.406,135.438 174.406,151.281 173.016,151.281 173.016,135.438"  style="fill:none;stroke:#FFF;stroke-width:0.1953;opacity:1" stroke-linecap="round"/>
  <polyline points="170.125,141.219 171.516,141.219 171.516,151.281 170.125,151.281 170.125,141.219"  style="fill:none;stroke:#FFF;stroke-width:0.1953;opacity:1" stroke-linecap="round"/>
  <polyline points="175.906,129.656 177.297,129.656 177.297,145.500 175.906,145.500 175.906,129.656"  style="fill:none;stroke:#FFF;stroke-width:0.1953;opacity:1" stroke-linecap="round"/>
  <polyline points="184.578,123.875 185.969,123.875 185.969,174.406 184.578,174.406 184.578,123.875"  style="fill:none;stroke:#FFF;stroke-width:0.1953;opacity:1" stroke-linecap="round"/>
  <polyline points="181.688,123.875 183.078,123.875 183.078,191.750 181.688,191.750 181.688,123.875"  style="fill:none;stroke:#FFF;stroke-width:0.1953;opacity:1" stroke-linecap="round"/>
  <polyline points="187.469,123.875 188.859,123.875 188.859,133.938 187.469,133.938 187.469,123.875"  style="fill:none;stroke:#FFF;stroke-width:0.1953;opacity:1" stroke-linecap="round"/>
  <polyline points="187.469,135.438 191.750,135.438 191.750,139.719 187.469,139.719 187.469,135.438"  style="fill:none;stroke:#FFF;stroke-width:0.1953;opacity:1" stroke-linecap="round"/>
  <polyline points="94.969,152.781 107.922,152.781 107.922,162.844 94.969,162.844 94.969,152.781"  style="fill:none;stroke:#FFF;stroke-width:0.1953;opacity:1" stroke-linecap="round"/>
  <polyline points="106.531,164.344 107.922,164.344 107.922,185.969 106.531,185.969 106.531,164.344"  style="fill:none;stroke:#FFF;stroke-width:0.1953;opacity:1" stroke-linecap="round"/>
  <polyline points="112.313,123.875 116.594,123.875 116.594,180.188 112.313,180.188 112.313,123.875"  style="fill:none;stroke:#FFF;stroke-width:0.1953;opacity:1" stroke-linecap="round"/>
  <polyline points="106.531,187.469 133.938,187.469 133.938,191.750 106.531,191.750 106.531,187.469"  style="fill:none;stroke:#FFF;stroke-width:0.1953;opacity:1" stroke-linecap="round"/>
  <polyline points="123.875,147.000 133.938,147.000 133.938,168.625 123.875,168.625 123.875,147.000"  style="fill:none;stroke:#FFF;stroke-width:0.1953;opacity:1" stroke-linecap="round"/>
  <polyline points="138.328,147.000 139.719,147.000 139.719,162.844 138.328,162.844 138.328,147.000"  style="fill:none;stroke:#FFF;stroke-width:0.1953;opacity:1" stroke-linecap="round"/>
  <polyline points="138.328,164.344 142.609,164.344 142.609,168.625 138.328,168.625 138.328,164.344"  style="fill:none;stroke:#FFF;stroke-width:0.1953;opacity:1" stroke-linecap="round"/>
  <polyline points="141.219,152.781 145.500,152.781 145.500,162.844 141.219,162.844 141.219,152.781"  style="fill:none;stroke:#FFF;stroke-width:0.1953;opacity:1" stroke-linecap="round"/>
  <polyline points="144.109,164.344 145.500,164.344 145.500,174.406 144.109,174.406 144.109,164.344"  style="fill:none;stroke:#FFF;stroke-width:0.1953;opacity:1" stroke-linecap="round"/>
  <polyline points="123.875,170.125 128.156,170.125 128.156,180.188 123.875,180.188 123.875,170.125"  style="fill:none;stroke:#FFF;stroke-width:0.1953;opacity:1" stroke-linecap="round"/>
  <polyline points="129.656,170.125 133.938,170.125 133.938,174.406 129.656,174.406 129.656,170.125"  style="fill:none;stroke:#FFF;stroke-width:0.1953;opacity:1" stroke-linecap="round"/>
  <polyline points="129.656,175.906 136.828,175.906 136.828,180.188 129.656,180.188 129.656,175.906"  style="fill:none;stroke:#FFF;stroke-width:0.1953;opacity:1" stroke-linecap="round"/>
  <polyline points="112.313,181.688 133.938,181.688 133.938,185.969 112.313,185.969 112.313,181.688"  style="fill:none;stroke:#FFF;stroke-width:0.1953;opacity:1" stroke-linecap="round"/>
  <polyline points="138.328,170.125 139.719,170.125 139.719,180.188 138.328,180.188 138.328,170.125"  style="fill:none;stroke:#FFF;stroke-width:0.1953;opacity:1" stroke-linecap="round"/>
  <polyline points="141.219,170.125 142.609,170.125 142.609,174.406 141.219,174.406 141.219,170.125"  style="fill:none;stroke:#FFF;stroke-width:0.1953;opacity:1" stroke-linecap="round"/>
  <polyline points="135.438,181.688 139.719,181.688 139.719,191.750 135.438,191.750 135.438,181.688"  style="fill:none;stroke:#FFF;stroke-width:0.1953;opacity:1" stroke-linecap="round"/>
  <polyline points="141.219,187.469 168.625,187.469 168.625,191.750 141.219,191.750 141.219,187.469"  style="fill:none;stroke:#FFF;stroke-width:0.1953;opacity:1" stroke-linecap="round"/>
  <polyline points="141.219,147.000 157.063,147.000 157.063,151.281 141.219,151.281 141.219,147.000"  style="fill:none;stroke:#FFF;stroke-width:0.1953;opacity:1" stroke-linecap="round"/>
  <polyline points="147.000,152.781 159.953,152.781 159.953,157.063 147.000,157.063 147.000,152.781"  style="fill:none;stroke:#FFF;stroke-width:0.1953;opacity:1" stroke-linecap="round"/>
  <polyline points="147.000,158.563 177.297,158.563 177.297,162.844 147.000,162.844 147.000,158.563"  style="fill:none;stroke:#FFF;stroke-width:0.1953;opacity:1" stroke-linecap="round"/>
  <polyline points="147.000,164.344 174.406,164.344 174.406,168.625 147.000,168.625 147.000,164.344"  style="fill:none;stroke:#FFF;stroke-width:0.1953;opacity:1" stroke-linecap="round"/>
  <polyline points="147.000,170.125 171.516,170.125 171.516,174.406 147.000,174.406 147.000,170.125"  style="fill:none;stroke:#FFF;stroke-width:0.1953;opacity:1" stroke-linecap="round"/>
  <polyline points="141.219,175.906 159.953,175.906 159.953,185.969 141.219,185.969 141.219,175.906"  style="fill:none;stroke:#FFF;stroke-width:0.1953;opacity:1" stroke-linecap="round"/>
  <polyline points="161.453,175.906 171.516,175.906 171.516,185.969 161.453,185.969 161.453,175.906"  style="fill:none;stroke:#FFF;stroke-width:0.1953;opacity:1" stroke-linecap="round"/>
  <polyline points="170.125,152.781 177.297,152.781 177.297,157.063 170.125,157.063 170.125,152.781"  style="fill:none;stroke:#FFF;stroke-width:0.1953;opacity:1" stroke-linecap="round"/>
  <polyline points="175.906,147.000 180.188,147.000 180.188,151.281 175.906,151.281 175.906,147.000"  style="fill:none;stroke:#FFF;stroke-width:0.1953;opacity:1" stroke-linecap="round"/>
  <polyline points="178.797,152.781 180.188,152.781 180.188,191.750 178.797,191.750 178.797,152.781"  style="fill:none;stroke:#FFF;stroke-width:0.1953;opacity:1" stroke-linecap="round"/>
  <polyline points="173.016,170.125 174.406,170.125 174.406,185.969 173.016,185.969 173.016,170.125"  style="fill:none;stroke:#FFF;stroke-width:0.1953;opacity:1" stroke-linecap="round"/>
  <polyline points="175.906,164.344 177.297,164.344 177.297,191.750 175.906,191.750 175.906,164.344"  style="fill:none;stroke:#FFF;stroke-width:0.1953;opacity:1" stroke-linecap="round"/>
  <polyline points="170.125,187.469 174.406,187.469 174.406,191.750 170.125,191.750 170.125,187.469"  style="fill:none;stroke:#FFF;stroke-width:0.1953;opacity:1" stroke-linecap="round"/>
  <polyline points="187.469,141.219 191.750,141.219 191.750,191.750 187.469,191.750 187.469,141.219"  style="fill:none;stroke:#FFF;stroke-width:0.1953;opacity:1" stroke-linecap="round"/>
  <polyline points="184.578,175.906 185.969,175.906 185.969,191.750 184.578,191.750 184.578,175.906"  style="fill:none;stroke:#FFF;stroke-width:0.1953;opacity:1" stroke-linecap="round"/>
</svg>
