<?xml version="1.0"?><svg  viewBox="0 0 200 200" width="180mm" height="180mm" xmlns="http://www.w3.org/2000/svg"  version="1.2" viewport-fill="#000">
  <rect fill="#000" width="200" height="200" y="0" x="0"/>
  <polyline points="51.000,186.762 52.000,186.874 53.000,186.372 54.000,186.749 55.000,185.888 56.000,186.017 59.000,186.429 60.000,186.018 62.000,186.031 63.000,185.709 64.000,185.681 70.000,185.361 73.000,184.799 76.000,183.795 78.000,183.623 82.000,182.983 83.000,182.709 84.000,182.003 86.000,182.233 87.000,181.684 88.000,181.187 89.000,181.095 90.000,180.500 94.000,180.044 95.000,178.255 96.000,177.402 98.000,176.703 101.000,174.570 102.000,172.957 103.000,174.581 105.000,175.787 108.000,177.734 109.000,179.095 112.000,179.850 114.000,180.906 116.000,181.618 118.000,181.976 120.000,182.351 121.000,183.035 125.000,183.157 126.000,183.918 128.000,184.155 129.000,183.934 130.000,184.178 132.000,184.834 136.000,184.813 137.000,184.964 140.000,185.077 142.000,185.941 143.000,186.272 149.000,186.357"  style="fill:none;stroke:#fff;stroke-width:0.1953;opacity:1" stroke-linecap="round"/>
  <polyline points="56.150,184.266 57.150,183.949 58.150,184.185 60.150,183.866 62.150,183.994 63.150,183.126 64.150,183.434 65.150,183.499 67.150,183.447 68.150,182.577 73.150,182.911 74.150,182.412 75.150,182.162 78.150,182.043 80.150,181.180 81.150,181.032 83.150,180.493 85.150,179.929 86.150,179.788 87.150,179.224 89.150,179.057 91.150,178.545 93.150,177.502 94.150,176.897 95.150,176.344 98.150,175.324 99.150,172.327 101.150,170.651 102.150,171.269 103.150,172.867 106.150,174.088 107.150,176.392 109.150,176.706 110.150,177.703 111.150,178.319 113.150,178.382 115.150,179.037 118.150,179.699 122.150,180.769 123.150,181.440 125.150,181.156 127.150,181.958 131.150,181.938 132.150,182.934 134.150,183.146 136.150,183.139 143.150,183.290 144.150,184.154 145.150,184.044 148.150,184.624 149.150,184.743"  style="fill:none;stroke:#fff;stroke-width:0.1953;opacity:1" stroke-linecap="round"/>
  <polyline points="52.300,182.814 55.300,182.830 56.300,182.328 58.300,181.916 59.300,181.910 60.300,182.046 64.300,181.862 66.300,181.596 67.300,181.168 69.300,180.659 71.300,180.938 72.300,180.044 75.300,179.894 77.300,180.033 79.300,179.569 80.300,179.255 81.300,178.869 83.300,178.393 85.300,177.892 90.300,177.779 91.300,176.229 92.300,175.482 94.300,175.035 97.300,174.122 98.300,171.653 99.300,170.283 100.300,168.228 102.300,167.133 104.300,171.132 106.300,173.190 107.300,174.427 108.300,174.943 109.300,175.539 110.300,175.908 111.300,176.064 113.300,176.708 115.300,176.979 117.300,178.009 119.300,178.326 121.300,179.023 123.300,178.970 124.300,179.264 125.300,179.506 127.300,179.851 128.300,179.957 131.300,180.118 133.300,180.877 135.300,181.190 136.300,181.392 137.300,181.695 138.300,181.492 141.300,181.623 142.300,182.248 145.300,182.271"  style="fill:none;stroke:#fff;stroke-width:0.1953;opacity:1" stroke-linecap="round"/>
  <polyline points="51.450,180.296 54.450,180.628 56.450,179.880 59.450,180.118 60.450,179.395 61.450,179.426 62.450,179.497 65.450,179.572 68.450,179.412 70.450,178.662 72.450,178.566 74.450,178.162 75.450,177.807 76.450,177.463 77.450,177.424 80.450,177.332 82.450,176.843 83.450,176.207 85.450,175.966 86.450,175.797 88.450,175.492 92.450,174.626 94.450,172.952 96.450,171.950 99.450,170.460 100.450,165.883 101.450,165.611 103.450,167.709 105.450,170.283 109.450,171.870 110.450,174.036 113.450,174.494 115.450,175.083 116.450,175.622 118.450,175.931 120.450,176.804 121.450,177.253 122.450,177.050 124.450,177.581 125.450,177.713 126.450,178.177 127.450,177.813 129.450,177.969 134.450,178.284 135.450,179.114 136.450,179.551 137.450,179.597 140.450,179.804 143.450,179.743 144.450,179.891 147.450,180.501 148.450,180.042 149.450,180.501"  style="fill:none;stroke:#fff;stroke-width:0.1953;opacity:1" stroke-linecap="round"/>
  <polyline points="50.600,178.957 52.600,178.271 53.600,178.589 54.600,178.277 55.600,177.840 56.600,177.785 57.600,177.968 58.600,178.132 61.600,177.653 64.600,177.340 65.600,177.247 67.600,176.716 68.600,176.573 69.600,177.061 70.600,176.925 72.600,176.559 73.600,176.435 75.600,176.295 77.600,176.037 78.600,175.168 81.600,175.439 82.600,174.344 85.600,174.216 86.600,173.516 87.600,173.169 88.600,173.046 89.600,172.522 91.600,172.308 92.600,171.662 93.600,170.924 95.600,170.436 96.600,168.990 98.600,168.115 100.600,165.616 104.600,163.952 106.600,169.205 108.600,170.526 109.600,171.578 110.600,172.224 114.600,172.167 115.600,173.336 116.600,173.957 119.600,174.290 121.600,175.024 128.600,175.258 129.600,176.063 132.600,176.841 136.600,177.076 138.600,177.654 140.600,177.277 141.600,177.852 142.600,177.739 144.600,177.967 148.600,177.851"  style="fill:none;stroke:#fff;stroke-width:0.1953;opacity:1" stroke-linecap="round"/>
  <polyline points="50.750,176.832 51.750,176.332 55.750,176.403 56.750,176.428 59.750,176.397 61.750,175.936 63.750,175.335 65.750,175.123 66.750,175.293 67.750,175.020 70.750,175.140 71.750,174.776 75.750,174.414 76.750,173.326 80.750,173.260 81.750,172.697 85.750,172.490 86.750,171.782 87.750,171.388 89.750,171.146 90.750,170.351 93.750,170.008 94.750,168.580 95.750,167.829 98.750,166.957 99.750,163.467 100.750,160.958 101.750,162.321 102.750,164.316 103.750,165.534 104.750,166.568 106.750,167.477 107.750,168.772 108.750,169.414 109.750,169.407 112.750,170.036 113.750,171.118 115.750,171.443 117.750,171.936 118.750,172.695 119.750,172.479 124.750,173.014 125.750,173.409 127.750,173.690 128.750,174.063 132.750,174.378 135.750,175.052 138.750,174.992 141.750,175.291 145.750,175.844 146.750,175.928"  style="fill:none;stroke:#fff;stroke-width:0.1953;opacity:1" stroke-linecap="round"/>
  <polyline points="50.900,174.684 51.900,174.797 52.900,174.839 54.900,174.387 55.900,174.430 57.900,174.216 58.900,173.976 60.900,173.778 61.900,173.939 62.900,173.694 63.900,173.121 68.900,173.496 70.900,172.964 74.900,172.432 76.900,171.932 81.900,171.687 83.900,170.806 84.900,169.818 85.900,169.879 86.900,169.530 89.900,169.003 93.900,168.163 95.900,166.256 97.900,164.856 98.900,162.866 102.900,161.190 103.900,163.785 104.900,164.572 105.900,165.347 107.900,166.375 109.900,167.050 111.900,168.089 113.900,168.751 116.900,169.711 118.900,170.267 122.900,170.808 129.900,171.639 130.900,172.716 133.900,172.311 136.900,172.804 140.900,173.052 141.900,174.140 142.900,174.003 144.900,174.336 145.900,174.066 147.900,174.339"  style="fill:none;stroke:#fff;stroke-width:0.1953;opacity:1" stroke-linecap="round"/>
  <polyline points="56.050,172.580 57.050,171.985 58.050,172.238 59.050,171.600 60.050,172.164 63.050,172.019 64.050,171.535 71.050,171.608 72.050,170.130 75.050,170.507 77.050,169.688 78.050,169.777 80.050,169.324 81.050,168.753 84.050,168.887 85.050,168.186 87.050,167.565 89.050,167.258 90.050,166.647 91.050,166.043 93.050,165.562 94.050,164.569 97.050,164.245 100.050,161.819 101.050,156.203 102.050,159.062 104.050,160.742 106.050,162.754 107.050,164.401 108.050,164.744 109.050,165.179 110.050,165.539 111.050,166.200 112.050,166.637 116.050,166.820 117.050,168.288 118.050,168.545 120.050,168.247 122.050,169.070 123.050,169.380 127.050,169.456 128.050,169.898 133.050,170.463 135.050,171.165 137.050,170.943 138.050,171.021 139.050,171.576 140.050,171.251 141.050,171.896 142.050,172.054 145.050,171.821 146.050,172.601 148.050,172.298"  style="fill:none;stroke:#fff;stroke-width:0.1953;opacity:1" stroke-linecap="round"/>
  <polyline points="52.200,170.379 55.200,170.182 56.200,170.294 57.200,169.941 61.200,170.345 62.200,169.512 64.200,169.804 65.200,169.635 66.200,168.981 67.200,168.964 68.200,168.910 69.200,168.653 70.200,168.407 71.200,168.549 75.200,168.205 76.200,167.625 78.200,167.283 79.200,167.192 80.200,166.810 83.200,166.601 85.200,165.968 88.200,165.721 90.200,164.837 92.200,164.327 97.200,163.371 99.200,159.695 100.200,156.524 102.200,154.790 103.200,158.913 105.200,160.197 108.200,161.580 110.200,163.344 111.200,164.301 112.200,164.842 113.200,164.656 114.200,165.012 115.200,165.741 116.200,165.933 119.200,165.999 120.200,166.752 121.200,167.028 122.200,167.272 124.200,167.158 127.200,167.838 128.200,167.962 130.200,167.995 132.200,168.198 133.200,169.165 134.200,169.193 138.200,169.306 140.200,169.429 144.200,169.412 147.200,169.767 148.200,170.764"  style="fill:none;stroke:#fff;stroke-width:0.1953;opacity:1" stroke-linecap="round"/>
  <polyline points="51.350,168.279 52.350,168.734 53.350,168.780 54.350,168.529 55.350,168.225 56.350,168.030 57.350,168.072 58.350,168.179 59.350,167.592 64.350,167.611 65.350,167.614 70.350,167.137 71.350,166.370 74.350,166.550 77.350,165.835 78.350,165.316 80.350,164.964 81.350,164.978 84.350,164.531 85.350,163.959 87.350,163.868 88.350,162.943 89.350,162.597 90.350,162.585 96.350,162.112 97.350,158.545 101.350,157.568 104.350,155.691 105.350,159.207 106.350,159.973 108.350,160.566 109.350,161.289 114.350,161.924 115.350,163.621 116.350,164.083 117.350,163.790 121.350,164.236 122.350,165.122 124.350,165.168 127.350,165.809 132.350,166.492 133.350,166.483 136.350,167.188 140.350,167.633 142.350,168.088 144.350,168.087 148.350,168.269"  style="fill:none;stroke:#fff;stroke-width:0.1953;opacity:1" stroke-linecap="round"/>
  <polyline points="51.500,166.572 53.500,166.603 54.500,166.634 55.500,166.153 56.500,165.979 57.500,166.079 61.500,166.077 62.500,165.260 63.500,165.135 67.500,165.239 69.500,164.804 70.500,164.525 71.500,164.614 72.500,164.356 73.500,163.892 76.500,163.756 79.500,163.588 80.500,162.892 82.500,163.027 85.500,162.509 88.500,161.705 91.500,160.655 96.500,159.370 97.500,156.362 99.500,155.336 101.500,151.750 104.500,153.913 109.500,157.110 110.500,159.878 112.500,160.568 113.500,161.231 114.500,161.568 115.500,161.469 116.500,161.638 119.500,161.929 120.500,162.896 122.500,163.063 124.500,163.025 136.500,163.671 137.500,165.199 140.500,165.602 142.500,165.550 144.500,165.868 145.500,166.413"  style="fill:none;stroke:#fff;stroke-width:0.1953;opacity:1" stroke-linecap="round"/>
  <polyline points="51.650,164.131 52.650,164.104 55.650,164.408 56.650,163.952 59.650,163.798 61.650,163.753 64.650,163.234 67.650,163.005 68.650,162.858 69.650,162.659 70.650,162.730 73.650,162.477 74.650,161.844 75.650,161.535 76.650,161.850 78.650,161.296 79.650,161.179 81.650,160.882 83.650,160.564 88.650,160.160 89.650,158.592 90.650,158.205 91.650,158.092 92.650,157.629 93.650,157.173 94.650,156.246 98.650,155.689 99.650,151.572 100.650,149.266 101.650,150.151 103.650,152.139 104.650,154.397 105.650,155.295 106.650,155.852 107.650,156.465 109.650,157.228 115.650,157.963 116.650,160.082 122.650,159.914 126.650,161.213 127.650,161.879 128.650,162.230 132.650,162.228 133.650,162.809 135.650,162.839 137.650,163.498 138.650,163.275 140.650,163.651 142.650,163.993 145.650,163.885"  style="fill:none;stroke:#fff;stroke-width:0.1953;opacity:1" stroke-linecap="round"/>
  <polyline points="51.800,162.112 53.800,162.200 55.800,162.361 61.800,162.176 62.800,161.506 63.800,161.182 64.800,161.630 66.800,161.324 68.800,161.271 70.800,160.995 76.800,160.669 77.800,159.573 79.800,159.063 82.800,159.140 83.800,158.573 86.800,158.008 91.800,157.141 92.800,155.398 95.800,154.896 96.800,152.955 99.800,152.207 100.800,146.772 101.800,148.453 103.800,150.356 105.800,152.683 108.800,154.008 109.800,155.713 110.800,156.116 114.800,156.469 116.800,157.715 118.800,157.906 120.800,158.341 121.800,159.075 122.800,159.268 124.800,159.687 125.800,159.411 126.800,159.575 128.800,160.394 130.800,160.656 134.800,160.312 135.800,161.316 137.800,161.407 138.800,161.679 139.800,161.952 140.800,161.915 142.800,161.929 144.800,161.961 147.800,162.199"  style="fill:none;stroke:#fff;stroke-width:0.1953;opacity:1" stroke-linecap="round"/>
  <polyline points="51.950,160.593 53.950,160.766 54.950,159.976 59.950,159.938 60.950,159.961 61.950,159.606 63.950,159.264 65.950,159.490 68.950,159.385 72.950,158.761 75.950,158.131 78.950,157.570 79.950,157.265 88.950,157.087 91.950,154.450 93.950,153.392 94.950,152.231 96.950,151.467 99.950,150.017 100.950,144.207 101.950,146.768 102.950,148.689 103.950,149.947 106.950,150.723 107.950,152.822 111.950,153.211 113.950,155.001 114.950,155.735 115.950,155.837 117.950,156.129 118.950,156.215 119.950,156.565 120.950,156.648 123.950,156.948 125.950,157.483 126.950,157.834 129.950,158.397 133.950,158.754 134.950,159.159 136.950,159.516 139.950,159.165 142.950,160.122 143.950,159.610 144.950,159.758 145.950,160.529 147.950,160.033"  style="fill:none;stroke:#fff;stroke-width:0.1953;opacity:1" stroke-linecap="round"/>
  <polyline points="52.100,158.745 53.100,158.672 55.100,158.532 57.100,157.885 58.100,158.375 59.100,157.638 60.100,158.164 61.100,157.427 62.100,157.959 64.100,157.763 65.100,157.215 66.100,157.128 69.100,157.241 70.100,156.406 71.100,156.774 79.100,156.612 81.100,155.199 84.100,154.557 85.100,154.160 87.100,153.892 90.100,152.953 91.100,152.165 92.100,151.953 94.100,151.284 96.100,150.358 97.100,148.795 102.100,147.627 103.100,146.897 105.100,148.113 106.100,149.549 109.100,150.353 111.100,152.011 112.100,152.394 114.100,152.946 115.100,153.384 116.100,153.618 117.100,153.729 118.100,154.124 120.100,154.380 121.100,155.068 123.100,154.906 124.100,155.747 126.100,155.307 134.100,155.616 135.100,156.895 137.100,157.353 138.100,157.770 139.100,157.603 141.100,157.719 142.100,157.528 143.100,158.016 144.100,158.147 145.100,157.928 146.100,157.834"  style="fill:none;stroke:#fff;stroke-width:0.1953;opacity:1" stroke-linecap="round"/>
  <polyline points="53.250,156.535 58.250,156.023 59.250,155.718 63.250,155.779 65.250,155.308 70.250,155.173 72.250,154.703 74.250,154.395 76.250,154.263 77.250,153.733 79.250,153.244 81.250,152.889 82.250,152.382 83.250,152.519 85.250,152.173 87.250,151.442 89.250,151.078 90.250,150.593 91.250,149.987 96.250,149.607 97.250,146.512 100.250,145.552 102.250,140.948 104.250,144.994 105.250,147.099 110.250,147.575 111.250,150.507 112.250,150.476 113.250,151.217 119.250,151.507 121.250,152.898 122.250,153.259 123.250,153.508 124.250,153.361 125.250,153.700 128.250,153.992 134.250,154.301 137.250,155.171 138.250,155.131 139.250,155.585 141.250,155.645 143.250,155.933 144.250,156.326 145.250,155.800"  style="fill:none;stroke:#fff;stroke-width:0.1953;opacity:1" stroke-linecap="round"/>
  <polyline points="52.400,154.079 53.400,154.453 57.400,154.490 58.400,153.595 61.400,153.984 64.400,153.497 65.400,153.380 67.400,152.767 69.400,153.023 70.400,152.591 71.400,152.167 74.400,151.989 75.400,152.161 76.400,151.550 77.400,151.640 79.400,151.320 81.400,150.907 85.400,150.889 86.400,149.610 87.400,149.564 88.400,148.837 89.400,148.761 90.400,148.641 92.400,147.889 94.400,147.003 102.400,145.892 105.400,143.051 107.400,145.688 108.400,147.199 109.400,147.301 110.400,148.159 111.400,148.490 112.400,148.426 114.400,148.740 116.400,149.286 117.400,150.340 120.400,150.565 122.400,151.296 123.400,151.127 124.400,151.629 125.400,151.743 126.400,151.771 127.400,152.277 129.400,152.114 133.400,152.659 136.400,153.011 140.400,153.256 141.400,153.682 145.400,153.497 147.400,154.536"  style="fill:none;stroke:#fff;stroke-width:0.1953;opacity:1" stroke-linecap="round"/>
  <polyline points="52.550,152.461 56.550,152.407 57.550,152.468 59.550,152.335 62.550,152.043 63.550,151.191 64.550,151.003 67.550,151.226 68.550,150.696 69.550,150.475 71.550,150.262 73.550,150.549 74.550,150.169 80.550,150.011 81.550,148.924 82.550,148.462 84.550,148.353 86.550,148.156 89.550,147.082 91.550,146.296 92.550,145.478 95.550,144.990 96.550,143.260 97.550,142.287 99.550,141.319 102.550,137.536 103.550,141.407 104.550,142.562 106.550,143.113 108.550,144.559 110.550,145.749 112.550,146.190 113.550,147.197 116.550,147.353 118.550,147.979 122.550,148.513 123.550,149.535 125.550,149.331 126.550,149.741 127.550,149.836 130.550,149.838 131.550,150.965 132.550,150.788 133.550,151.099 134.550,151.180 135.550,151.388 140.550,151.478 141.550,151.510 142.550,152.226 144.550,152.096 146.550,152.436"  style="fill:none;stroke:#fff;stroke-width:0.1953;opacity:1" stroke-linecap="round"/>
  <polyline points="54.700,150.418 57.700,150.172 58.700,150.325 59.700,150.232 61.700,150.113 63.700,149.286 64.700,149.041 65.700,149.316 66.700,149.297 67.700,148.620 69.700,148.800 70.700,148.888 72.700,148.638 78.700,148.462 79.700,147.267 80.700,147.037 84.700,146.954 90.700,145.633 91.700,143.814 93.700,143.412 96.700,142.336 97.700,140.223 100.700,139.162 102.700,136.248 103.700,139.405 106.700,140.587 107.700,142.784 110.700,143.274 111.700,144.538 114.700,144.921 117.700,145.483 118.700,146.450 119.700,146.440 120.700,146.888 122.700,146.742 124.700,147.279 125.700,147.781 127.700,147.719 129.700,147.905 131.700,148.606 137.700,148.710 142.700,149.759 144.700,149.877 145.700,150.518 146.700,150.602"  style="fill:none;stroke:#fff;stroke-width:0.1953;opacity:1" stroke-linecap="round"/>
  <polyline points="52.850,148.645 54.850,148.350 55.850,147.941 58.850,148.053 63.850,147.918 64.850,147.200 66.850,147.059 67.850,146.917 68.850,147.141 69.850,146.698 71.850,146.567 73.850,146.316 75.850,146.251 76.850,145.307 77.850,145.374 79.850,144.983 81.850,144.868 83.850,144.394 84.850,143.880 85.850,143.996 88.850,143.361 91.850,142.358 92.850,141.306 96.850,140.843 97.850,138.051 100.850,136.971 101.850,134.620 102.850,136.523 103.850,137.685 106.850,138.560 107.850,140.639 108.850,141.454 112.850,141.689 113.850,143.193 115.850,143.466 117.850,144.145 118.850,144.599 120.850,144.902 121.850,144.790 122.850,144.947 124.850,145.630 125.850,145.979 127.850,145.786 128.850,145.959 129.850,146.053 133.850,146.174 134.850,146.757 137.850,147.065 138.850,147.798 141.850,147.724 143.850,147.712 146.850,148.255"  style="fill:none;stroke:#fff;stroke-width:0.1953;opacity:1" stroke-linecap="round"/>
  <polyline points="53.000,146.379 54.000,146.614 55.000,146.422 57.000,146.531 59.000,146.432 60.000,145.722 63.000,145.812 64.000,145.429 66.000,144.934 69.000,145.438 70.000,144.901 71.000,144.467 72.000,144.148 73.000,144.432 74.000,144.039 77.000,143.829 80.000,143.732 81.000,142.704 82.000,142.803 83.000,142.381 84.000,142.189 85.000,142.270 86.000,141.804 88.000,141.270 90.000,140.766 91.000,140.298 92.000,139.601 93.000,139.357 94.000,138.685 95.000,138.056 96.000,137.618 98.000,136.983 100.000,134.738 101.000,130.000 104.000,132.881 109.000,136.785 110.000,139.623 111.000,139.914 112.000,140.467 113.000,140.608 115.000,141.315 116.000,141.640 117.000,142.226 119.000,142.237 120.000,142.853 121.000,143.087 124.000,143.245 125.000,143.965 126.000,143.554 129.000,143.621 131.000,144.066 132.000,144.474 136.000,144.567 138.000,145.308 140.000,145.211 143.000,145.815 144.000,145.723 145.000,146.475 146.000,145.996"  style="fill:none;stroke:#fff;stroke-width:0.1953;opacity:1" stroke-linecap="round"/>
  <polyline points="53.150,143.999 54.150,144.458 55.150,144.000 57.150,144.155 58.150,143.999 60.150,143.828 62.150,143.933 63.150,143.232 65.150,143.666 66.150,143.366 72.150,142.733 73.150,142.010 74.150,142.293 75.150,142.129 78.150,142.113 81.150,141.457 82.150,140.439 83.150,140.249 84.150,140.014 86.150,139.853 89.150,139.384 92.150,138.455 94.150,137.352 95.150,135.959 98.150,135.536 99.150,132.377 100.150,130.564 103.150,128.578 105.150,134.069 107.150,135.549 108.150,136.713 111.150,137.317 112.150,138.572 113.150,138.815 114.150,138.935 115.150,139.232 116.150,139.861 117.150,139.983 118.150,140.344 119.150,140.810 120.150,140.876 123.150,141.014 125.150,141.716 126.150,141.926 128.150,141.820 129.150,142.094 132.150,142.091 133.150,143.147 135.150,142.786 137.150,142.870 139.150,143.098 143.150,143.690 144.150,143.748 146.150,144.314"  style="fill:none;stroke:#fff;stroke-width:0.1953;opacity:1" stroke-linecap="round"/>
  <polyline points="53.300,142.203 61.300,142.321 62.300,141.832 63.300,141.207 67.300,141.332 69.300,140.969 71.300,140.408 72.300,140.226 74.300,140.529 77.300,139.626 78.300,139.152 80.300,139.427 81.300,138.829 84.300,138.850 86.300,137.740 87.300,137.199 88.300,136.977 89.300,136.633 90.300,136.240 91.300,135.973 93.300,135.614 94.300,134.811 95.300,133.966 100.300,133.199 101.300,127.096 104.300,129.484 108.300,133.217 109.300,135.263 112.300,135.628 118.300,136.719 120.300,138.673 124.300,139.215 125.300,139.910 126.300,139.756 127.300,139.793 128.300,140.347 130.300,140.059 131.300,140.634 133.300,141.013 135.300,140.621 137.300,141.508 138.300,141.045 139.300,141.527 142.300,141.804 143.300,141.671 146.300,141.839"  style="fill:none;stroke:#fff;stroke-width:0.1953;opacity:1" stroke-linecap="round"/>
  <polyline points="53.450,140.647 55.450,140.364 57.450,140.402 65.450,140.355 66.450,139.120 67.450,138.845 68.450,139.052 77.450,139.068 79.450,137.054 80.450,136.731 81.450,136.923 82.450,136.266 83.450,136.093 86.450,135.947 87.450,135.216 89.450,134.766 90.450,134.199 91.450,133.864 92.450,133.403 93.450,133.275 94.450,132.481 95.450,132.073 96.450,131.256 97.450,130.437 98.450,129.438 99.450,127.960 101.450,125.832 102.450,127.798 105.450,129.345 106.450,131.990 110.450,132.638 113.450,134.431 116.450,135.386 118.450,136.384 121.450,136.682 122.450,136.878 123.450,137.646 125.450,137.793 126.450,137.636 128.450,138.335 132.450,138.623 133.450,139.034 134.450,139.064 135.450,138.954 140.450,138.845 145.450,139.599"  style="fill:none;stroke:#fff;stroke-width:0.1953;opacity:1" stroke-linecap="round"/>
  <polyline points="55.600,138.181 56.600,138.310 57.600,137.771 59.600,138.085 61.600,137.974 65.600,137.820 72.600,137.173 78.600,135.865 79.600,135.124 80.600,135.281 81.600,135.018 84.600,134.854 88.600,133.989 92.600,132.676 95.600,130.992 96.600,129.082 97.600,128.306 98.600,127.077 100.600,125.745 101.600,123.945 102.600,126.034 106.600,127.471 107.600,130.777 110.600,131.318 112.600,132.560 113.600,133.140 114.600,133.211 116.600,133.393 117.600,134.028 119.600,134.433 120.600,134.769 122.600,134.745 127.600,135.403 129.600,136.003 132.600,136.213 134.600,136.690 137.600,136.775 138.600,137.805 144.600,137.661 145.600,138.419"  style="fill:none;stroke:#fff;stroke-width:0.1953;opacity:1" stroke-linecap="round"/>
  <polyline points="53.750,136.007 55.750,136.743 58.750,136.498 60.750,136.010 64.750,135.628 67.750,135.438 70.750,134.964 72.750,134.522 73.750,134.283 74.750,133.660 77.750,133.920 80.750,133.275 82.750,132.527 83.750,132.612 85.750,131.790 87.750,131.756 88.750,130.743 89.750,130.530 90.750,130.289 92.750,129.909 94.750,129.103 99.750,127.850 102.750,120.951 105.750,125.654 109.750,128.083 111.750,130.219 116.750,131.027 117.750,132.031 118.750,132.196 120.750,132.482 121.750,133.292 128.750,133.272 130.750,134.137 132.750,134.924 134.750,134.866 135.750,134.838 136.750,135.603 137.750,135.541 138.750,135.822 139.750,135.362 140.750,135.669 141.750,136.009 142.750,135.680 143.750,136.223"  style="fill:none;stroke:#fff;stroke-width:0.1953;opacity:1" stroke-linecap="round"/>
  <polyline points="53.900,134.071 54.900,134.615 55.900,134.476 64.900,133.874 65.900,133.103 67.900,133.045 68.900,133.058 74.900,132.378 75.900,132.056 76.900,131.477 78.900,131.452 79.900,130.909 80.900,130.708 82.900,130.862 84.900,130.472 86.900,129.740 88.900,129.005 90.900,128.800 91.900,127.759 96.900,127.455 98.900,124.060 99.900,121.199 100.900,118.410 101.900,120.784 102.900,122.534 103.900,123.819 104.900,124.743 107.900,125.337 108.900,127.258 110.900,127.897 118.900,128.563 119.900,130.739 120.900,130.995 122.900,131.035 123.900,131.316 126.900,131.294 127.900,132.208 130.900,132.334 131.900,132.521 132.900,132.601 134.900,132.715 135.900,133.362 136.900,133.359 138.900,133.387 139.900,133.222 141.900,133.523 143.900,134.315"  style="fill:none;stroke:#fff;stroke-width:0.1953;opacity:1" stroke-linecap="round"/>
  <polyline points="55.050,132.218 56.050,132.035 58.050,132.190 59.050,132.027 60.050,131.623 61.050,132.097 62.050,131.756 63.050,131.243 64.050,131.418 70.050,131.151 71.050,130.189 73.050,130.610 74.050,129.903 76.050,129.813 79.050,129.699 82.050,128.900 85.050,128.482 86.050,127.778 87.050,127.620 88.050,127.325 89.050,126.807 90.050,126.735 93.050,126.015 95.050,124.685 97.050,123.598 98.050,121.918 100.050,120.673 101.050,116.205 104.050,119.016 105.050,122.984 107.050,123.746 109.050,124.700 111.050,125.793 119.050,126.467 120.050,128.410 124.050,129.112 125.050,129.450 126.050,129.476 128.050,129.652 131.050,130.142 135.050,130.708 136.050,131.198 141.050,131.038 142.050,132.210 143.050,131.942 144.050,132.291"  style="fill:none;stroke:#fff;stroke-width:0.1953;opacity:1" stroke-linecap="round"/>
  <polyline points="54.200,130.374 59.200,129.943 61.200,129.602 62.200,129.287 63.200,129.200 65.200,129.065 67.200,129.526 69.200,128.553 74.200,128.470 76.200,127.712 78.200,127.705 79.200,127.024 81.200,126.803 85.200,126.330 90.200,125.779 91.200,123.996 92.200,123.568 93.200,123.170 95.200,122.661 97.200,121.274 101.200,119.654 102.200,117.255 104.200,118.817 106.200,121.017 108.200,122.253 109.200,123.172 110.200,123.839 112.200,124.383 123.200,125.165 124.200,127.570 125.200,127.730 128.200,127.857 130.200,128.203 131.200,128.621 132.200,128.733 135.200,129.109 137.200,129.441 138.200,129.473 141.200,129.681 144.200,129.572 145.200,130.498"  style="fill:none;stroke:#fff;stroke-width:0.1953;opacity:1" stroke-linecap="round"/>
  <polyline points="55.350,127.859 56.350,127.883 57.350,127.677 64.350,128.112 66.350,127.273 69.350,126.677 70.350,126.660 74.350,126.402 79.350,125.683 80.350,124.983 83.350,124.686 85.350,124.236 86.350,123.644 88.350,123.654 91.350,122.516 94.350,121.532 96.350,119.979 98.350,118.537 99.350,116.121 103.350,114.165 104.350,118.167 105.350,119.137 106.350,119.789 110.350,120.430 111.350,122.130 112.350,122.907 115.350,123.114 116.350,123.812 117.350,123.876 118.350,124.424 123.350,124.586 126.350,125.205 131.350,126.195 133.350,126.438 136.350,127.011 138.350,127.468 139.350,127.467 141.350,127.651 144.350,127.480 145.350,128.321"  style="fill:none;stroke:#fff;stroke-width:0.1953;opacity:1" stroke-linecap="round"/>
  <polyline points="54.500,126.577 58.500,126.554 63.500,126.280 65.500,125.368 67.500,125.158 68.500,124.489 69.500,124.578 75.500,124.817 78.500,123.742 81.500,123.306 82.500,122.418 89.500,122.164 90.500,120.100 94.500,119.797 95.500,117.777 96.500,117.147 101.500,116.427 102.500,113.858 104.500,115.308 106.500,117.099 107.500,118.706 111.500,118.912 112.500,120.687 116.500,121.024 117.500,121.968 118.500,122.084 120.500,122.455 121.500,123.159 122.500,122.876 123.500,123.394 125.500,123.473 128.500,124.003 129.500,124.268 130.500,124.319 131.500,124.493 132.500,124.885 134.500,124.818 135.500,124.859 139.500,125.551 142.500,125.625 143.500,125.818"  style="fill:none;stroke:#fff;stroke-width:0.1953;opacity:1" stroke-linecap="round"/>
  <polyline points="59.650,124.607 60.650,123.357 61.650,123.951 62.650,123.949 63.650,123.503 65.650,123.304 67.650,123.387 71.650,122.594 74.650,122.181 75.650,122.155 77.650,121.773 80.650,121.447 82.650,121.008 86.650,120.218 87.650,119.179 88.650,119.190 89.650,118.765 91.650,118.515 93.650,117.640 94.650,116.526 95.650,115.680 97.650,115.232 99.650,113.238 103.650,109.262 104.650,114.458 107.650,115.408 112.650,117.115 113.650,119.061 115.650,119.577 117.650,120.185 121.650,120.496 122.650,121.124 123.650,121.572 124.650,121.542 127.650,121.464 130.650,121.873 131.650,122.543 134.650,123.091 136.650,123.408 138.650,123.261 139.650,123.695 141.650,123.712 142.650,124.234"  style="fill:none;stroke:#fff;stroke-width:0.1953;opacity:1" stroke-linecap="round"/>
  <polyline points="54.800,122.057 62.800,121.982 64.800,121.770 66.800,120.966 68.800,120.784 69.800,120.519 70.800,120.915 73.800,120.580 74.800,120.210 75.800,119.759 77.800,119.878 78.800,119.288 81.800,119.062 82.800,118.324 83.800,118.539 84.800,117.836 85.800,117.827 87.800,117.817 91.800,116.847 92.800,115.408 94.800,115.044 97.800,113.734 99.800,110.942 100.800,106.768 101.800,108.464 102.800,110.399 103.800,111.527 104.800,112.486 105.800,113.402 106.800,114.311 109.800,114.532 110.800,115.987 111.800,116.714 117.800,116.702 120.800,118.644 122.800,118.775 123.800,119.248 124.800,119.786 126.800,120.107 129.800,120.128 130.800,120.529 133.800,120.952 134.800,120.766 135.800,120.794 136.800,121.397 138.800,120.997 140.800,121.914 142.800,121.694 143.800,122.135 144.800,121.908"  style="fill:none;stroke:#fff;stroke-width:0.1953;opacity:1" stroke-linecap="round"/>
  <polyline points="55.950,120.055 58.950,120.196 59.950,119.692 67.950,119.715 68.950,118.597 70.950,118.602 71.950,118.562 72.950,117.939 77.950,118.434 78.950,117.454 79.950,117.421 81.950,116.714 83.950,116.741 84.950,116.094 85.950,115.863 86.950,115.258 88.950,115.014 89.950,114.608 94.950,114.163 96.950,111.803 97.950,110.067 98.950,108.732 99.950,106.988 100.950,104.202 101.950,106.849 103.950,108.578 106.950,110.876 107.950,112.870 108.950,113.323 111.950,113.942 112.950,114.861 115.950,115.229 117.950,115.844 118.950,116.266 119.950,116.362 122.950,116.937 126.950,117.567 129.950,118.144 130.950,118.275 133.950,118.355 134.950,119.159 137.950,118.919 140.950,119.473 141.950,119.867 143.950,119.929 144.950,119.779"  style="fill:none;stroke:#fff;stroke-width:0.1953;opacity:1" stroke-linecap="round"/>
  <polyline points="55.100,118.553 57.100,118.332 64.100,118.302 65.100,117.635 67.100,117.380 68.100,116.871 69.100,116.488 72.100,116.470 73.100,116.108 75.100,116.413 76.100,116.056 77.100,115.421 79.100,115.099 82.100,114.824 83.100,114.140 84.100,113.934 85.100,113.838 87.100,113.935 88.100,112.873 90.100,112.854 91.100,111.919 92.100,111.524 93.100,111.299 94.100,110.943 96.100,110.009 101.100,108.671 104.100,105.123 105.100,108.941 108.100,109.546 110.100,111.395 111.100,111.963 112.100,112.682 113.100,113.168 116.100,112.996 117.100,114.105 118.100,114.328 120.100,114.412 125.100,114.743 126.100,115.644 127.100,116.121 128.100,116.359 130.100,116.342 131.100,116.421 132.100,116.359 133.100,116.443 135.100,117.169 136.100,117.150 137.100,117.260 138.100,117.781 139.100,117.378 141.100,117.639 143.100,117.467"  style="fill:none;stroke:#fff;stroke-width:0.1953;opacity:1" stroke-linecap="round"/>
  <polyline points="55.250,116.059 56.250,116.301 59.250,115.692 60.250,115.626 61.250,116.049 63.250,115.496 69.250,115.053 71.250,114.640 73.250,114.080 81.250,114.021 82.250,112.784 83.250,112.205 84.250,112.168 85.250,111.915 87.250,111.735 89.250,111.103 90.250,110.185 91.250,110.308 92.250,109.416 94.250,109.135 96.250,108.118 101.250,106.600 107.250,103.496 112.250,108.806 113.250,111.162 116.250,111.537 118.250,112.134 120.250,112.423 121.250,113.187 122.250,113.349 123.250,113.433 124.250,113.201 128.250,113.667 129.250,114.467 130.250,114.699 132.250,114.944 133.250,115.030 135.250,114.656 142.250,115.395"  style="fill:none;stroke:#fff;stroke-width:0.1953;opacity:1" stroke-linecap="round"/>
  <polyline points="55.400,114.579 57.400,114.184 58.400,113.976 59.400,113.539 61.400,114.063 65.400,113.417 66.400,113.010 67.400,113.190 70.400,112.597 73.400,112.463 76.400,111.760 78.400,111.262 79.400,110.882 80.400,111.209 81.400,111.052 84.400,110.403 86.400,110.054 87.400,109.477 89.400,109.189 91.400,108.633 93.400,107.570 94.400,106.762 96.400,105.925 97.400,104.549 99.400,103.548 100.400,99.975 101.400,99.426 102.400,101.662 103.400,103.124 104.400,104.301 105.400,105.195 106.400,105.949 108.400,106.297 111.400,107.432 113.400,108.582 115.400,109.029 116.400,109.733 117.400,109.854 119.400,110.145 121.400,110.740 122.400,110.872 123.400,111.056 124.400,111.851 125.400,111.453 127.400,111.680 129.400,112.073 130.400,112.106 131.400,112.835 132.400,112.844 133.400,113.227 138.400,113.352 142.400,113.159 144.400,113.587"  style="fill:none;stroke:#fff;stroke-width:0.1953;opacity:1" stroke-linecap="round"/>
  <polyline points="56.550,111.863 57.550,112.324 58.550,111.958 60.550,111.728 64.550,111.561 68.550,111.094 71.550,110.517 73.550,110.303 74.550,110.223 78.550,109.645 79.550,109.321 81.550,109.143 82.550,108.315 83.550,108.132 87.550,108.089 89.550,106.785 91.550,106.398 92.550,105.468 94.550,104.891 95.550,103.767 97.550,103.245 99.550,101.287 102.550,97.589 103.550,101.454 106.550,102.456 107.550,104.616 108.550,105.099 111.550,105.689 112.550,106.698 114.550,106.873 118.550,107.773 119.550,108.355 120.550,108.962 121.550,108.788 123.550,109.343 124.550,109.303 125.550,109.709 127.550,109.868 131.550,110.490 132.550,110.602 133.550,110.757 134.550,110.708 137.550,111.200 139.550,111.301 141.550,111.407 143.550,111.671"  style="fill:none;stroke:#fff;stroke-width:0.1953;opacity:1" stroke-linecap="round"/>
  <polyline points="55.700,110.329 56.700,109.911 60.700,110.256 61.700,109.610 62.700,109.355 65.700,109.678 66.700,109.449 67.700,108.987 68.700,108.790 69.700,109.077 70.700,108.381 73.700,108.643 74.700,108.268 77.700,107.918 79.700,107.265 80.700,107.263 82.700,106.764 83.700,106.384 84.700,105.878 85.700,105.742 91.700,105.590 94.700,103.676 95.700,101.740 96.700,101.174 97.700,100.124 98.700,99.035 99.700,97.516 100.700,95.088 101.700,96.277 103.700,98.174 104.700,100.550 105.700,101.493 106.700,102.083 107.700,102.506 109.700,103.349 111.700,103.925 112.700,104.495 114.700,105.052 115.700,105.674 116.700,105.892 117.700,105.913 119.700,106.565 120.700,106.967 121.700,106.846 125.700,107.134 126.700,107.685 129.700,107.879 130.700,108.679 132.700,108.881 133.700,108.832 134.700,109.001 138.700,108.840 139.700,109.299 141.700,109.679 142.700,110.117"  style="fill:none;stroke:#fff;stroke-width:0.1953;opacity:1" stroke-linecap="round"/>
  <polyline points="55.850,108.465 57.850,107.790 58.850,108.112 59.850,108.140 61.850,107.352 62.850,107.416 64.850,107.314 65.850,107.022 66.850,106.958 67.850,107.255 68.850,107.045 69.850,106.764 71.850,106.573 72.850,106.470 75.850,106.066 76.850,105.963 79.850,105.412 81.850,105.177 82.850,104.568 83.850,104.535 85.850,103.950 86.850,103.299 87.850,103.194 88.850,102.768 90.850,102.345 92.850,101.620 95.850,100.703 98.850,98.891 99.850,95.283 100.850,92.581 109.850,94.557 110.850,102.294 111.850,102.228 112.850,103.042 114.850,103.119 117.850,103.554 118.850,104.587 119.850,104.542 127.850,104.727 128.850,106.523 129.850,106.228 130.850,106.486 134.850,106.935 135.850,107.261 140.850,107.463 141.850,108.168 143.850,108.132"  style="fill:none;stroke:#fff;stroke-width:0.1953;opacity:1" stroke-linecap="round"/>
  <polyline points="56.000,106.486 57.000,105.812 58.000,105.689 63.000,105.611 64.000,105.752 65.000,104.980 67.000,104.801 70.000,104.838 78.000,104.212 83.000,103.040 85.000,102.223 86.000,101.647 89.000,101.703 91.000,100.427 93.000,99.977 94.000,98.863 95.000,98.293 96.000,97.612 98.000,96.719 100.000,94.601 101.000,90.000 102.000,92.932 104.000,94.632 105.000,96.914 107.000,97.680 109.000,98.580 111.000,99.510 112.000,100.255 113.000,100.726 115.000,101.207 116.000,101.943 117.000,101.976 118.000,102.215 125.000,102.434 126.000,103.461 128.000,104.255 130.000,104.459 131.000,104.834 132.000,104.428 135.000,104.701 139.000,105.315 140.000,105.246"  style="fill:none;stroke:#fff;stroke-width:0.1953;opacity:1" stroke-linecap="round"/>
  <polyline points="56.150,104.410 58.150,104.275 59.150,104.217 61.150,104.123 62.150,103.237 63.150,103.635 69.150,103.311 71.150,102.312 73.150,102.319 74.150,102.373 75.150,101.684 76.150,101.572 77.150,101.909 78.150,101.190 81.150,101.381 84.150,100.510 85.150,99.734 91.150,99.692 92.150,97.835 93.150,97.106 95.150,96.939 99.150,95.573 101.150,90.606 102.150,91.267 103.150,92.851 106.150,93.970 110.150,96.398 111.150,98.374 112.150,98.397 115.150,98.969 116.150,99.556 118.150,99.882 122.150,100.203 124.150,101.026 125.150,101.758 126.150,102.000 133.150,102.134 134.150,103.133 139.150,103.019"  style="fill:none;stroke:#fff;stroke-width:0.1953;opacity:1" stroke-linecap="round"/>
  <polyline points="56.300,102.200 57.300,101.941 58.300,101.801 59.300,101.538 60.300,102.157 61.300,101.873 62.300,101.762 66.300,101.747 67.300,100.835 68.300,100.815 69.300,100.532 70.300,100.703 71.300,100.183 72.300,100.054 75.300,100.019 76.300,99.926 77.300,99.866 78.300,99.265 79.300,99.532 80.300,98.931 83.300,98.694 87.300,98.300 90.300,97.272 91.300,95.941 92.300,95.424 95.300,95.036 96.300,93.299 97.300,92.678 98.300,91.585 99.300,90.217 100.300,88.195 106.300,87.094 107.300,94.625 109.300,94.999 111.300,95.846 114.300,96.566 115.300,97.475 116.300,97.716 119.300,98.276 120.300,98.855 122.300,98.784 123.300,99.087 124.300,99.592 128.300,99.647 129.300,100.617 130.300,100.238 131.300,100.430 134.300,101.059 138.300,100.994 139.300,101.771 140.300,101.622 143.300,101.647"  style="fill:none;stroke:#fff;stroke-width:0.1953;opacity:1" stroke-linecap="round"/>
  <polyline points="56.450,99.670 61.450,99.852 62.450,99.271 67.450,99.676 74.450,98.862 75.450,98.145 80.450,97.576 82.450,97.117 85.450,96.166 86.450,95.529 91.450,95.264 92.450,93.772 94.450,92.980 95.450,92.106 96.450,91.108 97.450,90.302 98.450,89.467 100.450,87.946 104.450,85.597 105.450,91.199 106.450,92.056 107.450,92.622 108.450,92.837 109.450,93.407 110.450,93.820 111.450,94.403 113.450,94.711 119.450,95.212 127.450,97.024 129.450,98.427 130.450,98.709 131.450,98.681 134.450,98.592 136.450,99.141 138.450,99.674 139.450,99.868"  style="fill:none;stroke:#fff;stroke-width:0.1953;opacity:1" stroke-linecap="round"/>
  <polyline points="59.600,98.259 64.600,97.785 65.600,97.232 67.600,96.745 71.600,97.130 75.600,95.956 77.600,96.006 79.600,95.237 80.600,95.043 85.600,94.872 86.600,93.857 92.600,93.362 97.600,90.991 102.600,87.179 104.600,87.404 105.600,89.222 109.600,89.798 114.600,92.124 115.600,93.761 118.600,94.056 123.600,94.704 125.600,95.759 126.600,95.670 127.600,96.137 128.600,96.242 131.600,96.500 134.600,96.889 135.600,97.035 136.600,97.529 138.600,97.684 139.600,97.829"  style="fill:none;stroke:#fff;stroke-width:0.1953;opacity:1" stroke-linecap="round"/>
  <polyline points="58.750,96.412 59.750,96.040 60.750,95.554 61.750,95.387 63.750,95.399 64.750,95.645 65.750,94.984 66.750,95.441 71.750,95.340 72.750,94.252 73.750,93.826 74.750,94.301 77.750,94.105 79.750,93.452 80.750,93.137 83.750,92.581 84.750,92.239 87.750,91.645 89.750,90.746 90.750,90.024 92.750,89.787 94.750,88.978 95.750,87.728 96.750,86.973 100.750,86.118 102.750,82.310 103.750,85.668 106.750,86.511 111.750,88.508 115.750,90.824 116.750,91.994 117.750,92.278 119.750,92.451 125.750,92.689 126.750,94.023 128.750,93.866 130.750,94.039 132.750,94.368 133.750,95.120 135.750,95.341 136.750,95.046 139.750,95.152 140.750,95.688 142.750,95.881"  style="fill:none;stroke:#fff;stroke-width:0.1953;opacity:1" stroke-linecap="round"/>
  <polyline points="57.900,94.224 60.900,93.952 61.900,93.468 62.900,93.229 66.900,93.626 67.900,92.791 68.900,92.523 70.900,92.550 71.900,92.174 73.900,92.446 74.900,91.922 78.900,92.002 79.900,91.326 80.900,90.871 82.900,90.792 84.900,90.351 85.900,89.800 87.900,89.604 88.900,88.736 90.900,88.773 91.900,87.927 93.900,87.578 97.900,86.213 98.900,82.829 100.900,81.080 104.900,80.782 105.900,85.603 106.900,86.277 108.900,86.561 109.900,87.600 110.900,88.026 111.900,88.735 112.900,88.903 114.900,89.059 115.900,89.789 117.900,89.940 119.900,90.533 120.900,90.976 122.900,91.039 123.900,91.379 125.900,91.676 127.900,92.069 129.900,92.099 131.900,92.190 133.900,92.799 135.900,93.162 136.900,93.344 137.900,93.032 139.900,93.556 140.900,93.967 141.900,94.145 142.900,94.225"  style="fill:none;stroke:#fff;stroke-width:0.1953;opacity:1" stroke-linecap="round"/>
  <polyline points="57.050,92.272 59.050,92.216 60.050,91.945 62.050,91.911 64.050,91.660 65.050,91.116 67.050,91.307 68.050,91.219 69.050,91.078 70.050,90.925 72.050,90.481 73.050,89.956 77.050,89.877 78.050,89.638 79.050,89.463 80.050,88.789 83.050,88.982 85.050,88.307 87.050,87.691 90.050,87.172 93.050,85.974 94.050,84.719 96.050,84.419 97.050,82.767 100.050,81.966 101.050,76.204 103.050,78.991 104.050,81.854 106.050,83.017 109.050,84.230 111.050,85.838 112.050,86.372 114.050,86.659 115.050,87.306 116.050,87.919 117.050,87.801 118.050,88.073 119.050,88.166 120.050,88.744 122.050,89.088 124.050,89.009 125.050,89.892 126.050,89.685 127.050,89.608 129.050,89.836 130.050,90.764 131.050,90.787 133.050,90.487 136.050,91.216 137.050,91.231 141.050,91.644"  style="fill:none;stroke:#fff;stroke-width:0.1953;opacity:1" stroke-linecap="round"/>
  <polyline points="58.200,90.387 60.200,90.285 61.200,89.678 63.200,89.421 64.200,89.666 65.200,89.530 67.200,89.178 68.200,89.239 70.200,88.993 72.200,88.329 74.200,88.421 75.200,88.088 76.200,88.047 80.200,87.698 81.200,87.111 82.200,86.623 84.200,86.654 85.200,85.984 90.200,85.668 91.200,83.973 92.200,83.900 94.200,83.091 95.200,81.915 97.200,81.441 98.200,79.553 103.200,78.351 104.200,80.043 106.200,80.943 108.200,82.386 110.200,83.279 111.200,84.027 112.200,84.724 114.200,84.848 116.200,85.467 117.200,85.882 118.200,86.583 121.200,86.203 123.200,87.012 124.200,87.559 127.200,87.708 129.200,88.486 130.200,88.706 131.200,88.671 132.200,88.657 133.200,89.133 134.200,88.819 135.200,89.092 138.200,89.499 139.200,89.421 140.200,89.292 142.200,89.936"  style="fill:none;stroke:#fff;stroke-width:0.1953;opacity:1" stroke-linecap="round"/>
  <polyline points="59.350,87.652 61.350,87.915 69.350,87.589 70.350,86.899 71.350,86.376 72.350,86.418 74.350,86.443 76.350,85.647 78.350,85.868 79.350,85.499 80.350,85.202 81.350,84.959 83.350,84.876 84.350,84.013 85.350,83.717 86.350,83.849 87.350,83.315 93.350,83.225 97.350,80.790 103.350,77.608 104.350,78.160 110.350,79.214 111.350,82.372 112.350,82.509 116.350,82.817 117.350,84.120 118.350,84.385 120.350,84.578 125.350,84.930 126.350,85.664 127.350,86.333 129.350,86.289 130.350,86.538 131.350,86.462 134.350,86.469 138.350,86.815 140.350,87.789 141.350,87.709 142.350,88.264"  style="fill:none;stroke:#fff;stroke-width:0.1953;opacity:1" stroke-linecap="round"/>
  <polyline points="58.500,86.319 60.500,85.898 61.500,85.561 63.500,85.773 65.500,85.135 66.500,84.824 69.500,84.616 71.500,84.511 74.500,84.593 75.500,83.961 78.500,83.975 79.500,82.966 80.500,83.177 82.500,82.933 83.500,82.097 86.500,82.022 87.500,81.244 89.500,80.936 90.500,80.273 91.500,79.948 94.500,79.452 95.500,78.027 97.500,77.267 99.500,75.332 102.500,71.684 103.500,75.177 104.500,76.442 106.500,77.279 107.500,78.615 110.500,79.223 112.500,80.476 115.500,80.962 116.500,82.073 117.500,81.899 118.500,82.591 119.500,82.730 131.500,82.508 132.500,84.688 133.500,84.536 134.500,84.981 137.500,84.865"  style="fill:none;stroke:#fff;stroke-width:0.1953;opacity:1" stroke-linecap="round"/>
  <polyline points="57.650,84.261 58.650,83.866 59.650,83.949 64.650,83.930 67.650,83.285 71.650,82.672 72.650,82.633 73.650,82.020 76.650,81.678 78.650,81.247 79.650,81.345 80.650,80.678 81.650,81.014 83.650,80.690 85.650,80.363 87.650,79.510 94.650,79.038 95.650,75.969 97.650,75.203 99.650,73.027 103.650,69.244 104.650,74.361 105.650,75.386 106.650,75.979 110.650,76.641 112.650,78.466 115.650,79.299 116.650,80.182 119.650,80.157 122.650,81.136 123.650,81.326 126.650,81.305 127.650,81.858 129.650,82.389 130.650,82.548 131.650,82.897 132.650,82.580 136.650,83.051 138.650,83.743 139.650,83.359 140.650,83.598 141.650,83.442"  style="fill:none;stroke:#fff;stroke-width:0.1953;opacity:1" stroke-linecap="round"/>
  <polyline points="58.800,81.909 60.800,82.200 61.800,81.864 64.800,81.732 66.800,81.512 70.800,81.169 71.800,80.472 72.800,80.471 74.800,79.970 77.800,80.165 78.800,79.608 79.800,79.089 83.800,78.842 84.800,78.295 85.800,77.756 86.800,77.771 87.800,77.345 88.800,76.701 89.800,76.762 90.800,76.162 91.800,75.598 92.800,75.506 93.800,74.716 94.800,74.183 95.800,73.602 96.800,72.980 97.800,72.129 100.800,71.044 102.800,68.534 103.800,71.779 104.800,72.671 106.800,73.593 108.800,74.618 110.800,75.609 112.800,76.660 113.800,77.013 114.800,77.669 116.800,77.479 118.800,78.000 122.800,78.444 124.800,79.564 130.800,80.062 133.800,80.702 135.800,80.968 137.800,81.025 138.800,81.257 140.800,81.951 141.800,81.422"  style="fill:none;stroke:#fff;stroke-width:0.1953;opacity:1" stroke-linecap="round"/>
  <polyline points="57.950,79.700 59.950,79.986 60.950,79.337 62.950,79.730 68.950,79.380 69.950,78.815 73.950,78.509 78.950,77.851 79.950,76.934 83.950,76.807 84.950,75.890 85.950,75.755 86.950,75.621 87.950,75.296 89.950,74.963 90.950,74.176 91.950,73.918 92.950,73.281 95.950,72.992 99.950,70.881 101.950,64.207 104.950,68.546 108.950,71.576 109.950,73.559 111.950,74.123 112.950,74.620 114.950,75.243 116.950,75.540 119.950,76.277 120.950,76.580 122.950,77.085 123.950,77.736 125.950,77.594 126.950,78.000 135.950,78.383 136.950,79.386 137.950,79.561 138.950,79.429 139.950,79.220 140.950,80.000"  style="fill:none;stroke:#fff;stroke-width:0.1953;opacity:1" stroke-linecap="round"/>
  <polyline points="58.100,78.136 59.100,78.268 60.100,78.003 62.100,77.964 64.100,77.740 65.100,77.043 66.100,77.111 68.100,77.325 72.100,76.768 74.100,75.888 75.100,76.187 80.100,76.041 81.100,74.751 84.100,74.773 86.100,74.198 87.100,73.180 88.100,73.255 90.100,72.956 91.100,72.246 94.100,71.909 95.100,70.257 96.100,69.429 98.100,68.887 99.100,66.454 100.100,64.670 101.100,62.394 102.100,65.156 104.100,66.778 105.100,69.058 106.100,69.784 111.100,70.217 113.100,72.554 116.100,73.277 117.100,74.170 119.100,73.985 123.100,74.592 124.100,75.476 126.100,75.453 127.100,75.840 129.100,76.427 131.100,76.116 132.100,76.817 133.100,76.823 134.100,76.698 137.100,77.085 139.100,77.184"  style="fill:none;stroke:#fff;stroke-width:0.1953;opacity:1" stroke-linecap="round"/>
  <polyline points="61.250,75.740 62.250,75.465 64.250,75.659 66.250,75.639 67.250,75.151 69.250,74.777 70.250,74.318 71.250,74.310 74.250,74.698 75.250,74.201 77.250,73.876 79.250,73.676 84.250,72.771 85.250,71.688 87.250,71.776 90.250,71.311 91.250,70.105 92.250,69.675 95.250,69.040 96.250,67.338 100.250,66.733 102.250,60.936 103.250,64.924 104.250,66.159 108.250,67.089 110.250,69.403 111.250,70.429 112.250,70.503 115.250,71.143 123.250,72.034 125.250,73.806 126.250,74.018 128.250,74.180 129.250,74.089 131.250,74.727 132.250,74.811 133.250,74.841 134.250,74.787 138.250,75.202 139.250,75.616 140.250,75.689 141.250,75.359"  style="fill:none;stroke:#fff;stroke-width:0.1953;opacity:1" stroke-linecap="round"/>
  <polyline points="58.400,74.244 59.400,73.488 60.400,73.498 64.400,73.629 66.400,73.567 70.400,73.339 78.400,72.137 80.400,71.088 81.400,70.803 83.400,70.727 86.400,70.359 87.400,69.261 91.400,69.246 92.400,67.480 94.400,67.028 95.400,66.188 98.400,65.258 99.400,62.012 101.400,59.943 103.400,61.777 104.400,64.160 105.400,64.963 106.400,65.781 110.400,66.376 112.400,68.199 113.400,68.991 116.400,69.189 119.400,69.948 121.400,70.712 123.400,70.834 131.400,71.615 132.400,72.748 136.400,72.770 137.400,73.604 139.400,73.656 141.400,73.938"  style="fill:none;stroke:#fff;stroke-width:0.1953;opacity:1" stroke-linecap="round"/>
  <polyline points="58.550,72.066 59.550,71.997 60.550,71.948 62.550,71.462 67.550,71.781 69.550,70.955 70.550,70.730 72.550,70.202 73.550,70.205 77.550,69.899 82.550,69.617 83.550,68.591 84.550,67.893 85.550,67.628 87.550,67.700 88.550,67.033 89.550,66.951 90.550,66.457 91.550,65.990 93.550,65.705 94.550,64.642 98.550,63.903 99.550,59.889 100.550,57.565 104.550,57.882 106.550,63.237 107.550,64.399 109.550,65.102 110.550,66.022 113.550,66.249 114.550,67.355 118.550,67.339 119.550,68.415 120.550,68.532 122.550,68.676 123.550,69.047 124.550,69.211 126.550,69.416 127.550,69.842 128.550,70.174 129.550,70.420 130.550,70.733 133.550,70.958 137.550,71.067 138.550,71.743"  style="fill:none;stroke:#fff;stroke-width:0.1953;opacity:1" stroke-linecap="round"/>
  <polyline points="58.700,69.590 59.700,70.144 64.700,69.654 66.700,68.985 72.700,68.674 74.700,68.445 79.700,67.867 80.700,66.665 85.700,66.733 86.700,65.393 87.700,65.166 88.700,64.741 89.700,64.797 92.700,64.324 93.700,62.809 94.700,62.627 101.700,61.681 102.700,58.192 104.700,59.585 108.700,61.349 111.700,63.746 113.700,64.866 118.700,65.383 119.700,66.923 120.700,67.134 121.700,67.213 122.700,67.077 123.700,67.269 125.700,67.511 126.700,68.057 129.700,68.042 132.700,68.199 134.700,68.653 137.700,68.811 138.700,69.249 139.700,69.401"  style="fill:none;stroke:#fff;stroke-width:0.1953;opacity:1" stroke-linecap="round"/>
  <polyline points="59.850,68.109 61.850,67.473 65.850,67.845 66.850,67.300 68.850,66.875 69.850,66.838 71.850,66.602 73.850,66.461 74.850,66.013 76.850,65.867 78.850,65.598 81.850,65.413 83.850,64.716 84.850,63.979 85.850,63.929 91.850,63.522 93.850,61.242 96.850,60.237 97.850,58.012 98.850,56.828 100.850,55.290 103.850,54.658 105.850,58.843 110.850,60.343 112.850,62.553 113.850,62.884 114.850,63.214 116.850,63.696 118.850,64.515 120.850,64.484 124.850,64.777 126.850,65.846 127.850,65.892 128.850,66.387 129.850,66.564 130.850,66.305 136.850,66.396 138.850,67.653 140.850,67.484"  style="fill:none;stroke:#fff;stroke-width:0.1953;opacity:1" stroke-linecap="round"/>
  <polyline points="59.000,65.491 61.000,65.684 65.000,65.942 66.000,64.879 68.000,64.834 70.000,64.708 73.000,64.340 74.000,64.059 75.000,64.152 76.000,63.708 77.000,63.511 81.000,63.631 84.000,62.582 85.000,61.951 86.000,61.545 87.000,61.354 90.000,61.128 91.000,60.017 93.000,59.833 94.000,58.714 97.000,58.360 98.000,56.019 99.000,54.593 100.000,52.865 102.000,50.000 104.000,54.635 105.000,56.727 106.000,57.561 108.000,58.281 109.000,59.332 110.000,59.691 111.000,59.996 112.000,60.475 113.000,60.669 114.000,61.175 116.000,61.570 117.000,62.126 119.000,62.533 120.000,62.442 121.000,62.671 124.000,63.375 125.000,63.404 126.000,63.788 127.000,63.708 129.000,64.289 132.000,64.617 135.000,64.762 136.000,65.422 139.000,65.046"  style="fill:none;stroke:#fff;stroke-width:0.1953;opacity:1" stroke-linecap="round"/>
  <polyline points="63.150,64.205 66.150,63.690 67.150,63.051 69.150,63.117 70.150,62.841 71.150,62.561 72.150,62.233 73.150,62.345 76.150,61.795 80.150,61.566 82.150,61.070 83.150,60.442 84.150,60.194 86.150,59.899 87.150,59.694 88.150,58.957 89.150,58.958 90.150,58.519 91.150,58.265 92.150,57.444 95.150,57.146 101.150,55.475 103.150,51.311 105.150,53.877 109.150,55.608 110.150,57.688 111.150,58.002 112.150,58.761 114.150,58.792 116.150,59.301 119.150,60.008 120.150,61.037 121.150,60.959 122.150,61.293 123.150,61.375 125.150,61.517 126.150,62.085 128.150,61.771 129.150,62.191 130.150,62.305 132.150,62.805 133.150,62.792 134.150,63.181 140.150,62.714"  style="fill:none;stroke:#fff;stroke-width:0.1953;opacity:1" stroke-linecap="round"/>
  <polyline points="59.300,61.955 60.300,61.650 61.300,61.455 63.300,61.937 66.300,61.335 68.300,60.951 71.300,60.530 73.300,60.097 75.300,59.762 76.300,59.659 79.300,59.642 81.300,59.191 86.300,58.924 90.300,57.648 94.300,56.248 96.300,54.227 97.300,52.521 98.300,51.538 100.300,50.120 101.300,47.139 102.300,49.495 104.300,50.983 105.300,53.113 106.300,53.732 107.300,54.557 108.300,54.756 111.300,55.214 115.300,56.839 118.300,57.702 121.300,58.237 123.300,59.085 124.300,59.197 126.300,59.906 127.300,60.286 128.300,60.470 132.300,60.518 133.300,61.195 134.300,60.929 137.300,60.726 139.300,61.486 140.300,61.341"  style="fill:none;stroke:#fff;stroke-width:0.1953;opacity:1" stroke-linecap="round"/>
  <polyline points="66.450,59.670 68.450,58.707 69.450,58.615 73.450,58.495 76.450,57.822 81.450,57.426 83.450,56.657 84.450,56.278 85.450,55.845 86.450,55.326 87.450,55.537 88.450,55.158 89.450,54.911 91.450,54.306 94.450,53.327 95.450,52.121 96.450,51.238 97.450,50.276 98.450,49.363 100.450,48.002 101.450,45.604 103.450,47.757 106.450,50.196 109.450,52.486 111.450,53.755 112.450,54.862 114.450,55.041 118.450,55.693 120.450,56.560 122.450,56.668 123.450,57.436 124.450,57.233 126.450,57.486 127.450,58.262 129.450,57.845 134.450,58.480 136.450,59.414 137.450,59.419 138.450,59.751 139.450,59.353 140.450,59.507"  style="fill:none;stroke:#fff;stroke-width:0.1953;opacity:1" stroke-linecap="round"/>
  <polyline points="62.600,58.036 63.600,57.182 64.600,57.152 65.600,57.213 67.600,57.108 68.600,56.544 69.600,56.503 71.600,56.881 72.600,56.581 73.600,55.993 75.600,56.284 78.600,55.636 81.600,55.019 82.600,54.645 84.600,54.206 85.600,54.022 86.600,53.702 89.600,53.393 90.600,52.217 91.600,52.130 95.600,51.558 96.600,49.124 97.600,48.343 99.600,47.141 100.600,43.412 103.600,43.977 106.600,48.468 109.600,50.561 111.600,52.073 113.600,52.732 115.600,53.451 117.600,54.013 119.600,54.533 122.600,54.631 123.600,55.441 124.600,55.609 126.600,55.513 127.600,55.978 128.600,55.988 129.600,56.383 130.600,56.291 132.600,56.352 133.600,57.256 134.600,57.124 137.600,57.245 139.600,57.112"  style="fill:none;stroke:#fff;stroke-width:0.1953;opacity:1" stroke-linecap="round"/>
  <polyline points="59.750,55.641 63.750,55.931 65.750,55.124 71.750,55.045 73.750,54.191 75.750,54.190 76.750,53.585 78.750,53.607 79.750,53.196 81.750,52.633 82.750,52.508 84.750,52.331 85.750,52.016 87.750,51.281 88.750,50.926 92.750,50.455 93.750,49.134 94.750,48.504 97.750,47.583 99.750,44.965 100.750,40.926 103.750,42.330 104.750,46.598 105.750,47.424 106.750,48.249 107.750,48.623 108.750,49.225 109.750,49.805 110.750,50.001 111.750,50.651 112.750,50.698 113.750,50.925 116.750,51.684 121.750,52.163 122.750,53.165 123.750,53.211 124.750,53.343 126.750,53.912 127.750,53.920 128.750,54.518 131.750,54.040 135.750,54.640 136.750,55.186 138.750,55.439"  style="fill:none;stroke:#fff;stroke-width:0.1953;opacity:1" stroke-linecap="round"/>
  <polyline points="59.900,53.905 63.900,53.797 64.900,52.930 66.900,53.521 71.900,53.069 72.900,52.234 75.900,52.452 77.900,51.387 78.900,51.385 79.900,51.397 81.900,51.062 84.900,50.414 90.900,49.530 91.900,48.004 93.900,47.471 96.900,46.490 99.900,44.103 100.900,38.397 101.900,40.776 106.900,42.459 108.900,46.669 110.900,47.873 113.900,48.695 114.900,49.546 115.900,49.629 116.900,50.237 117.900,50.439 121.900,50.434 122.900,51.500 123.900,51.637 124.900,51.279 126.900,51.442 131.900,52.300 132.900,52.764 134.900,52.683 136.900,53.258 138.900,53.023"  style="fill:none;stroke:#fff;stroke-width:0.1953;opacity:1" stroke-linecap="round"/>
  <polyline points="61.050,51.783 62.050,51.892 64.050,51.298 65.050,51.596 67.050,50.810 70.050,51.119 72.050,50.549 74.050,49.972 76.050,49.753 79.050,49.410 85.050,48.811 88.050,47.554 89.050,46.840 90.050,46.307 92.050,46.149 93.050,45.374 94.050,44.890 96.050,44.074 99.050,42.823 101.050,38.796 102.050,38.988 103.050,40.698 106.050,41.859 108.050,44.227 109.050,45.146 112.050,45.590 114.050,46.844 115.050,47.469 116.050,47.873 117.050,48.126 118.050,48.313 120.050,48.450 122.050,48.668 123.050,49.111 124.050,49.787 126.050,49.618 127.050,49.818 131.050,49.884 133.050,50.560 136.050,50.563 138.050,51.641 139.050,51.347"  style="fill:none;stroke:#fff;stroke-width:0.1953;opacity:1" stroke-linecap="round"/>
  <polyline points="60.200,50.033 62.200,49.884 63.200,49.677 64.200,49.554 67.200,48.934 68.200,48.750 72.200,48.734 73.200,48.389 77.200,48.277 79.200,47.392 82.200,47.299 84.200,46.259 85.200,45.758 86.200,45.971 88.200,45.287 91.200,44.743 93.200,43.831 94.200,42.827 95.200,41.926 97.200,41.576 100.200,39.647 101.200,34.757 104.200,37.371 105.200,40.957 106.200,41.921 107.200,42.401 109.200,42.868 110.200,43.879 112.200,44.047 114.200,44.826 116.200,45.517 117.200,46.266 118.200,46.235 121.200,46.361 123.200,47.323 125.200,47.327 126.200,47.589 127.200,48.129 128.200,47.891 132.200,48.320 133.200,48.752 138.200,49.278 139.200,49.261"  style="fill:none;stroke:#fff;stroke-width:0.1953;opacity:1" stroke-linecap="round"/>
  <polyline points="60.350,47.644 65.350,47.360 67.350,47.202 68.350,46.684 69.350,46.736 70.350,46.446 71.350,46.206 73.350,46.667 75.350,45.779 76.350,45.790 77.350,45.698 79.350,45.403 81.350,44.749 83.350,44.517 84.350,43.860 85.350,43.707 86.350,43.563 89.350,43.076 92.350,42.474 97.350,40.903 99.350,37.520 100.350,34.103 101.350,33.300 104.350,35.535 105.350,39.255 106.350,39.763 110.350,40.591 111.350,42.078 114.350,42.714 115.350,43.603 116.350,43.649 117.350,44.371 121.350,44.319 122.350,45.045 123.350,45.579 124.350,45.206 125.350,45.791 126.350,45.950 128.350,45.828 132.350,46.159 133.350,46.753 135.350,46.858 136.350,47.297"  style="fill:none;stroke:#fff;stroke-width:0.1953;opacity:1" stroke-linecap="round"/>
  <polyline points="63.500,45.560 64.500,45.492 65.500,44.993 68.500,44.760 69.500,44.622 70.500,44.403 71.500,44.639 76.500,44.171 77.500,43.614 78.500,43.423 79.500,43.033 81.500,43.197 82.500,42.368 84.500,42.225 85.500,41.985 88.500,41.326 90.500,40.936 91.500,40.067 92.500,39.540 94.500,38.941 95.500,37.757 97.500,37.322 98.500,35.352 99.500,33.940 101.500,31.709 103.500,33.905 104.500,36.346 107.500,37.040 109.500,38.987 110.500,39.995 111.500,40.505 113.500,40.960 114.500,41.235 115.500,41.403 116.500,41.674 120.500,41.899 128.500,42.757 130.500,44.052 131.500,44.821 132.500,44.475 134.500,45.033 138.500,44.826"  style="fill:none;stroke:#fff;stroke-width:0.1953;opacity:1" stroke-linecap="round"/>
  <polyline points="61.650,43.979 63.650,43.551 64.650,43.561 65.650,42.943 66.650,42.830 69.650,43.076 70.650,42.846 71.650,42.153 75.650,42.326 76.650,41.803 78.650,41.782 81.650,41.343 84.650,40.660 85.650,39.541 86.650,39.594 88.650,39.113 90.650,38.517 91.650,38.000 93.650,37.584 94.650,36.467 95.650,35.679 96.650,35.022 98.650,34.317 99.650,31.604 100.650,29.280 102.650,30.152 105.650,33.413 106.650,35.908 109.650,36.591 111.650,37.930 112.650,38.570 115.650,39.245 116.650,40.144 120.650,40.330 121.650,41.038 122.650,41.379 123.650,41.078 124.650,41.256 129.650,41.943 130.650,42.638 132.650,42.772 134.650,42.966 136.650,42.757 137.650,43.211"  style="fill:none;stroke:#fff;stroke-width:0.1953;opacity:1" stroke-linecap="round"/>
  <polyline points="61.800,41.421 63.800,41.233 64.800,41.392 66.800,41.390 68.800,41.206 70.800,40.873 74.800,40.449 75.800,39.494 76.800,39.460 78.800,39.425 79.800,38.907 81.800,38.824 83.800,38.224 84.800,37.823 86.800,37.805 87.800,37.070 88.800,36.774 90.800,36.771 92.800,35.968 94.800,34.798 95.800,33.857 96.800,32.878 98.800,32.197 99.800,29.265 103.800,26.771 105.800,32.769 106.800,33.950 108.800,34.549 109.800,35.728 111.800,35.945 112.800,37.072 113.800,36.832 115.800,37.216 116.800,38.081 117.800,37.892 118.800,38.536 120.800,38.601 121.800,38.863 128.800,39.304 129.800,40.395 133.800,40.225 135.800,41.095"  style="fill:none;stroke:#fff;stroke-width:0.1953;opacity:1" stroke-linecap="round"/>
  <polyline points="61.950,39.735 62.950,39.231 66.950,39.206 67.950,38.761 69.950,38.606 70.950,38.193 73.950,38.249 74.950,38.244 76.950,37.833 78.950,37.599 80.950,37.388 83.950,36.756 88.950,35.724 89.950,34.562 90.950,34.302 94.950,33.724 95.950,31.643 97.950,30.753 98.950,28.714 99.950,27.092 101.950,24.211 103.950,28.565 104.950,30.929 105.950,31.434 107.950,32.323 108.950,33.470 110.950,33.874 112.950,34.546 114.950,35.025 117.950,35.721 121.950,36.395 123.950,37.072 125.950,37.512 126.950,37.824 129.950,38.447 131.950,38.687 133.950,38.904 134.950,39.319 136.950,39.268"  style="fill:none;stroke:#fff;stroke-width:0.1953;opacity:1" stroke-linecap="round"/>
  <polyline points="61.100,37.538 62.100,37.714 66.100,37.321 70.100,37.233 71.100,36.312 72.100,36.724 73.100,36.513 74.100,36.057 75.100,35.739 76.100,35.501 77.100,35.669 78.100,35.377 79.100,35.487 80.100,35.131 81.100,35.133 83.100,34.898 85.100,34.320 87.100,33.687 88.100,33.211 89.100,32.819 91.100,32.511 93.100,31.487 97.100,30.728 100.100,27.819 101.100,22.407 103.100,25.103 105.100,27.864 108.100,29.697 109.100,31.555 111.100,31.927 112.100,32.751 113.100,32.887 114.100,33.021 116.100,33.226 117.100,33.729 118.100,33.951 120.100,34.315 121.100,35.143 123.100,35.038 124.100,35.703 125.100,35.473 126.100,36.095 128.100,35.657 129.100,36.131 130.100,36.069 135.100,36.495 136.100,37.177"  style="fill:none;stroke:#fff;stroke-width:0.1953;opacity:1" stroke-linecap="round"/>
  <polyline points="61.250,35.355 65.250,35.273 66.250,34.951 67.250,34.989 68.250,34.681 72.250,34.438 73.250,33.978 75.250,33.850 77.250,33.926 79.250,33.671 80.250,32.897 81.250,32.888 82.250,32.832 83.250,32.294 84.250,32.354 86.250,31.896 90.250,31.284 92.250,29.931 93.250,29.238 97.250,28.623 99.250,25.514 100.250,22.322 105.250,20.948 106.250,27.877 107.250,28.428 109.250,28.873 111.250,29.705 112.250,30.833 113.250,30.684 114.250,31.155 115.250,31.760 116.250,31.752 117.250,32.137 121.250,32.128 122.250,33.413 124.250,33.412 125.250,33.406 128.250,33.913 130.250,34.468 134.250,34.800 138.250,35.338"  style="fill:none;stroke:#fff;stroke-width:0.1953;opacity:1" stroke-linecap="round"/>
  <polyline points="63.400,33.720 65.400,33.513 67.400,32.999 70.400,32.667 71.400,32.760 72.400,32.285 74.400,32.063 76.400,31.657 78.400,31.245 79.400,31.508 80.400,31.083 82.400,30.603 83.400,30.575 86.400,30.323 87.400,29.510 88.400,28.999 89.400,28.765 92.400,28.195 93.400,27.244 94.400,26.483 96.400,26.037 98.400,24.467 100.400,21.962 102.400,19.444 104.400,23.237 105.400,25.154 106.400,25.772 110.400,26.442 111.400,28.471 113.400,28.673 115.400,29.395 118.400,29.588 119.400,30.677 121.400,30.687 122.400,30.971 126.400,31.395 127.400,32.124 129.400,31.883 130.400,32.743 132.400,32.459 133.400,32.547 134.400,32.720 138.400,33.226"  style="fill:none;stroke:#fff;stroke-width:0.1953;opacity:1" stroke-linecap="round"/>
  <polyline points="62.550,31.916 63.550,31.245 64.550,31.279 72.550,31.223 75.550,30.434 80.550,29.446 81.550,28.726 82.550,28.630 85.550,28.491 90.550,27.772 91.550,25.805 92.550,25.482 97.550,25.197 98.550,21.247 99.550,19.776 100.550,17.606 102.550,17.841 104.550,21.430 106.550,23.151 107.550,24.664 108.550,25.135 110.550,25.704 111.550,26.129 112.550,26.665 114.550,26.816 115.550,27.687 116.550,28.034 118.550,28.378 119.550,28.502 120.550,28.579 121.550,29.082 124.550,29.296 125.550,29.809 126.550,29.585 127.550,30.396 129.550,30.493 133.550,30.454 135.550,31.257 136.550,31.418"  style="fill:none;stroke:#fff;stroke-width:0.1953;opacity:1" stroke-linecap="round"/>
  <polyline points="62.700,29.929 65.700,29.658 66.700,28.976 67.700,28.836 68.700,28.841 69.700,28.595 70.700,28.487 72.700,28.180 75.700,28.106 76.700,27.793 77.700,27.373 78.700,27.121 81.700,27.214 82.700,26.841 83.700,26.606 85.700,25.794 87.700,25.798 91.700,24.817 93.700,23.505 94.700,22.219 95.700,21.796 100.700,20.986 101.700,16.276 102.700,18.119 103.700,19.543 107.700,20.638 109.700,23.219 113.700,24.244 115.700,25.224 119.700,25.831 121.700,27.147 122.700,27.335 123.700,27.580 125.700,27.304 128.700,28.141 130.700,28.707 132.700,28.753 133.700,28.871 134.700,28.741 136.700,28.932 137.700,29.668"  style="fill:none;stroke:#fff;stroke-width:0.1953;opacity:1" stroke-linecap="round"/>
  <polyline points="64.850,27.634 65.850,26.874 66.850,27.455 69.850,26.631 72.850,26.213 73.850,26.158 77.850,26.190 81.850,25.296 85.850,24.741 87.850,23.680 92.850,22.831 93.850,20.736 94.850,20.252 95.850,19.548 96.850,19.088 97.850,17.973 100.850,16.777 101.850,14.600 108.850,16.432 109.850,21.927 111.850,22.185 112.850,22.610 114.850,23.104 115.850,23.583 117.850,23.678 121.850,24.319 122.850,25.059 123.850,25.432 125.850,25.591 128.850,25.690 129.850,26.029 131.850,26.384 132.850,26.885 133.850,27.225 137.850,27.015"  style="fill:none;stroke:#fff;stroke-width:0.1953;opacity:1" stroke-linecap="round"/>
  <polyline points="63.000,25.775 65.000,25.310 66.000,25.367 68.000,25.415 71.000,24.507 73.000,24.328 74.000,23.754 75.000,23.981 77.000,23.762 79.000,23.796 81.000,22.841 83.000,22.927 88.000,22.252 89.000,20.784 90.000,20.762 91.000,20.250 93.000,19.513 95.000,18.665 96.000,17.744 98.000,16.782 101.000,14.585 105.000,12.922 106.000,17.675 108.000,18.403 109.000,19.386 111.000,19.574 113.000,20.790 118.000,21.393 121.000,22.475 124.000,23.160 127.000,23.680 131.000,23.989 132.000,24.462 135.000,24.640"  style="fill:none;stroke:#fff;stroke-width:0.1953;opacity:1" stroke-linecap="round"/>
</svg>
